<svg width="2324" height="1078" xmlns="http://www.w3.org/2000/svg" xmlns:xlink="http://www.w3.org/1999/xlink" xml:space="preserve" overflow="hidden"><g transform="translate(-41 -22)"><g><rect x="45" y="230" width="364" height="61.0002" fill="#F4B9BE" fill-opacity="0.498039"/><text fill="#000000" fill-opacity="1" font-family="Arial,Arial_MSFontService,sans-serif" font-style="normal" font-variant="normal" font-weight="400" font-stretch="normal" font-size="23" text-anchor="start" direction="ltr" writing-mode="lr-tb" unicode-bidi="normal" text-decoration="none" transform="matrix(1 0 0 1 69.9978 268)">chr7:g.55174772_55174786del </text><rect x="45" y="352" width="364" height="60.9998" fill="#F4B9BE" fill-opacity="0.498039"/><text fill="#000000" fill-opacity="1" font-family="Arial,Arial_MSFontService,sans-serif" font-style="normal" font-variant="normal" font-weight="400" font-stretch="normal" font-size="23" text-anchor="start" direction="ltr" writing-mode="lr-tb" unicode-bidi="normal" text-decoration="none" transform="matrix(1 0 0 1 69.9978 390)">chr7:g.55174773_55174787del </text><rect x="526" y="230" width="364" height="61.0002" fill="#F4B9BE" fill-opacity="0.498039"/><text fill="#000000" fill-opacity="1" font-family="Arial,Arial_MSFontService,sans-serif" font-style="normal" font-variant="normal" font-weight="400" font-stretch="normal" font-size="23" text-anchor="start" direction="ltr" writing-mode="lr-tb" unicode-bidi="normal" text-decoration="none" transform="matrix(1 0 0 1 552.629 268)">NM_005228.5:c.2235_2249del</text><rect x="526" y="352" width="364" height="60.9998" fill="#F4B9BE" fill-opacity="0.498039"/><text fill="#000000" fill-opacity="1" font-family="Arial,Arial_MSFontService,sans-serif" font-style="normal" font-variant="normal" font-weight="400" font-stretch="normal" font-size="23" text-anchor="start" direction="ltr" writing-mode="lr-tb" unicode-bidi="normal" text-decoration="none" transform="matrix(1 0 0 1 552.629 390)">NM_005228.5:c.2236_2250del</text><rect x="1007" y="230" width="364" height="61.0002" fill="#F4B9BE" fill-opacity="0.498039"/><text fill="#000000" fill-opacity="1" font-family="Arial,Arial_MSFontService,sans-serif" font-style="normal" font-variant="normal" font-weight="400" font-stretch="normal" font-size="23" text-anchor="start" direction="ltr" writing-mode="lr-tb" unicode-bidi="normal" text-decoration="none" transform="matrix(1 0 0 1 1031.82 268)">NP_005219.2:p.E746_A750del</text><rect x="1007" y="352" width="364" height="60.9998" fill="#F4B9BE" fill-opacity="0.501961"/><text fill="#000000" fill-opacity="1" font-family="Arial,Arial_MSFontService,sans-serif" font-style="normal" font-variant="normal" font-weight="400" font-stretch="normal" font-size="23" text-anchor="start" direction="ltr" writing-mode="lr-tb" unicode-bidi="normal" text-decoration="none" transform="matrix(1 0 0 1 1034.11 390)">NP_005219.2:p.L747_T751del</text><rect x="1488" y="230" width="364" height="61.0002" fill="#CF5C86" fill-opacity="0.498039"/><text fill="#000000" fill-opacity="1" font-family="Arial,Arial_MSFontService,sans-serif" font-style="italic" font-variant="normal" font-weight="400" font-stretch="normal" font-size="23" text-anchor="start" direction="ltr" writing-mode="lr-tb" unicode-bidi="normal" text-decoration="none" transform="matrix(1 0 0 1 1551.41 268)">EGFR</text><text fill="#000000" fill-opacity="1" font-family="Arial,Arial_MSFontService,sans-serif" font-style="normal" font-variant="normal" font-weight="400" font-stretch="normal" font-size="23" text-anchor="start" direction="ltr" writing-mode="lr-tb" unicode-bidi="normal" text-decoration="none" transform="matrix(1 0 0 1 1621.3 268)">exon 19 deletion</text><rect x="1969" y="230" width="364" height="61.0002" fill="#867DCE" fill-opacity="0.501961"/><text fill="#000000" fill-opacity="1" font-family="Arial,Arial_MSFontService,sans-serif" font-style="normal" font-variant="normal" font-weight="400" font-stretch="normal" font-size="23" text-anchor="start" direction="ltr" writing-mode="lr-tb" unicode-bidi="normal" text-decoration="none" transform="matrix(1 0 0 1 2019.43 268)">Response to Dacomitinib*</text><rect x="1969" y="352" width="364" height="60.9998" fill="#867DCE" fill-opacity="0.501961"/><text fill="#000000" fill-opacity="1" font-family="Arial,Arial_MSFontService,sans-serif" font-style="normal" font-variant="normal" font-weight="400" font-stretch="normal" font-size="23" text-anchor="start" direction="ltr" writing-mode="lr-tb" unicode-bidi="normal" text-decoration="none" transform="matrix(1 0 0 1 2037.76 390)">Response to Erlotinib*</text><rect x="1969" y="474" width="364" height="60.9998" fill="#867DCE" fill-opacity="0.501961"/><text fill="#000000" fill-opacity="1" font-family="Arial,Arial_MSFontService,sans-serif" font-style="normal" font-variant="normal" font-weight="400" font-stretch="normal" font-size="23" text-anchor="start" direction="ltr" writing-mode="lr-tb" unicode-bidi="normal" text-decoration="none" transform="matrix(1 0 0 1 2021.43 512)">Response to Osimertinib*</text><rect x="45" y="474" width="364" height="60.9998" fill="#F4B9BE" fill-opacity="0.501961"/><text fill="#000000" fill-opacity="1" font-family="Arial,Arial_MSFontService,sans-serif" font-style="normal" font-variant="normal" font-weight="400" font-stretch="normal" font-size="23" text-anchor="start" direction="ltr" writing-mode="lr-tb" unicode-bidi="normal" text-decoration="none" transform="matrix(1 0 0 1 69.9974 512)">chr7:g.55174775_55174789del </text><path d="M409 258.854 503.217 258.854 503.217 261.146 409 261.146ZM498.634 246.25 526.133 260 498.633 273.75Z" fill="#7D3C46" fill-rule="nonzero" fill-opacity="0.74902"/><path d="M409 380.854 503.217 380.854 503.217 383.146 409 383.146ZM498.634 368.25 526.134 382 498.634 395.75Z" fill="#7D3C46" fill-rule="nonzero" fill-opacity="0.74902"/><path d="M890 258.854 984.217 258.854 984.217 261.146 890 261.146ZM979.633 246.25 1007.13 260 979.633 273.75Z" fill="#7D3C46" fill-rule="nonzero" fill-opacity="0.74902"/><path d="M1371 258.854 1465.22 258.854 1465.22 261.146 1371 261.146ZM1460.63 246.25 1488.13 260 1460.63 273.75Z" fill="#7D3C46" fill-rule="nonzero" fill-opacity="0.74902"/><path d="M1852 258.854 1946.22 258.854 1946.22 261.146 1852 261.146ZM1941.63 246.25 1969.13 260 1941.63 273.75Z" fill="#7D3C46" fill-rule="nonzero" fill-opacity="0.74902"/><path d="M1852.07 258.856 1857.63 259.21 1863.2 260.253 1868.67 261.933 1874 264.2 1879.15 267.01 1884.08 270.316 1888.74 274.072 1893.09 278.234 1897.09 282.759 1900.7 287.601 1903.88 292.718 1906.58 298.066 1908.76 303.601 1910.37 309.281 1911.37 315.061 1911.71 320.827 1912.05 326.528 1912.03 326.4 1913.01 332.057 1912.98 331.94 1914.56 337.507 1914.53 337.401 1916.67 342.835 1916.62 342.738 1919.28 347.993 1919.23 347.905 1922.35 352.938 1922.29 352.857 1925.85 357.622 1925.79 357.547 1929.73 362 1929.66 361.931 1933.94 366.027 1933.87 365.963 1938.45 369.657 1938.37 369.598 1943.21 372.846 1942.91 372.703 1947.52 374.131 1946.84 376.32 1942.07 374.843 1937.05 371.473 1932.39 367.717 1928.04 363.554 1924.04 359.03 1920.43 354.188 1917.25 349.071 1914.55 343.723 1912.38 338.187 1910.76 332.507 1909.76 326.728 1909.42 320.962 1909.09 315.26 1909.1 315.388 1908.12 309.732 1908.15 309.849 1906.57 304.281 1906.6 304.388 1904.47 298.954 1904.51 299.051 1901.86 293.796 1901.91 293.884 1898.78 288.851 1898.84 288.932 1895.29 284.167 1895.35 284.241 1891.41 279.789 1891.47 279.857 1887.19 275.762 1887.26 275.826 1882.68 272.131 1882.76 272.191 1877.92 268.942 1878.01 268.997 1872.96 266.239 1873.06 266.287 1867.83 264.065 1867.94 264.106 1862.59 262.463 1862.71 262.494 1857.27 261.476 1857.41 261.493 1851.93 261.143ZM1946.72 360.739 1969.13 381.789 1938.85 387.087Z" fill="#7D3C46" fill-rule="nonzero" fill-opacity="0.74902"/><path d="M1852.15 258.863 1857.76 259.579 1863.43 261.701 1868.95 265.091 1874.3 269.639 1879.44 275.25 1884.35 281.833 1888.98 289.299 1893.3 297.561 1897.27 306.532 1900.84 316.123 1903.98 326.248 1906.65 336.818 1908.8 347.746 1910.39 358.942 1911.38 370.32 1911.71 381.755 1912.05 393.158 1912.04 393.093 1913.02 404.406 1913.02 404.344 1914.6 415.48 1914.59 415.419 1916.72 426.287 1916.71 426.228 1919.36 436.739 1919.35 436.679 1922.47 446.744 1922.45 446.684 1926 456.213 1925.98 456.15 1929.92 465.055 1929.88 464.988 1934.17 473.179 1934.12 473.106 1938.71 480.495 1938.65 480.415 1943.49 486.911 1943.27 486.682 1949.76 491.599 1948.37 493.426 1941.75 488.411 1936.79 481.745 1932.16 474.278 1927.84 466.016 1923.87 457.046 1920.29 447.454 1917.15 437.329 1914.48 426.759 1912.33 415.832 1910.74 404.635 1909.76 393.258 1909.42 381.823 1909.09 370.42 1909.09 370.485 1908.11 359.171 1908.12 359.233 1906.54 348.098 1906.55 348.158 1904.41 337.291 1904.42 337.35 1901.77 326.839 1901.79 326.898 1898.66 316.833 1898.68 316.894 1895.13 307.364 1895.16 307.428 1891.22 298.522 1891.25 298.59 1886.97 290.398 1887.01 290.471 1882.43 283.082 1882.48 283.163 1877.64 276.666 1877.71 276.756 1872.66 271.24 1872.76 271.339 1867.54 266.894 1867.68 266.998 1862.32 263.712 1862.52 263.808 1857.08 261.772 1857.34 261.835 1851.86 261.137ZM1951.69 478.258 1969.13 503.578 1938.41 502.34Z" fill="#7D3C46" fill-rule="nonzero" fill-opacity="0.74902"/><rect x="526" y="474" width="364" height="60.9998" fill="#F4B9BE" fill-opacity="0.501961"/><text fill="#000000" fill-opacity="1" font-family="Arial,Arial_MSFontService,sans-serif" font-style="normal" font-variant="normal" font-weight="400" font-stretch="normal" font-size="23" text-anchor="start" direction="ltr" writing-mode="lr-tb" unicode-bidi="normal" text-decoration="none" transform="matrix(1 0 0 1 552.629 512)">NM_005228.5:c.2240_2254del</text><rect x="1007" y="474" width="364" height="60.9998" stroke="#7C8184" stroke-width="2.29167" stroke-linecap="butt" stroke-linejoin="round" stroke-miterlimit="10" stroke-dasharray="9.16667 6.875" stroke-opacity="0.25098" fill="#F4B9BE" fill-opacity="0.25098"/><text fill="#BFBFBF" fill-opacity="1" font-family="Arial,Arial_MSFontService,sans-serif" font-style="normal" font-variant="normal" font-weight="400" font-stretch="normal" font-size="23" text-anchor="start" direction="ltr" writing-mode="lr-tb" unicode-bidi="normal" text-decoration="none" transform="matrix(1 0 0 1 1177.34 512)">…</text><rect x="1488" y="352" width="364" height="60.9998" stroke="#7C8184" stroke-width="2.29167" stroke-linecap="butt" stroke-linejoin="round" stroke-miterlimit="10" stroke-dasharray="9.16667 6.875" stroke-opacity="0.25098" fill="#CF5C86" fill-opacity="0.25098"/><text fill="#BFBFBF" fill-opacity="1" font-family="Arial,Arial_MSFontService,sans-serif" font-style="normal" font-variant="normal" font-weight="400" font-stretch="normal" font-size="23" text-anchor="start" direction="ltr" writing-mode="lr-tb" unicode-bidi="normal" text-decoration="none" transform="matrix(1 0 0 1 1658.26 390)">…</text><rect x="1488" y="474" width="364" height="60.9998" stroke="#7C8184" stroke-width="2.29167" stroke-linecap="butt" stroke-linejoin="round" stroke-miterlimit="10" stroke-dasharray="9.16667 6.875" stroke-opacity="0.25098" fill="#CF5C86" fill-opacity="0.25098"/><text fill="#BFBFBF" fill-opacity="1" font-family="Arial,Arial_MSFontService,sans-serif" font-style="normal" font-variant="normal" font-weight="400" font-stretch="normal" font-size="23" text-anchor="start" direction="ltr" writing-mode="lr-tb" unicode-bidi="normal" text-decoration="none" transform="matrix(1 0 0 1 1658.26 512)">…</text><path d="M3.53036e-06-1.14583 94.2167-1.14554 94.2167 1.14612-3.53036e-06 1.14583ZM89.6334-13.7497 117.133 0.000360892 89.6334 13.7503Z" fill="#7D3C46" fill-rule="nonzero" fill-opacity="0.74902" transform="matrix(1 0 0 -1 409 504)"/><text fill="#000000" fill-opacity="1" font-family="Arial,Arial_MSFontService,sans-serif" font-style="normal" font-variant="normal" font-weight="400" font-stretch="normal" font-size="28" text-anchor="start" direction="ltr" writing-mode="lr-tb" unicode-bidi="normal" text-decoration="none" transform="matrix(1 0 0 1 832.33 722)">Categorical due to:</text><rect x="45" y="751" width="364" height="134" fill="#B78A12" fill-opacity="0.25098"/><text fill="#000000" fill-opacity="1" font-family="Arial,Arial_MSFontService,sans-serif" font-style="normal" font-variant="normal" font-weight="400" font-stretch="normal" font-size="28" text-anchor="start" direction="ltr" writing-mode="lr-tb" unicode-bidi="normal" text-decoration="none" transform="matrix(1 0 0 1 86.3255 795)">Reference assemblies, </text><text fill="#000000" fill-opacity="1" font-family="Arial,Arial_MSFontService,sans-serif" font-style="normal" font-variant="normal" font-weight="400" font-stretch="normal" font-size="28" text-anchor="start" direction="ltr" writing-mode="lr-tb" unicode-bidi="normal" text-decoration="none" transform="matrix(1 0 0 1 95.1942 828)">insertion and deletion </text><text fill="#000000" fill-opacity="1" font-family="Arial,Arial_MSFontService,sans-serif" font-style="normal" font-variant="normal" font-weight="400" font-stretch="normal" font-size="28" text-anchor="start" direction="ltr" writing-mode="lr-tb" unicode-bidi="normal" text-decoration="none" transform="matrix(1 0 0 1 144.465 861)">normalization</text><rect x="526" y="751" width="364" height="67.0001" fill="#B78A12" fill-opacity="0.25098"/><text fill="#000000" fill-opacity="1" font-family="Arial,Arial_MSFontService,sans-serif" font-style="normal" font-variant="normal" font-weight="400" font-stretch="normal" font-size="28" text-anchor="start" direction="ltr" writing-mode="lr-tb" unicode-bidi="normal" text-decoration="none" transform="matrix(1 0 0 1 602.758 795)">Transcript choice</text><rect x="1007" y="751" width="364" height="134" fill="#B78A12" fill-opacity="0.25098"/><text fill="#000000" fill-opacity="1" font-family="Arial,Arial_MSFontService,sans-serif" font-style="normal" font-variant="normal" font-weight="400" font-stretch="normal" font-size="28" text-anchor="start" direction="ltr" writing-mode="lr-tb" unicode-bidi="normal" text-decoration="none" transform="matrix(1 0 0 1 1067.92 795)">Codon degeneracy, </text><text fill="#000000" fill-opacity="1" font-family="Arial,Arial_MSFontService,sans-serif" font-style="normal" font-variant="normal" font-weight="400" font-stretch="normal" font-size="28" text-anchor="start" direction="ltr" writing-mode="lr-tb" unicode-bidi="normal" text-decoration="none" transform="matrix(1 0 0 1 1086.82 828)">protein isoforms, </text><text fill="#000000" fill-opacity="1" font-family="Arial,Arial_MSFontService,sans-serif" font-style="normal" font-variant="normal" font-weight="400" font-stretch="normal" font-size="28" text-anchor="start" direction="ltr" writing-mode="lr-tb" unicode-bidi="normal" text-decoration="none" transform="matrix(1 0 0 1 1042.13 861)">frameshift normalization</text><rect x="1488" y="751" width="364" height="100" fill="#B78A12" fill-opacity="0.25098"/><text fill="#000000" fill-opacity="1" font-family="Arial,Arial_MSFontService,sans-serif" font-style="normal" font-variant="normal" font-weight="400" font-stretch="normal" font-size="28" text-anchor="start" direction="ltr" writing-mode="lr-tb" unicode-bidi="normal" text-decoration="none" transform="matrix(1 0 0 1 1555.42 795)">Describing a set of </text><text fill="#000000" fill-opacity="1" font-family="Arial,Arial_MSFontService,sans-serif" font-style="normal" font-variant="normal" font-weight="400" font-stretch="normal" font-size="28" text-anchor="start" direction="ltr" writing-mode="lr-tb" unicode-bidi="normal" text-decoration="none" transform="matrix(1 0 0 1 1549.69 828)">genomic alterations</text><text fill="#000000" fill-opacity="1" font-family="Arial,Arial_MSFontService,sans-serif" font-style="normal" font-variant="normal" font-weight="400" font-stretch="normal" font-size="28" text-anchor="start" direction="ltr" writing-mode="lr-tb" unicode-bidi="normal" text-decoration="none" transform="matrix(1 0 0 1 2025.16 210)">Genomic knowledge</text><text fill="#000000" fill-opacity="1" font-family="Arial,Arial_MSFontService,sans-serif" font-style="normal" font-variant="normal" font-weight="400" font-stretch="normal" font-size="28" text-anchor="start" direction="ltr" writing-mode="lr-tb" unicode-bidi="normal" text-decoration="none" transform="matrix(1 0 0 1 1077.94 208)">HGVS Protein (p.)</text><text fill="#000000" fill-opacity="1" font-family="Arial,Arial_MSFontService,sans-serif" font-style="normal" font-variant="normal" font-weight="400" font-stretch="normal" font-size="28" text-anchor="start" direction="ltr" writing-mode="lr-tb" unicode-bidi="normal" text-decoration="none" transform="matrix(1 0 0 1 564.658 209)">HGVS Coding DNA (c.)</text><text fill="#000000" fill-opacity="1" font-family="Arial,Arial_MSFontService,sans-serif" font-style="normal" font-variant="normal" font-weight="400" font-stretch="normal" font-size="28" text-anchor="start" direction="ltr" writing-mode="lr-tb" unicode-bidi="normal" text-decoration="none" transform="matrix(1 0 0 1 104.657 208)">HGVS Genomic (g.)</text><text fill="#000000" fill-opacity="1" font-family="Arial,Arial_MSFontService,sans-serif" font-style="normal" font-variant="normal" font-weight="400" font-stretch="normal" font-size="32" text-anchor="start" direction="ltr" writing-mode="lr-tb" unicode-bidi="normal" text-decoration="none" transform="matrix(1 0 0 1 573.49 73)">Both specific and broadly defined sets of genomic alterations are inherently categorical</text><rect x="1969" y="595" width="364" height="60.9998" fill="#867DCE" fill-opacity="0.501961"/><text fill="#000000" fill-opacity="1" font-family="Arial,Arial_MSFontService,sans-serif" font-style="normal" font-variant="normal" font-weight="400" font-stretch="normal" font-size="23" text-anchor="start" direction="ltr" writing-mode="lr-tb" unicode-bidi="normal" text-decoration="none" transform="matrix(1 0 0 1 2021.43 634)">Response to Osimertinib*</text><rect x="45" y="595" width="364" height="60.9998" fill="#F4B9BE" fill-opacity="0.501961"/><text fill="#000000" fill-opacity="1" font-family="Arial,Arial_MSFontService,sans-serif" font-style="normal" font-variant="normal" font-weight="400" font-stretch="normal" font-size="23" text-anchor="start" direction="ltr" writing-mode="lr-tb" unicode-bidi="normal" text-decoration="none" transform="matrix(1 0 0 1 69.9974 634)">chr7:g.55174777_55174791del </text><rect x="526" y="595" width="364" height="60.9998" stroke="#7C8184" stroke-width="2.29167" stroke-linecap="butt" stroke-linejoin="round" stroke-miterlimit="10" stroke-dasharray="9.16667 6.875" stroke-opacity="0.25098" fill="#F4B9BE" fill-opacity="0.25098"/><text fill="#000000" fill-opacity="1" font-family="Arial,Arial_MSFontService,sans-serif" font-style="normal" font-variant="normal" font-weight="400" font-stretch="normal" font-size="23" text-anchor="start" direction="ltr" writing-mode="lr-tb" unicode-bidi="normal" text-decoration="none" transform="matrix(1 0 0 1 696.431 634)">…</text><rect x="1007" y="595" width="364" height="60.9998" stroke="#7C8184" stroke-width="2.29167" stroke-linecap="butt" stroke-linejoin="round" stroke-miterlimit="10" stroke-dasharray="9.16667 6.875" stroke-opacity="0.25098" fill="#F4B9BE" fill-opacity="0.25098"/><text fill="#BFBFBF" fill-opacity="1" font-family="Arial,Arial_MSFontService,sans-serif" font-style="normal" font-variant="normal" font-weight="400" font-stretch="normal" font-size="23" text-anchor="start" direction="ltr" writing-mode="lr-tb" unicode-bidi="normal" text-decoration="none" transform="matrix(1 0 0 1 1177.34 634)">…</text><rect x="1488" y="595" width="364" height="60.9998" stroke="#7C8184" stroke-width="2.29167" stroke-linecap="butt" stroke-linejoin="round" stroke-miterlimit="10" stroke-dasharray="9.16667 6.875" stroke-opacity="0.25098" fill="#CF5C86" fill-opacity="0.25098"/><text fill="#BFBFBF" fill-opacity="1" font-family="Arial,Arial_MSFontService,sans-serif" font-style="normal" font-variant="normal" font-weight="400" font-stretch="normal" font-size="23" text-anchor="start" direction="ltr" writing-mode="lr-tb" unicode-bidi="normal" text-decoration="none" transform="matrix(1 0 0 1 1658.26 634)">…</text><path d="M0 0C22.2974 0 44.5947 30.4018 44.5947 60.8037 44.5947 91.2055 66.8921 121.607 89.1895 121.607" stroke="#7D3C46" stroke-width="2.29167" stroke-linecap="butt" stroke-linejoin="miter" stroke-miterlimit="8" stroke-opacity="0.74902" fill="none" fill-rule="evenodd" transform="matrix(1 0 0 -1 409 625.607)"/><path d="M0 0C22.2973 0 44.5944 30.4507 44.5944 60.9015 44.5944 91.3522 66.8916 121.803 89.1888 121.803" stroke="#7D3C46" stroke-width="2.29167" stroke-linecap="butt" stroke-linejoin="miter" stroke-miterlimit="8" stroke-opacity="0.74902" fill="none" fill-rule="evenodd" transform="matrix(1 0 0 -1 890 381.803)"/><path d="M0 0C21.8864 0 43.7729 30.4507 43.7729 60.9013 43.7729 91.352 65.6593 121.803 87.5456 121.803" stroke="#7D3C46" stroke-width="2.29167" stroke-linecap="butt" stroke-linejoin="miter" stroke-miterlimit="8" stroke-opacity="0.74902" fill="none" fill-rule="evenodd" transform="matrix(1 0 0 -1 890 503.803)"/><path d="M0 0C22.2973 0 44.5944 30.4507 44.5944 60.9015 44.5944 91.3522 66.8917 121.803 89.1888 121.803" stroke="#7D3C46" stroke-width="2.29167" stroke-linecap="butt" stroke-linejoin="miter" stroke-miterlimit="8" stroke-opacity="0.74902" fill="none" fill-rule="evenodd" transform="matrix(1 0 0 -1 1371 381.803)"/><path d="M977 380.854 983.671 380.857 983.67 383.149 976.999 383.146ZM979.094 368.251 1006.59 382.014 979.081 395.751Z" fill="#7D3C46" fill-rule="nonzero" fill-opacity="0.74902"/><rect x="1892" y="972" width="471" height="60.9999" fill="#F4B9BE" fill-opacity="0.498039"/><text fill="#000000" fill-opacity="1" font-family="Arial,Arial_MSFontService,sans-serif" font-style="normal" font-variant="normal" font-weight="400" font-stretch="normal" font-size="23" text-anchor="start" direction="ltr" writing-mode="lr-tb" unicode-bidi="normal" text-decoration="none" transform="matrix(1 0 0 1 1917.58 1010)">A “specifically defined” genomic alteration</text><rect x="1892" y="1037" width="471" height="60.9999" fill="#CF5C86" fill-opacity="0.498039"/><text fill="#000000" fill-opacity="1" font-family="Arial,Arial_MSFontService,sans-serif" font-style="normal" font-variant="normal" font-weight="400" font-stretch="normal" font-size="23" text-anchor="start" direction="ltr" writing-mode="lr-tb" unicode-bidi="normal" text-decoration="none" transform="matrix(1 0 0 1 1906.41 1076)">A broadly defined set of genomic alterations</text><text fill="#000000" fill-opacity="1" font-family="Arial,Arial_MSFontService,sans-serif" font-style="normal" font-variant="normal" font-weight="400" font-stretch="normal" font-size="23" text-anchor="start" direction="ltr" writing-mode="lr-tb" unicode-bidi="normal" text-decoration="none" transform="matrix(1 0 0 1 1905.73 945)">* for patients with non</text><text fill="#000000" fill-opacity="1" font-family="Arial,Arial_MSFontService,sans-serif" font-style="normal" font-variant="normal" font-weight="400" font-stretch="normal" font-size="23" text-anchor="start" direction="ltr" writing-mode="lr-tb" unicode-bidi="normal" text-decoration="none" transform="matrix(1 0 0 1 2124.58 945)">-</text><text fill="#000000" fill-opacity="1" font-family="Arial,Arial_MSFontService,sans-serif" font-style="normal" font-variant="normal" font-weight="400" font-stretch="normal" font-size="23" text-anchor="start" direction="ltr" writing-mode="lr-tb" unicode-bidi="normal" text-decoration="none" transform="matrix(1 0 0 1 2132.03 945)">small cell lung cancer</text></g></g></svg>