<svg width="2296" height="802" xmlns="http://www.w3.org/2000/svg" xmlns:xlink="http://www.w3.org/1999/xlink" xml:space="preserve" overflow="hidden"><defs><clipPath id="clip0"><rect x="41" y="27" width="2296" height="802"/></clipPath><clipPath id="clip1"><rect x="41" y="27" width="2296" height="802"/></clipPath></defs><g clip-path="url(#clip0)" transform="translate(-41 -27)"><g clip-path="url(#clip1)"><rect x="45" y="174" width="364" height="61.0002" fill="#F4B9BE" fill-opacity="0.498039"/><text fill="#000000" fill-opacity="1" font-family="Arial,Arial_MSFontService,sans-serif" font-style="normal" font-variant="normal" font-weight="400" font-stretch="normal" font-size="23" text-anchor="start" direction="ltr" writing-mode="lr-tb" unicode-bidi="normal" text-decoration="none" transform="matrix(1 0 0 1 69.9989 213)">chr7:g.55174772_55174786del </text><rect x="45" y="296" width="364" height="61.0002" fill="#F4B9BE" fill-opacity="0.498039"/><text fill="#000000" fill-opacity="1" font-family="Arial,Arial_MSFontService,sans-serif" font-style="normal" font-variant="normal" font-weight="400" font-stretch="normal" font-size="23" text-anchor="start" direction="ltr" writing-mode="lr-tb" unicode-bidi="normal" text-decoration="none" transform="matrix(1 0 0 1 69.9989 335)">chr7:g.55174773_55174787del </text><rect x="526" y="174" width="364" height="61.0002" fill="#F4B9BE" fill-opacity="0.498039"/><text fill="#000000" fill-opacity="1" font-family="Arial,Arial_MSFontService,sans-serif" font-style="normal" font-variant="normal" font-weight="400" font-stretch="normal" font-size="23" text-anchor="start" direction="ltr" writing-mode="lr-tb" unicode-bidi="normal" text-decoration="none" transform="matrix(1 0 0 1 552.63 213)">NM_005228.5:c.2235_2249del</text><rect x="526" y="296" width="364" height="61.0002" fill="#F4B9BE" fill-opacity="0.498039"/><text fill="#000000" fill-opacity="1" font-family="Arial,Arial_MSFontService,sans-serif" font-style="normal" font-variant="normal" font-weight="400" font-stretch="normal" font-size="23" text-anchor="start" direction="ltr" writing-mode="lr-tb" unicode-bidi="normal" text-decoration="none" transform="matrix(1 0 0 1 552.63 335)">NM_005228.5:c.2236_2250del</text><rect x="1007" y="174" width="364" height="61.0002" fill="#F4B9BE" fill-opacity="0.498039"/><text fill="#000000" fill-opacity="1" font-family="Arial,Arial_MSFontService,sans-serif" font-style="normal" font-variant="normal" font-weight="400" font-stretch="normal" font-size="23" text-anchor="start" direction="ltr" writing-mode="lr-tb" unicode-bidi="normal" text-decoration="none" transform="matrix(1 0 0 1 1031.82 213)">NP_005219.2:p.E746_A750del</text><rect x="1007" y="296" width="364" height="61.0002" fill="#F4B9BE" fill-opacity="0.501961"/><text fill="#000000" fill-opacity="1" font-family="Arial,Arial_MSFontService,sans-serif" font-style="normal" font-variant="normal" font-weight="400" font-stretch="normal" font-size="23" text-anchor="start" direction="ltr" writing-mode="lr-tb" unicode-bidi="normal" text-decoration="none" transform="matrix(1 0 0 1 1034.11 335)">NP_005219.2:p.L747_T751del</text><rect x="1488" y="174" width="364" height="61.0002" fill="#CF5C86" fill-opacity="0.498039"/><text fill="#000000" fill-opacity="1" font-family="Arial,Arial_MSFontService,sans-serif" font-style="italic" font-variant="normal" font-weight="400" font-stretch="normal" font-size="23" text-anchor="start" direction="ltr" writing-mode="lr-tb" unicode-bidi="normal" text-decoration="none" transform="matrix(1 0 0 1 1551.41 213)">EGFR</text><text fill="#000000" fill-opacity="1" font-family="Arial,Arial_MSFontService,sans-serif" font-style="normal" font-variant="normal" font-weight="400" font-stretch="normal" font-size="23" text-anchor="start" direction="ltr" writing-mode="lr-tb" unicode-bidi="normal" text-decoration="none" transform="matrix(1 0 0 1 1621.3 213)">exon 19 deletion</text><rect x="1969" y="174" width="364" height="61.0002" fill="#867DCE" fill-opacity="0.501961"/><text fill="#000000" fill-opacity="1" font-family="Arial,Arial_MSFontService,sans-serif" font-style="normal" font-variant="normal" font-weight="400" font-stretch="normal" font-size="23" text-anchor="start" direction="ltr" writing-mode="lr-tb" unicode-bidi="normal" text-decoration="none" transform="matrix(1 0 0 1 2019.43 213)">Response to Dacomitinib*</text><rect x="1969" y="296" width="364" height="61.0002" fill="#867DCE" fill-opacity="0.501961"/><text fill="#000000" fill-opacity="1" font-family="Arial,Arial_MSFontService,sans-serif" font-style="normal" font-variant="normal" font-weight="400" font-stretch="normal" font-size="23" text-anchor="start" direction="ltr" writing-mode="lr-tb" unicode-bidi="normal" text-decoration="none" transform="matrix(1 0 0 1 2037.76 335)">Response to Erlotinib*</text><rect x="1969" y="418" width="364" height="60.9998" fill="#867DCE" fill-opacity="0.501961"/><text fill="#000000" fill-opacity="1" font-family="Arial,Arial_MSFontService,sans-serif" font-style="normal" font-variant="normal" font-weight="400" font-stretch="normal" font-size="23" text-anchor="start" direction="ltr" writing-mode="lr-tb" unicode-bidi="normal" text-decoration="none" transform="matrix(1 0 0 1 2021.44 456)">Response to Osimertinib*</text><rect x="45" y="418" width="364" height="60.9998" fill="#F4B9BE" fill-opacity="0.501961"/><text fill="#000000" fill-opacity="1" font-family="Arial,Arial_MSFontService,sans-serif" font-style="normal" font-variant="normal" font-weight="400" font-stretch="normal" font-size="23" text-anchor="start" direction="ltr" writing-mode="lr-tb" unicode-bidi="normal" text-decoration="none" transform="matrix(1 0 0 1 69.9985 456)">chr7:g.55174775_55174789del </text><path d="M409 203.854 503.217 203.854 503.217 206.146 409 206.146ZM498.634 191.25 526.133 205 498.633 218.75Z" fill="#7D3C46" fill-rule="nonzero" fill-opacity="0.74902"/><path d="M409 325.854 503.217 325.854 503.217 328.146 409 328.146ZM498.634 313.25 526.134 327 498.634 340.75Z" fill="#7D3C46" fill-rule="nonzero" fill-opacity="0.74902"/><path d="M890 203.854 984.217 203.854 984.217 206.146 890 206.146ZM979.633 191.25 1007.13 205 979.633 218.75Z" fill="#7D3C46" fill-rule="nonzero" fill-opacity="0.74902"/><path d="M1371 203.854 1465.22 203.854 1465.22 206.146 1371 206.146ZM1460.63 191.25 1488.13 205 1460.63 218.75Z" fill="#7D3C46" fill-rule="nonzero" fill-opacity="0.74902"/><path d="M1852 203.854 1946.22 203.854 1946.22 206.146 1852 206.146ZM1941.63 191.25 1969.13 205 1941.63 218.75Z" fill="#7D3C46" fill-rule="nonzero" fill-opacity="0.74902"/><path d="M1852.07 203.856 1857.63 204.21 1863.2 205.253 1868.67 206.933 1874 209.2 1879.15 212.01 1884.08 215.316 1888.74 219.072 1893.09 223.234 1897.09 227.759 1900.7 232.601 1903.88 237.718 1906.58 243.066 1908.76 248.601 1910.37 254.281 1911.37 260.061 1911.71 265.827 1912.05 271.528 1912.03 271.4 1913.01 277.057 1912.98 276.94 1914.56 282.507 1914.53 282.401 1916.67 287.835 1916.62 287.738 1919.28 292.993 1919.23 292.905 1922.35 297.937 1922.29 297.857 1925.85 302.622 1925.79 302.547 1929.73 307 1929.66 306.931 1933.94 311.027 1933.87 310.963 1938.45 314.657 1938.37 314.598 1943.21 317.846 1942.91 317.703 1947.52 319.131 1946.84 321.32 1942.07 319.843 1937.05 316.473 1932.39 312.717 1928.04 308.554 1924.04 304.03 1920.43 299.188 1917.25 294.071 1914.55 288.723 1912.38 283.187 1910.76 277.507 1909.76 271.728 1909.42 265.962 1909.09 260.26 1909.1 260.388 1908.12 254.732 1908.15 254.849 1906.57 249.281 1906.6 249.388 1904.47 243.954 1904.51 244.051 1901.86 238.795 1901.91 238.884 1898.78 233.851 1898.84 233.932 1895.29 229.167 1895.35 229.241 1891.41 224.789 1891.47 224.857 1887.19 220.762 1887.26 220.826 1882.68 217.131 1882.76 217.191 1877.92 213.942 1878.01 213.997 1872.96 211.239 1873.06 211.287 1867.83 209.065 1867.94 209.106 1862.59 207.463 1862.71 207.494 1857.27 206.476 1857.41 206.493 1851.93 206.143ZM1946.72 305.739 1969.13 326.789 1938.85 332.087Z" fill="#7D3C46" fill-rule="nonzero" fill-opacity="0.74902"/><path d="M1852.15 203.863 1857.76 204.579 1863.43 206.701 1868.95 210.091 1874.3 214.639 1879.44 220.25 1884.35 226.833 1888.98 234.299 1893.3 242.561 1897.27 251.532 1900.84 261.123 1903.98 271.248 1906.65 281.818 1908.8 292.746 1910.39 303.942 1911.38 315.32 1911.71 326.755 1912.05 338.158 1912.04 338.093 1913.02 349.406 1913.02 349.344 1914.6 360.48 1914.59 360.419 1916.72 371.287 1916.71 371.228 1919.36 381.739 1919.35 381.679 1922.47 391.744 1922.45 391.684 1926 401.213 1925.98 401.15 1929.92 410.055 1929.88 409.988 1934.17 418.179 1934.12 418.106 1938.71 425.495 1938.65 425.415 1943.49 431.911 1943.27 431.682 1949.76 436.599 1948.37 438.426 1941.75 433.411 1936.79 426.744 1932.16 419.278 1927.84 411.016 1923.87 402.046 1920.29 392.454 1917.15 382.329 1914.48 371.759 1912.33 360.832 1910.74 349.635 1909.76 338.258 1909.42 326.823 1909.09 315.42 1909.09 315.485 1908.11 304.171 1908.12 304.233 1906.54 293.098 1906.55 293.158 1904.41 282.291 1904.42 282.35 1901.77 271.839 1901.79 271.898 1898.66 261.833 1898.68 261.894 1895.13 252.364 1895.16 252.428 1891.22 243.522 1891.25 243.59 1886.97 235.398 1887.01 235.471 1882.43 228.082 1882.48 228.163 1877.64 221.666 1877.71 221.756 1872.66 216.24 1872.76 216.339 1867.54 211.894 1867.68 211.998 1862.32 208.712 1862.52 208.808 1857.08 206.772 1857.34 206.835 1851.86 206.137ZM1951.69 423.258 1969.13 448.578 1938.41 447.34Z" fill="#7D3C46" fill-rule="nonzero" fill-opacity="0.74902"/><rect x="526" y="418" width="364" height="60.9998" fill="#F4B9BE" fill-opacity="0.501961"/><text fill="#000000" fill-opacity="1" font-family="Arial,Arial_MSFontService,sans-serif" font-style="normal" font-variant="normal" font-weight="400" font-stretch="normal" font-size="23" text-anchor="start" direction="ltr" writing-mode="lr-tb" unicode-bidi="normal" text-decoration="none" transform="matrix(1 0 0 1 552.63 456)">NM_005228.5:c.2240_2254del</text><path d="M3.53036e-06-1.14583 94.2167-1.14554 94.2167 1.14612-3.53036e-06 1.14583ZM89.6334-13.7497 117.133 0.000360892 89.6334 13.7503Z" fill="#7D3C46" fill-rule="nonzero" fill-opacity="0.74902" transform="matrix(1 0 0 -1 409 448)"/><text fill="#000000" fill-opacity="1" font-family="Arial,Arial_MSFontService,sans-serif" font-style="normal" font-variant="normal" font-weight="400" font-stretch="normal" font-size="28" text-anchor="start" direction="ltr" writing-mode="lr-tb" unicode-bidi="normal" text-decoration="none" transform="matrix(1 0 0 1 832.331 667)">Categorical due to:</text><rect x="45" y="696" width="364" height="133" fill="#B78A12" fill-opacity="0.25098"/><text fill="#000000" fill-opacity="1" font-family="Arial,Arial_MSFontService,sans-serif" font-style="normal" font-variant="normal" font-weight="400" font-stretch="normal" font-size="28" text-anchor="start" direction="ltr" writing-mode="lr-tb" unicode-bidi="normal" text-decoration="none" transform="matrix(1 0 0 1 86.3265 739)">Reference assemblies, </text><text fill="#000000" fill-opacity="1" font-family="Arial,Arial_MSFontService,sans-serif" font-style="normal" font-variant="normal" font-weight="400" font-stretch="normal" font-size="28" text-anchor="start" direction="ltr" writing-mode="lr-tb" unicode-bidi="normal" text-decoration="none" transform="matrix(1 0 0 1 95.1953 772)">insertion and deletion </text><text fill="#000000" fill-opacity="1" font-family="Arial,Arial_MSFontService,sans-serif" font-style="normal" font-variant="normal" font-weight="400" font-stretch="normal" font-size="28" text-anchor="start" direction="ltr" writing-mode="lr-tb" unicode-bidi="normal" text-decoration="none" transform="matrix(1 0 0 1 144.466 805)">normalization</text><rect x="526" y="696" width="364" height="66" fill="#B78A12" fill-opacity="0.25098"/><text fill="#000000" fill-opacity="1" font-family="Arial,Arial_MSFontService,sans-serif" font-style="normal" font-variant="normal" font-weight="400" font-stretch="normal" font-size="28" text-anchor="start" direction="ltr" writing-mode="lr-tb" unicode-bidi="normal" text-decoration="none" transform="matrix(1 0 0 1 602.76 739)">Transcript choice</text><rect x="1007" y="696" width="364" height="133" fill="#B78A12" fill-opacity="0.25098"/><text fill="#000000" fill-opacity="1" font-family="Arial,Arial_MSFontService,sans-serif" font-style="normal" font-variant="normal" font-weight="400" font-stretch="normal" font-size="28" text-anchor="start" direction="ltr" writing-mode="lr-tb" unicode-bidi="normal" text-decoration="none" transform="matrix(1 0 0 1 1067.92 739)">Codon degeneracy, </text><text fill="#000000" fill-opacity="1" font-family="Arial,Arial_MSFontService,sans-serif" font-style="normal" font-variant="normal" font-weight="400" font-stretch="normal" font-size="28" text-anchor="start" direction="ltr" writing-mode="lr-tb" unicode-bidi="normal" text-decoration="none" transform="matrix(1 0 0 1 1086.82 772)">protein isoforms, </text><text fill="#000000" fill-opacity="1" font-family="Arial,Arial_MSFontService,sans-serif" font-style="normal" font-variant="normal" font-weight="400" font-stretch="normal" font-size="28" text-anchor="start" direction="ltr" writing-mode="lr-tb" unicode-bidi="normal" text-decoration="none" transform="matrix(1 0 0 1 1042.14 805)">frameshift normalization</text><rect x="1488" y="401" width="364" height="200" fill="#B78A12" fill-opacity="0.25098"/><text fill="#000000" fill-opacity="1" font-family="Arial,Arial_MSFontService,sans-serif" font-style="normal" font-variant="normal" font-weight="400" font-stretch="normal" font-size="28" text-anchor="start" direction="ltr" writing-mode="lr-tb" unicode-bidi="normal" text-decoration="none" transform="matrix(1 0 0 1 1544.53 444)">Describes a discrete </text><text fill="#000000" fill-opacity="1" font-family="Arial,Arial_MSFontService,sans-serif" font-style="normal" font-variant="normal" font-weight="400" font-stretch="normal" font-size="28" text-anchor="start" direction="ltr" writing-mode="lr-tb" unicode-bidi="normal" text-decoration="none" transform="matrix(1 0 0 1 1568.3 477)">class of possible </text><text fill="#000000" fill-opacity="1" font-family="Arial,Arial_MSFontService,sans-serif" font-style="normal" font-variant="normal" font-weight="400" font-stretch="normal" font-size="28" text-anchor="start" direction="ltr" writing-mode="lr-tb" unicode-bidi="normal" text-decoration="none" transform="matrix(1 0 0 1 1523.33 510)">variation in the abstract, </text><text fill="#000000" fill-opacity="1" font-family="Arial,Arial_MSFontService,sans-serif" font-style="normal" font-variant="normal" font-weight="400" font-stretch="normal" font-size="28" text-anchor="start" direction="ltr" writing-mode="lr-tb" unicode-bidi="normal" text-decoration="none" transform="matrix(1 0 0 1 1529.34 543)">often representing sets </text><text fill="#000000" fill-opacity="1" font-family="Arial,Arial_MSFontService,sans-serif" font-style="normal" font-variant="normal" font-weight="400" font-stretch="normal" font-size="28" text-anchor="start" direction="ltr" writing-mode="lr-tb" unicode-bidi="normal" text-decoration="none" transform="matrix(1 0 0 1 1524.48 576)">of assayable alterations</text><text fill="#000000" fill-opacity="1" font-family="Arial,Arial_MSFontService,sans-serif" font-style="normal" font-variant="normal" font-weight="400" font-stretch="normal" font-size="28" text-anchor="start" direction="ltr" writing-mode="lr-tb" unicode-bidi="normal" text-decoration="none" transform="matrix(1 0 0 1 2025.16 154)">Genomic knowledge</text><text fill="#000000" fill-opacity="1" font-family="Arial,Arial_MSFontService,sans-serif" font-style="normal" font-variant="normal" font-weight="400" font-stretch="normal" font-size="28" text-anchor="start" direction="ltr" writing-mode="lr-tb" unicode-bidi="normal" text-decoration="none" transform="matrix(1 0 0 1 1077.94 152)">HGVS Protein (p.)</text><text fill="#000000" fill-opacity="1" font-family="Arial,Arial_MSFontService,sans-serif" font-style="normal" font-variant="normal" font-weight="400" font-stretch="normal" font-size="28" text-anchor="start" direction="ltr" writing-mode="lr-tb" unicode-bidi="normal" text-decoration="none" transform="matrix(1 0 0 1 564.659 154)">HGVS Coding DNA (c.)</text><text fill="#000000" fill-opacity="1" font-family="Arial,Arial_MSFontService,sans-serif" font-style="normal" font-variant="normal" font-weight="400" font-stretch="normal" font-size="28" text-anchor="start" direction="ltr" writing-mode="lr-tb" unicode-bidi="normal" text-decoration="none" transform="matrix(1 0 0 1 104.658 152)">HGVS Genomic (g.)</text><text fill="#000000" fill-opacity="1" font-family="Arial,Arial_MSFontService,sans-serif" font-style="normal" font-variant="normal" font-weight="400" font-stretch="normal" font-size="32" text-anchor="start" direction="ltr" writing-mode="lr-tb" unicode-bidi="normal" text-decoration="none" transform="matrix(1 0 0 1 573.489 76)">Both specific and broadly defined sets of genomic alterations are inherently categorical</text><rect x="1969" y="539" width="364" height="61.9999" fill="#867DCE" fill-opacity="0.501961"/><text fill="#000000" fill-opacity="1" font-family="Arial,Arial_MSFontService,sans-serif" font-style="normal" font-variant="normal" font-weight="400" font-stretch="normal" font-size="23" text-anchor="start" direction="ltr" writing-mode="lr-tb" unicode-bidi="normal" text-decoration="none" transform="matrix(1 0 0 1 2021.44 578)">Response to Osimertinib*</text><rect x="45" y="539" width="364" height="61.9999" fill="#F4B9BE" fill-opacity="0.501961"/><text fill="#000000" fill-opacity="1" font-family="Arial,Arial_MSFontService,sans-serif" font-style="normal" font-variant="normal" font-weight="400" font-stretch="normal" font-size="23" text-anchor="start" direction="ltr" writing-mode="lr-tb" unicode-bidi="normal" text-decoration="none" transform="matrix(1 0 0 1 69.9985 578)">chr7:g.55174777_55174791del </text><text fill="#000000" fill-opacity="1" font-family="Arial,Arial_MSFontService,sans-serif" font-style="normal" font-variant="normal" font-weight="400" font-stretch="normal" font-size="23" text-anchor="start" direction="ltr" writing-mode="lr-tb" unicode-bidi="normal" text-decoration="none" transform="matrix(0.714641 -0.699491 0.699491 0.714641 447.779 597)">Transcribes to</text><path d="M0 0C22.2974 0 44.5947 30.4018 44.5947 60.8037 44.5947 91.2055 66.8921 121.607 89.1895 121.607" stroke="#7D3C46" stroke-width="2.29167" stroke-linecap="butt" stroke-linejoin="miter" stroke-miterlimit="8" stroke-opacity="0.74902" fill="none" fill-rule="evenodd" transform="matrix(1 0 0 -1 409 569.607)"/><path d="M0 0C22.2973 0 44.5944 30.4507 44.5944 60.9015 44.5944 91.3522 66.8916 121.803 89.1888 121.803" stroke="#7D3C46" stroke-width="2.29167" stroke-linecap="butt" stroke-linejoin="miter" stroke-miterlimit="8" stroke-opacity="0.74902" fill="none" fill-rule="evenodd" transform="matrix(1 0 0 -1 890 326.803)"/><path d="M0 0C21.8864 0 43.7729 30.4507 43.7729 60.9013 43.7729 91.352 65.6593 121.803 87.5456 121.803" stroke="#7D3C46" stroke-width="2.29167" stroke-linecap="butt" stroke-linejoin="miter" stroke-miterlimit="8" stroke-opacity="0.74902" fill="none" fill-rule="evenodd" transform="matrix(1 0 0 -1 890 448.803)"/><path d="M0 0C22.2973 0 44.5944 30.4507 44.5944 60.9015 44.5944 91.3522 66.8917 121.803 89.1888 121.803" stroke="#7D3C46" stroke-width="2.29167" stroke-linecap="butt" stroke-linejoin="miter" stroke-miterlimit="8" stroke-opacity="0.74902" fill="none" fill-rule="evenodd" transform="matrix(1 0 0 -1 1371 326.803)"/><path d="M977 325.854 983.671 325.857 983.67 328.149 976.999 328.146ZM979.094 313.251 1006.59 327.014 979.081 340.751Z" fill="#7D3C46" fill-rule="nonzero" fill-opacity="0.74902"/><text fill="#000000" fill-opacity="1" font-family="Arial,Arial_MSFontService,sans-serif" font-style="normal" font-variant="normal" font-weight="400" font-stretch="normal" font-size="23" text-anchor="start" direction="ltr" writing-mode="lr-tb" unicode-bidi="normal" text-decoration="none" transform="matrix(1 0 0 1 1875.14 806)">* for patients with non</text><text fill="#000000" fill-opacity="1" font-family="Arial,Arial_MSFontService,sans-serif" font-style="normal" font-variant="normal" font-weight="400" font-stretch="normal" font-size="23" text-anchor="start" direction="ltr" writing-mode="lr-tb" unicode-bidi="normal" text-decoration="none" transform="matrix(1 0 0 1 2094 806)">-</text><text fill="#000000" fill-opacity="1" font-family="Arial,Arial_MSFontService,sans-serif" font-style="normal" font-variant="normal" font-weight="400" font-stretch="normal" font-size="23" text-anchor="start" direction="ltr" writing-mode="lr-tb" unicode-bidi="normal" text-decoration="none" transform="matrix(1 0 0 1 2101.44 806)">small cell lung cancer</text><text fill="#000000" fill-opacity="1" font-family="Arial,Arial_MSFontService,sans-serif" font-style="normal" font-variant="normal" font-weight="400" font-stretch="normal" font-size="23" text-anchor="start" direction="ltr" writing-mode="lr-tb" unicode-bidi="normal" text-decoration="none" transform="matrix(0.714641 -0.699491 0.699491 0.714641 919.454 478)">Translates to</text><text fill="#000000" fill-opacity="1" font-family="Arial,Arial_MSFontService,sans-serif" font-style="normal" font-variant="normal" font-weight="400" font-stretch="normal" font-size="23" text-anchor="start" direction="ltr" writing-mode="lr-tb" unicode-bidi="normal" text-decoration="none" transform="matrix(0.714641 -0.699491 0.699491 0.714641 1413 347)">Member of</text></g></g></svg>