<svg xmlns="http://www.w3.org/2000/svg" xmlns:xlink="http://www.w3.org/1999/xlink" xmlns:lucid="lucid" width="1973" height="1359"><g transform="translate(-3260 -1509)" lucid:page-tab-id="Nwv7B7DlasQj"><path d="M3485.18 2047.38a10.42 10.42 0 0 1 0-10.4l35.94-62.4a10.38 10.38 0 0 1 9-5.2h71.85a10.38 10.38 0 0 1 9 5.2l35.93 62.4a10.42 10.42 0 0 1 0 10.4l-35.94 62.4a10.38 10.38 0 0 1-9 5.18h-71.85a10.38 10.38 0 0 1-8.98-5.2z" stroke="#3a414a" stroke-width="4" fill="#ffd9d9"/><use xlink:href="#a" transform="matrix(1,0,0,1,3487.1866522424857,1974.3944527134624) translate(16.196358024691357 72.49652777777777)"/><use xlink:href="#b" transform="matrix(1,0,0,1,3487.1866522424857,1974.3944527134624) translate(48.233395061728395 72.49652777777777)"/><path d="M3849.18 1833.8a10.42 10.42 0 0 1 0-10.4l35.94-62.4a10.38 10.38 0 0 1 9-5.2h71.85a10.38 10.38 0 0 1 9 5.2l35.93 62.4a10.42 10.42 0 0 1 0 10.4l-35.94 62.38a10.38 10.38 0 0 1-9 5.2h-71.85a10.38 10.38 0 0 1-8.98-5.2z" stroke="#3a414a" stroke-width="4" fill="#ffd9d9"/><use xlink:href="#c" transform="matrix(1,0,0,1,3851.1876913717715,1760.808593488819) translate(26.04203703703704 72.49652777777777)"/><use xlink:href="#d" transform="matrix(1,0,0,1,3851.1876913717715,1760.808593488819) translate(44.56055555555556 72.49652777777777)"/><path d="M3593 1833.8a10.42 10.42 0 0 1 0-10.4l35.93-62.4a10.38 10.38 0 0 1 9-5.2h71.85a10.38 10.38 0 0 1 9 5.2l35.93 62.4a10.42 10.42 0 0 1 0 10.4l-35.93 62.38a10.38 10.38 0 0 1-9 5.2h-71.84a10.38 10.38 0 0 1-9-5.2z" stroke="#3a414a" stroke-width="4" fill="#ffd9d9"/><use xlink:href="#c" transform="matrix(1,0,0,1,3595,1760.808593488819) translate(5.177839506172839 72.49652777777777)"/><use xlink:href="#e" transform="matrix(1,0,0,1,3595,1760.808593488819) translate(23.696358024691357 72.49652777777777)"/><path d="M3723 2049.47a10.42 10.42 0 0 1 0-10.4l35.93-62.38a10.38 10.38 0 0 1 9-5.2h71.85a10.38 10.38 0 0 1 9 5.2l35.93 62.37a10.42 10.42 0 0 1 0 10.4l-35.93 62.4a10.38 10.38 0 0 1-9 5.2h-71.84a10.38 10.38 0 0 1-9-5.2z" stroke="#3a414a" stroke-width="4" fill="#ffd9d9"/><use xlink:href="#c" transform="matrix(1,0,0,1,3725,1976.4865412463332) translate(29.801296296296293 59.21527777777778)"/><use xlink:href="#f" transform="matrix(1,0,0,1,3725,1976.4865412463332) translate(48.31981481481481 59.21527777777778)"/><use xlink:href="#g" transform="matrix(1,0,0,1,3725,1976.4865412463332) translate(121.03586419753087 59.21527777777778)"/><use xlink:href="#h" transform="matrix(1,0,0,1,3725,1976.4865412463332) translate(53.1408024691358 85.88194444444446)"/><path d="M3297.48 2152.94a10.42 10.42 0 0 1 0-10.4l35.93-62.38a10.38 10.38 0 0 1 9-5.2h71.86a10.38 10.38 0 0 1 9 5.2l35.93 62.38a10.42 10.42 0 0 1 0 10.4l-35.94 62.4a10.38 10.38 0 0 1-9 5.2h-71.85a10.38 10.38 0 0 1-9-5.2z" stroke="#3a414a" stroke-width="4" fill="#ffd9d9"/><use xlink:href="#c" transform="matrix(1,0,0,1,3299.4806522424856,2079.957823268023) translate(31.714876543209872 45.66840277777778)"/><use xlink:href="#i" transform="matrix(1,0,0,1,3299.4806522424856,2079.957823268023) translate(50.233395061728395 45.66840277777778)"/><use xlink:href="#j" transform="matrix(1,0,0,1,3299.4806522424856,2079.957823268023) translate(37.33833333333333 72.33506944444446)"/><use xlink:href="#k" transform="matrix(1,0,0,1,3299.4806522424856,2079.957823268023) translate(18.69635802469136 99.00173611111111)"/><path d="M3297.48 1937.98a10.42 10.42 0 0 1 0-10.4l35.93-62.38a10.38 10.38 0 0 1 9-5.2h71.86a10.38 10.38 0 0 1 9 5.2l35.93 62.4a10.42 10.42 0 0 1 0 10.38l-35.94 62.4a10.38 10.38 0 0 1-9 5.2h-71.85a10.38 10.38 0 0 1-9-5.2z" stroke="#3a414a" stroke-width="4" fill="#ffd9d9"/><use xlink:href="#c" transform="matrix(1,0,0,1,3299.4806522424856,1865) translate(19.36919753086419 59.21527777777778)"/><use xlink:href="#l" transform="matrix(1,0,0,1,3299.4806522424856,1865) translate(37.88771604938271 59.21527777777778)"/><use xlink:href="#m" transform="matrix(1,0,0,1,3299.4806522424856,1865) translate(26.628456790123444 85.88194444444446)"/><path d="M3849.18 1617.98a10.42 10.42 0 0 1 0-10.4l35.94-62.38a10.38 10.38 0 0 1 9-5.2h71.85a10.38 10.38 0 0 1 9 5.2l35.93 62.4a10.42 10.42 0 0 1 0 10.38l-35.94 62.4a10.38 10.38 0 0 1-9 5.2h-71.85a10.38 10.38 0 0 1-8.98-5.2z" stroke="#3a414a" stroke-width="4" fill="#ffd9d9"/><use xlink:href="#c" transform="matrix(1,0,0,1,3851.1876913717715,1545) translate(18.134629629629636 59.21527777777778)"/><use xlink:href="#n" transform="matrix(1,0,0,1,3851.1876913717715,1545) translate(36.653148148148155 59.21527777777778)"/><use xlink:href="#o" transform="matrix(1,0,0,1,3851.1876913717715,1545) translate(34.714876543209876 85.88194444444446)"/><path d="M3748.05 1950.4l-30.7-46.6" stroke="#3a414a" stroke-width="5" stroke-linejoin="round" fill="none"/><path d="M3757.28 1964.4l-11.72-9.37 7.74-5.1z" stroke="#3a414a" stroke-width="5" fill="#3a414a"/><path d="M3719.45 1902.5l-4.13 2.72-1.63-2.48 1.12-.43 1.16-.58 1.08-.7.92-.75z" stroke="#3a414a" stroke-width=".05" fill="#3a414a"/><use xlink:href="#p" transform="matrix(1,0,0,1,3738.4003187207672,1901.3790134390256) translate(0 21.33333333333333)"/><path d="M3480.03 1992.12l-34.92-20.67" stroke="#3a414a" stroke-width="5" stroke-linejoin="round" fill="none"/><path d="M3494.46 2000.66l-14.64-3.27 4.72-8z" stroke="#3a414a" stroke-width="5" fill="#3a414a"/><path d="M3446.42 1969.36l-2.52 4.26-2.18-1.3 2.47-4.28z" stroke="#3a414a" stroke-width=".05" fill="#3a414a"/><use xlink:href="#p" transform="matrix(1,0,0,1,3469.484630574508,1952.0148487338142) translate(0 21.33333333333333)"/><path d="M3479.42 2091.15l-34.25 18.03" stroke="#3a414a" stroke-width="5" stroke-linejoin="round" fill="none"/><path d="M3494.26 2083.34l-10.47 10.75-4.32-8.2z" stroke="#3a414a" stroke-width="5" fill="#3a414a"/><path d="M3446.38 2111.34l-2.2 1.15-2.46-4.3 2.35-1.24z" stroke="#3a414a" stroke-width=".05" fill="#3a414a"/><use xlink:href="#p" transform="matrix(1,0,0,1,3444.0515450386524,2065.535120642225) translate(0 21.33333333333333)"/><path d="M3694.76 2043.52l-41.97-1.26" stroke="#3a414a" stroke-width="5" stroke-linejoin="round" fill="none"/><path d="M3711.5 2044.03l-14.4 4.2.3-9.27z" stroke="#3a414a" stroke-width="5" fill="#3a414a"/><path d="M3652.93 2039.78l-.15 4.95-2.74-.08.18-1.18.07-1.3-.08-1.3-.18-1.17z" stroke="#3a414a" stroke-width=".05" fill="#3a414a"/><use xlink:href="#p" transform="matrix(1,0,0,1,3664.9712666487326,2006.9499408218862) translate(0 21.33333333333333)"/><path d="M3858.86 1949.9l7.3-12.04 20.47-34" stroke="#3a414a" stroke-width="5" stroke-linejoin="round" fill="none"/><path d="M3850.17 1964.23l3.43-14.6 7.93 4.8z" stroke="#3a414a" stroke-width="5" fill="#3a414a"/><path d="M3886.83 1901l1.1.72 1.14.6 1.13.42-1.62 2.48-4.14-2.7 1.47-2.25z" stroke="#3a414a" stroke-width=".05" fill="#3a414a"/><use xlink:href="#p" transform="matrix(1,0,0,1,3875.23949992048,1925.8334448994644) translate(0 21.33333333333333)"/><path d="M3930.04 1728.95v-38.88" stroke="#3a414a" stroke-width="5" stroke-linejoin="round" fill="none"/><path d="M3930.04 1745.72l-4.63-14.27h9.28z" stroke="#3a414a" stroke-width="5" fill="#3a414a"/><path d="M3932.52 1690.13h-4.95v-2.56h4.95z" stroke="#3a414a" stroke-width=".05" fill="#3a414a"/><use xlink:href="#p" transform="matrix(1,0,0,1,3942.675946287396,1704.689099964426) translate(0 21.33333333333333)"/><path d="M3901.85 2241.05a8.27 8.27 0 0 1 3-9.23l104.64-76.14a8.25 8.25 0 0 1 9.7 0l104.62 76.14a8.27 8.27 0 0 1 3 9.23l-39.97 123.18a8.26 8.26 0 0 1-7.85 5.7h-129.32a8.26 8.26 0 0 1-7.86-5.7z" stroke="#3a414a" stroke-width="4" fill="#fff3d9"/><use xlink:href="#q" transform="matrix(1,0,0,1,3905,2157.1520824138756) translate(62.83833333333334 77.39583333333333)"/><use xlink:href="#r" transform="matrix(1,0,0,1,3905,2157.1520824138756) translate(85.06055555555557 77.39583333333333)"/><use xlink:href="#s" transform="matrix(1,0,0,1,3905,2157.1520824138756) translate(46.69018518518519 109.39583333333333)"/><use xlink:href="#t" transform="matrix(1,0,0,1,3905,2157.1520824138756) translate(64.63462962962963 141.39583333333334)"/><path d="M3737 2515.22l.1-.36.92-3.33 1.03-3.18 1.14-3.05 1.22-2.93 1.34-2.85 1.45-2.77 1.57-2.7 1.7-2.67 1.82-2.63 1.97-2.6 2.16-2.62 2.36-2.62 2.58-2.63 2.86-2.7 3.2-2.75 3.6-2.85 4.13-3 4.8-3.18 5.74-3.48 7.15-3.92 9.56-4.73 15.76-6.97 59.78-25 12.13-6 9.57-5.25 8.04-4.86 7-4.66 6.23-4.53 5.64-4.44 5.14-4.43 4.73-4.45 4.4-4.5 4.1-4.54.13-.15" stroke="#3a414a" stroke-width="5" stroke-linejoin="round" fill="none"/><path d="M3735.08 2531.8l-2.96-14.7 9.2 1.08z" stroke="#3a414a" stroke-width="5" fill="#3a414a"/><path d="M3942.65 2369.16l1 .82 1.08.7 1.13.52-1.98 2.34-3.78-3.2 1.74-2.05z" stroke="#3a414a" stroke-width=".05" fill="#3a414a"/><use xlink:href="#u" transform="matrix(1,0,0,1,3745.484792713183,2394.680507068626) translate(0 21.33333333333333)"/><use xlink:href="#v" transform="matrix(1,0,0,1,3745.484792713183,2394.680507068626) translate(59.18518518518517 21.33333333333333)"/><path d="M4075 2615l-.4-6.37-1.3-12.63-1.68-11.34-2-10.43-2.3-9.87-2.7-9.64-3.2-9.87-4.08-10.94-6.53-15.44-17.95-40.57-4.07-10.96-3.2-9.87-2.7-9.64-2.32-9.86-2-10.44-1.66-11.34-1.32-12.64-.9-14.4-.3-14.32" stroke="#3a414a" stroke-width="5" stroke-linejoin="round" fill="none"/><path d="M4075.58 2631.76l-5.1-14.1 9.25-.3z" stroke="#3a414a" stroke-width="5" fill="#3a414a"/><path d="M4016.8 2374.5h-4.94v-2.56h4.95z" stroke="#3a414a" stroke-width=".05" fill="#3a414a"/><use xlink:href="#u" transform="matrix(1,0,0,1,3908.1007129991767,2490.027981944927) translate(0 21.33333333333333)"/><use xlink:href="#v" transform="matrix(1,0,0,1,3908.1007129991767,2490.027981944927) translate(59.18518518518517 21.33333333333333)"/><path d="M4380.96 2475.28l-.17-.6-.85-2.6-.9-2.42-.97-2.3-1.03-2.18-1.08-2.07-1.15-1.98-1.2-1.9-1.28-1.84-1.35-1.78-1.44-1.72-1.5-1.68-1.62-1.64-1.7-1.6-1.84-1.6-1.96-1.55-2.12-1.53-2.3-1.52-2.5-1.5-2.74-1.52-3.03-1.5-3.4-1.5-3.8-1.5-4.34-1.52-5.02-1.5-5.95-1.53-7.26-1.54-9.24-1.56-12.8-1.6-22.95-1.85-72.87-4.7-16.4-2.07-12.56-2.1-10.33-2.2-8.83-2.27-7.73-2.33-6.88-2.4-6.2-2.45-5.66-2.5-5.2-2.6-4.8-2.64-4.5-2.7-4.2-2.8-3.95-2.87-3.74-2.98-3.54-3.06-3.38-3.17-3.22-3.3-2.8-3.12" stroke="#3a414a" stroke-width="5" stroke-linejoin="round" fill="none"/><path d="M4383.1 2491.83l-6.43-13.55 9.2-1.2z" stroke="#3a414a" stroke-width="5" fill="#3a414a"/><path d="M4088.57 2370.34l-3.77 3.2-1.98-2.34 1.12-.53 1.1-.7.98-.8.82-.88z" stroke="#3a414a" stroke-width=".05" fill="#3a414a"/><use xlink:href="#u" transform="matrix(1,0,0,1,4214.945768970064,2387.952629847603) translate(0 21.33333333333333)"/><use xlink:href="#v" transform="matrix(1,0,0,1,4214.945768970064,2387.952629847603) translate(59.18518518518517 21.33333333333333)"/><path d="M4456.3 2338.7l-154.74.2-32.87-2.03-27.96-2.93-26.4-3.9-26.66-5.1-28.37-6.65-31.7-8.9-16.54-5.18" stroke="#3a414a" stroke-width="5" stroke-linejoin="round" fill="none"/><path d="M4473.06 2338.67l-14.26 4.65v-9.27z" stroke="#3a414a" stroke-width="5" fill="#3a414a"/><path d="M4111.86 2301.88l-1.48 4.72-2.47-.78 1.54-4.7z" stroke="#3a414a" stroke-width=".05" fill="#3a414a"/><use xlink:href="#u" transform="matrix(1,0,0,1,4255.917231878719,2302.880236878379) translate(0 21.33333333333333)"/><use xlink:href="#v" transform="matrix(1,0,0,1,4255.917231878719,2302.880236878379) translate(59.18518518518517 21.33333333333333)"/><path d="M4456.3 2102.16l-8.87.56-15.23 1.6-14.52 2.14-14.07 2.7-13.83 3.23-13.9 3.87-14.27 4.65-15.15 5.64-16.87 7.1-20.6 9.72-34.2 18-90.3 48.97-29.73 14-23.72 10" stroke="#3a414a" stroke-width="5" stroke-linejoin="round" fill="none"/><path d="M4473.06 2101.6l-14.1 5.12-.3-9.27z" stroke="#3a414a" stroke-width="5" fill="#3a414a"/><path d="M4132.05 2236.62l-2.84 1.2-.15-1.24-.32-1.25-.47-1.2-.58-1.04 2.45-1.04z" stroke="#3a414a" stroke-width=".05" fill="#3a414a"/><use xlink:href="#u" transform="matrix(1,0,0,1,4272.872034639968,2082.646043527485) translate(0 21.33333333333333)"/><use xlink:href="#v" transform="matrix(1,0,0,1,4272.872034639968,2082.646043527485) translate(59.18518518518517 21.33333333333333)"/><path d="M4200.84 2072l-.2.7-.96 2.95-1.06 2.87-1.18 2.8-1.3 2.75-1.4 2.7-1.57 2.7-1.72 2.72-1.9 2.72-2.1 2.78-2.38 2.86-2.67 2.97-3.08 3.14-3.6 3.4-4.4 3.76-5.57 4.4-7.98 5.8-50.3 33.78-7.33 5.8-6.05 5.22-5.24 4.9-4.63 4.74-4.18 4.64-3.82 4.62-1.9 2.5" stroke="#3a414a" stroke-width="5" stroke-linejoin="round" fill="none"/><path d="M4203.06 2055.46l2.7 14.76-9.2-1.24z" stroke="#3a414a" stroke-width="5" fill="#3a414a"/><path d="M4076.33 2191.68l-1.52 2-4-2.92 1.6-2.08z" stroke="#3a414a" stroke-width=".05" fill="#3a414a"/><use xlink:href="#u" transform="matrix(1,0,0,1,4037.2630766597,2090.696910047584) translate(0 21.33333333333333)"/><use xlink:href="#v" transform="matrix(1,0,0,1,4037.2630766597,2090.696910047584) translate(59.18518518518517 21.33333333333333)"/><path d="M4981.85 2049.54a8.27 8.27 0 0 1 3-9.23l104.64-76.13a8.25 8.25 0 0 1 9.7 0l104.62 76.14a8.27 8.27 0 0 1 3 9.24l-39.97 123.18a8.26 8.26 0 0 1-7.85 5.7h-129.32a8.26 8.26 0 0 1-7.86-5.7z" stroke="#3a414a" stroke-width="4" fill="#fff3d9"/><use xlink:href="#w" transform="matrix(1,0,0,1,4985,1965.6431240734278) translate(53.13462962962963 109.48958333333333)"/><use xlink:href="#x" transform="matrix(1,0,0,1,4985,1965.6431240734278) translate(78.76425925925926 109.48958333333333)"/><path d="M5011.85 2287.07a8.27 8.27 0 0 1 3-9.23l74.64-54.3a8.25 8.25 0 0 1 9.7 0l74.62 54.3a8.27 8.27 0 0 1 3 9.23l-28.5 87.87a8.26 8.26 0 0 1-7.86 5.7h-92.24a8.26 8.26 0 0 1-7.86-5.7z" stroke="#3a414a" stroke-width="4" fill="#fff3d9"/><use xlink:href="#y" transform="matrix(1,0,0,1,5015,2225) translate(40.64080246913581 53.16840277777777)"/><use xlink:href="#z" transform="matrix(1,0,0,1,5015,2225) translate(61.99882716049383 53.16840277777777)"/><use xlink:href="#A" transform="matrix(1,0,0,1,5015,2225) translate(37.62228395061729 79.83506944444444)"/><use xlink:href="#B" transform="matrix(1,0,0,1,5015,2225) translate(42.52969135802469 106.5017361111111)"/><path d="M5029.36 2476.55a8.27 8.27 0 0 1 3-9.24l57.13-41.56a8.25 8.25 0 0 1 9.7 0l57.12 41.57a8.27 8.27 0 0 1 3 9.25l-21.83 67.25a8.26 8.26 0 0 1-7.86 5.7h-70.6a8.26 8.26 0 0 1-7.85-5.7z" stroke="#3a414a" stroke-width="4" fill="#fff3d9"/><use xlink:href="#C" transform="matrix(1,0,0,1,5032.508159777378,2427.214018783715) translate(51.659320987654326 41.417534722222214)"/><use xlink:href="#D" transform="matrix(1,0,0,1,5032.508159777378,2427.214018783715) translate(13.67783950617286 62.75086805555554)"/><use xlink:href="#E" transform="matrix(1,0,0,1,5032.508159777378,2427.214018783715) translate(31.924753086419763 84.08420138888887)"/><path d="M4372 1949.2l21.52 1.34 21.24 2.23 20.28 3 19.55 3.72 19.02 4.45 18.7 5.22 18.6 6.05 18.7 6.96 19.1 8.03 19.86 9.36 21.15 11.06 23.33 13.5 27.35 17.38 37 25.8 178.16 132.04 35.08 22.3 31.6 18.25 30 15.7 29.42 13.83 25.98 10.95" stroke="#ced4db" stroke-width="5" stroke-linejoin="round" fill="none"/><path d="M4355.23 1948.82l14.36-4.32-.2 9.27z" stroke="#ced4db" stroke-width="5" fill="#ced4db"/><path d="M5011 2279.1l-.58 1.05-.47 1.2-.32 1.25-.16 1.24-2.85-1.2 1.92-4.56z" stroke="#ced4db" stroke-width=".05" fill="#ced4db"/><use xlink:href="#F" transform="matrix(1,0,0,1,4446.3940417823915,1996.0946068032777) translate(0 21.33333333333333)"/><use xlink:href="#G" transform="matrix(1,0,0,1,4446.3940417823915,1996.0946068032777) translate(59.18518518518517 21.33333333333333)"/><path d="M4791.83 2098.92l2.2-.42 5.58-1.3 5.82-1.64 6.12-2 6.6-2.44 7.3-3.07 8.53-4.03 11.26-5.9 49.07-27.8 7.22-3.4 5.96-2.5 5.23-1.96 4.75-1.54 4.4-1.23 4.12-.98 3.95-.75 3.8-.56 3.73-.38 3.65-.23 3.6-.1 3.62.08 3.62.23 3.66.4 3.7.55 3.82.72 3.9.92 4.07 1.13 4.22 1.37 2.28.85" stroke="#ced4db" stroke-width="5" stroke-linejoin="round" fill="none"/><path d="M4775.2 2100.55l13.73-6 .9 9.22z" stroke="#ced4db" stroke-width="5" fill="#ced4db"/><path d="M4981 2041.58l-.58 1.04-.47 1.2-.32 1.25-.16 1.23-2.82-1.12 1.83-4.6z" stroke="#ced4db" stroke-width=".05" fill="#ced4db"/><use xlink:href="#F" transform="matrix(1,0,0,1,4839.695099823342,2074.1614611781943) translate(0 21.33333333333333)"/><use xlink:href="#G" transform="matrix(1,0,0,1,4839.695099823342,2074.1614611781943) translate(59.18518518518517 21.33333333333333)"/><path d="M4791.87 2103.43l4.54.86 5.07 1.18 4.9 1.37 4.78 1.55 4.68 1.74 4.62 1.94 4.58 2.16 4.6 2.4 4.62 2.67 4.7 3 4.85 3.37 5.05 3.83 5.34 4.43 5.78 5.22 6.5 6.37 7.74 8.26 10.72 12.45 47.45 58.33 9.12 9.74 7.94 7.78 7.3 6.58 6.9 5.72 6.7 5.08 6.56 4.57 6.52 4.13 6.54 3.78 6.6 3.45 6.74 3.16 4.32 1.82" stroke="#ced4db" stroke-width="5" stroke-linejoin="round" fill="none"/><path d="M4775.2 2102.02l14.6-3.42-.78 9.24z" stroke="#ced4db" stroke-width="5" fill="#ced4db"/><path d="M5011 2279.1l-.58 1.05-.47 1.2-.32 1.25-.16 1.24-2.85-1.2 1.92-4.56z" stroke="#ced4db" stroke-width=".05" fill="#ced4db"/><use xlink:href="#F" transform="matrix(1,0,0,1,4924.095570318507,2186.3132780280566) translate(0 21.33333333333333)"/><use xlink:href="#G" transform="matrix(1,0,0,1,4924.095570318507,2186.3132780280566) translate(59.18518518518517 21.33333333333333)"/><path d="M4240.8 2726.96l118.5-63.17 374.02-212.3 76.84-36.88 75.3-32.3 80.8-30.7 55.65-18.98" stroke="#ced4db" stroke-width="5" stroke-linejoin="round" fill="none"/><path d="M4226 2734.84l10.4-10.8 4.36 8.18z" stroke="#ced4db" stroke-width="5" fill="#ced4db"/><path d="M5025.04 2334.18l-2.4.82-1.6-4.68 2.47-.85z" stroke="#ced4db" stroke-width=".05" fill="#ced4db"/><use xlink:href="#F" transform="matrix(1,0,0,1,4570.277423813121,2537.1954345610284) translate(0 21.33333333333333)"/><use xlink:href="#G" transform="matrix(1,0,0,1,4570.277423813121,2537.1954345610284) translate(59.18518518518517 21.33333333333333)"/><path d="M4372 1948.95l178.44 2.3 69.7 4.28 52.8 5.52 46.38 6.84 44.24 8.42 44.86 10.54 48.05 13.43 54.47 17.72 66.04 24.63.64.25" stroke="#ced4db" stroke-width="5" stroke-linejoin="round" fill="none"/><path d="M4355.23 1948.74l14.32-4.45-.12 9.26z" stroke="#ced4db" stroke-width="5" fill="#ced4db"/><path d="M4981 2041.58l-.58 1.04-.47 1.2-.32 1.25-.16 1.23-2.82-1.12 1.83-4.6z" stroke="#ced4db" stroke-width=".05" fill="#ced4db"/><g><use xlink:href="#F" transform="matrix(1,0,0,1,4472.0124951509215,1915.0401772051835) translate(0 21.33333333333333)"/><use xlink:href="#G" transform="matrix(1,0,0,1,4472.0124951509215,1915.0401772051835) translate(59.18518518518517 21.33333333333333)"/></g><path d="M4791.82 2336.13l3.76-.88 3.96-1.1 3.83-1.25 3.72-1.38 3.6-1.52 3.56-1.67 3.5-1.83 3.45-2 3.45-2.18 3.45-2.4 3.46-2.63 3.5-2.92 3.6-3.23 3.7-3.6 3.83-4.1 4.03-4.7 4.34-5.47 4.76-6.56 5.43-8.2 6.7-11.1 10.74-19.65 28.57-54.25 7.5-12.44 6.27-9.44 5.6-7.73 5.22-6.57 4.95-5.73 4.78-5.1 4.66-4.55 4.6-4.14 4.55-3.76 4.54-3.45 4.57-3.2 4.64-2.93 4.7-2.7 4.8-2.53 4.94-2.32 5.1-2.14 5.27-1.96.2-.06" stroke="#ced4db" stroke-width="5" stroke-linejoin="round" fill="none"/><path d="M4775.18 2337.83l13.72-6.06.95 9.22z" stroke="#ced4db" stroke-width="5" fill="#ced4db"/><path d="M5000.77 2114.3l-2.4.82-1.6-4.7 2.47-.82z" stroke="#ced4db" stroke-width=".05" fill="#ced4db"/><g><use xlink:href="#F" transform="matrix(1,0,0,1,4828.435713263751,2313.0785384016435) translate(0 21.33333333333333)"/><use xlink:href="#G" transform="matrix(1,0,0,1,4828.435713263751,2313.0785384016435) translate(59.18518518518517 21.33333333333333)"/></g><path d="M4626 2224.9l.23 1.6 1.02 5.34 1.16 4.98 1.32 4.67 1.43 4.4 1.55 4.16 1.67 3.98 1.78 3.8 1.9 3.64 2.04 3.5 2.15 3.4 2.3 3.32 2.44 3.22 2.6 3.16 2.8 3.1 3 3.06 3.22 3.03 3.5 3 3.78 3 4.14 3.02 4.56 3 5.05 3.07 5.64 3.1 6.38 3.17 7.33 3.26 8.57 3.38 10.26 3.57 12.74 3.83 16.9 4.32 26.17 5.5 130.6 23.73 21.5 5.5 17.04 5.13 14.26 4.96 12.33 4.87 10.9 4.83 9.74 4.84 8.86 4.86 8.1 4.9 7.47 4.97 6.93 5.03 6.48 5.14 6.08 5.24 5.73 5.4 5.4 5.52 5.15 5.7 4.9 5.92 3 3.97" stroke="#ced4db" stroke-width="5" stroke-linejoin="round" fill="none"/><path d="M4624.75 2208.22l5.68 13.88-9.24.7z" stroke="#ced4db" stroke-width="5" fill="#ced4db"/><path d="M5061.63 2443.54l-4 2.9-1.53-2 3.94-2.98z" stroke="#ced4db" stroke-width=".05" fill="#ced4db"/><g><use xlink:href="#F" transform="matrix(1,0,0,1,4680.111382258861,2335.1357226487503) translate(0 21.33333333333333)"/><use xlink:href="#G" transform="matrix(1,0,0,1,4680.111382258861,2335.1357226487503) translate(59.18518518518517 21.33333333333333)"/></g><path d="M4791.94 2340.1l1.46.16 7.88 1.16 7.6 1.45 7.4 1.74 7.25 2.03 7.2 2.34 7.25 2.7 7.4 3.1 7.64 3.6 8.13 4.26 8.9 5.15 10.33 6.56 13.47 9.4 74.4 55.67 13.3 8.46 12.1 7 11.54 6.03 11.33 5.33 8.62 3.63" stroke="#ced4db" stroke-width="5" stroke-linejoin="round" fill="none"/><path d="M4775.2 2339.13l14.52-3.8-.54 9.26z" stroke="#ced4db" stroke-width="5" fill="#ced4db"/><path d="M5028.5 2468.58l-.57 1.05-.48 1.2-.32 1.24-.15 1.24-2.85-1.2 1.92-4.55z" stroke="#ced4db" stroke-width=".05" fill="#ced4db"/><g><use xlink:href="#F" transform="matrix(1,0,0,1,4800.08314194249,2403.4132142296844) translate(0 21.33333333333333)"/><use xlink:href="#G" transform="matrix(1,0,0,1,4800.08314194249,2403.4132142296844) translate(59.18518518518517 21.33333333333333)"/></g><path d="M3729.2 2543.4a8.77 8.77 0 0 1 9.9 0l134.24 91.87a4.1 4.1 0 0 1 0 6.78l-134.25 91.87a8.77 8.77 0 0 1-9.9 0l-134.25-91.88a4.1 4.1 0 0 1 0-6.77z" stroke="#3a414a" stroke-width="4" fill="#cfe4ff"/><g><use xlink:href="#c" transform="matrix(1,0,0,1,3595,2545) translate(76.19635802469136 84.97309027777777)"/><use xlink:href="#H" transform="matrix(1,0,0,1,3595,2545) translate(94.71487654320987 84.97309027777777)"/><use xlink:href="#I" transform="matrix(1,0,0,1,3595,2545) translate(182.12228395061726 84.97309027777777)"/><use xlink:href="#m" transform="matrix(1,0,0,1,3595,2545) translate(86.62845679012344 111.63975694444446)"/></g><path d="M4070.9 2643.4a8.77 8.77 0 0 1 9.9 0l134.25 91.87a4.1 4.1 0 0 1 0 6.78l-134.24 91.87a8.77 8.77 0 0 1-9.9 0l-134.24-91.88a4.1 4.1 0 0 1 0-6.77z" stroke="#3a414a" stroke-width="4" fill="#cfe4ff"/><g><use xlink:href="#c" transform="matrix(1,0,0,1,3936.7137648820644,2645) translate(76.19635802469136 84.97309027777777)"/><use xlink:href="#H" transform="matrix(1,0,0,1,3936.7137648820644,2645) translate(94.71487654320987 84.97309027777777)"/><use xlink:href="#I" transform="matrix(1,0,0,1,3936.7137648820644,2645) translate(182.12228395061726 84.97309027777777)"/><use xlink:href="#J" transform="matrix(1,0,0,1,3936.7137648820644,2645) translate(92.86302469135802 111.63975694444446)"/></g><path d="M4379.2 2503.4a8.77 8.77 0 0 1 9.9 0l134.23 91.87a4.1 4.1 0 0 1 0 6.78l-134.24 91.87a8.77 8.77 0 0 1-9.9 0l-134.25-91.88a4.1 4.1 0 0 1 0-6.77z" stroke="#3a414a" stroke-width="4" fill="#cfe4ff"/><g><use xlink:href="#c" transform="matrix(1,0,0,1,4245,2505) translate(39.80746913580247 98.55902777777777)"/><use xlink:href="#H" transform="matrix(1,0,0,1,4245,2505) translate(58.32598765432099 98.55902777777777)"/><use xlink:href="#K" transform="matrix(1,0,0,1,4245,2505) translate(145.7333950617284 98.55902777777777)"/><use xlink:href="#L" transform="matrix(1,0,0,1,4245,2505) translate(171.5975925925926 98.55902777777777)"/></g><path d="M4619.2 2243.4a8.77 8.77 0 0 1 9.9 0l134.23 91.87a4.1 4.1 0 0 1 0 6.78l-134.24 91.87a8.77 8.77 0 0 1-9.9 0l-134.25-91.88a4.1 4.1 0 0 1 0-6.77z" stroke="#3a414a" stroke-width="4" fill="#cfe4ff"/><g><use xlink:href="#c" transform="matrix(1,0,0,1,4485,2245) translate(28.17166666666666 98.55902777777777)"/><use xlink:href="#H" transform="matrix(1,0,0,1,4485,2245) translate(46.69018518518518 98.55902777777777)"/><use xlink:href="#K" transform="matrix(1,0,0,1,4485,2245) translate(134.09759259259258 98.55902777777777)"/><use xlink:href="#M" transform="matrix(1,0,0,1,4485,2245) translate(159.96179012345678 98.55902777777777)"/></g><path d="M4619.2 2006.08a8.77 8.77 0 0 1 9.9 0l134.23 91.88a4.1 4.1 0 0 1 0 6.77l-134.24 91.88a8.77 8.77 0 0 1-9.9 0l-134.25-91.87a4.1 4.1 0 0 1 0-6.78z" stroke="#3a414a" stroke-width="4" fill="#cfe4ff"/><g><use xlink:href="#c" transform="matrix(1,0,0,1,4485,2007.6879360325095) translate(76.19635802469136 84.97309027777777)"/><use xlink:href="#H" transform="matrix(1,0,0,1,4485,2007.6879360325095) translate(94.71487654320987 84.97309027777777)"/><use xlink:href="#I" transform="matrix(1,0,0,1,4485,2007.6879360325095) translate(182.12228395061726 84.97309027777777)"/><use xlink:href="#N" transform="matrix(1,0,0,1,4485,2007.6879360325095) translate(92.27660493827162 111.63975694444446)"/></g><path d="M4199.2 1853.37a8.77 8.77 0 0 1 9.9 0l134.23 91.88a4.1 4.1 0 0 1 0 6.77l-134.24 91.88a8.77 8.77 0 0 1-9.9 0l-134.25-91.88a4.1 4.1 0 0 1 0-6.77z" stroke="#3a414a" stroke-width="4" fill="#cfe4ff"/><g><use xlink:href="#c" transform="matrix(1,0,0,1,4065,1854.9794503379903) translate(76.19635802469136 84.97309027777777)"/><use xlink:href="#H" transform="matrix(1,0,0,1,4065,1854.9794503379903) translate(94.71487654320987 84.97309027777777)"/><use xlink:href="#I" transform="matrix(1,0,0,1,4065,1854.9794503379903) translate(182.12228395061726 84.97309027777777)"/><use xlink:href="#O" transform="matrix(1,0,0,1,4065,1854.9794503379903) translate(82.9556172839506 111.63975694444446)"/></g><path d="M4200 1588.54a6 6 0 0 1 6-6h628a6 6 0 0 1 6 6v211.33a6 6 0 0 1-6 6h-628a6 6 0 0 1-6-6z" stroke="#000" stroke-opacity="0" fill="#fff" fill-opacity="0"/><g><use xlink:href="#P" transform="matrix(1,0,0,1,4205,1587.5398083764285) translate(97.41975308641983 28.862413194444436)"/><use xlink:href="#Q" transform="matrix(1,0,0,1,4205,1587.5398083764285) translate(154.50617283950623 28.862413194444436)"/><use xlink:href="#R" transform="matrix(1,0,0,1,4205,1587.5398083764285) translate(396.58024691358025 28.862413194444436)"/><use xlink:href="#S" transform="matrix(1,0,0,1,4205,1587.5398083764285) translate(439.8395061728395 28.862413194444436)"/><use xlink:href="#T" transform="matrix(1,0,0,1,4205,1587.5398083764285) translate(13.370370370370551 71.52907986111109)"/><use xlink:href="#U" transform="matrix(1,0,0,1,4205,1587.5398083764285) translate(216.4320987654322 71.52907986111109)"/><use xlink:href="#V" transform="matrix(1,0,0,1,4205,1587.5398083764285) translate(364.38271604938274 71.52907986111109)"/><use xlink:href="#W" transform="matrix(1,0,0,1,4205,1587.5398083764285) translate(405.7654320987654 71.52907986111109)"/><use xlink:href="#X" transform="matrix(1,0,0,1,4205,1587.5398083764285) translate(468.7777777777777 71.52907986111109)"/><use xlink:href="#R" transform="matrix(1,0,0,1,4205,1587.5398083764285) translate(265.7654320987655 114.19574652777774)"/><use xlink:href="#Y" transform="matrix(1,0,0,1,4205,1587.5398083764285) translate(309.0246913580247 114.19574652777774)"/><use xlink:href="#Z" transform="matrix(1,0,0,1,4205,1587.5398083764285) translate(196.13580246913585 156.8624131944444)"/><use xlink:href="#aa" transform="matrix(1,0,0,1,4205,1587.5398083764285) translate(332.2345679012345 156.8624131944444)"/><use xlink:href="#ab" transform="matrix(1,0,0,1,4205,1587.5398083764285) translate(362.85185185185185 156.8624131944444)"/><use xlink:href="#ac" transform="matrix(1,0,0,1,4205,1587.5398083764285) translate(107.39506172839515 199.52907986111106)"/><use xlink:href="#aa" transform="matrix(1,0,0,1,4205,1587.5398083764285) translate(239.54320987654324 199.52907986111106)"/><use xlink:href="#ad" transform="matrix(1,0,0,1,4205,1587.5398083764285) translate(270.1604938271605 199.52907986111106)"/><use xlink:href="#ae" transform="matrix(1,0,0,1,4205,1587.5398083764285) translate(331.2962962962963 199.52907986111106)"/></g><path d="M3938.5 2174.57l-1.5-1.13-3.4-2.3-3.76-2.35-4.35-2.43-5.35-2.66-7.7-3.4-29.88-12.22-5.2-2.6-4.22-2.35-3.64-2.25-3.24-2.22-2.98-2.24-2.77-2.3-2.6-2.36-2.5-2.48-2.4-2.6-2.32-2.78-2.27-2.97-1-1.47" stroke="#3a414a" stroke-width="5" stroke-linejoin="round" fill="none"/><path d="M3950.2 2186.45l-13.32-6.9 6.6-6.5z" stroke="#3a414a" stroke-width="5" fill="#3a414a"/><path d="M3849.45 2118.18l-4.13 2.72-1.63-2.48 1.12-.43 1.16-.6 1.08-.7.92-.75z" stroke="#3a414a" stroke-width=".05" fill="#3a414a"/><g><use xlink:href="#p" transform="matrix(1,0,0,1,3889.4746862316324,2117.974770705771) translate(0 21.33333333333333)"/></g><defs><path fill="#3a414a" d="M133-34C117-15 103 5 69 4 32 3 11-16 11-54c-1-60 55-63 116-61 1-26-3-47-28-47-18 1-26 9-28 27l-52-2c7-38 36-58 82-57s74 22 75 68l1 82c-1 14 12 18 25 15v27c-30 8-71 5-69-32zm-48 3c29 0 43-24 42-57-32 0-66-3-65 30 0 17 8 27 23 27" id="af"/><path fill="#3a414a" d="M135-194c87-1 58 113 63 194h-50c-7-57 23-157-34-157-59 0-34 97-39 157H25l-1-190h47c2 12-1 28 3 38 12-26 28-41 61-42" id="ag"/><g id="a"><use transform="matrix(0.06172839506172839,0,0,0.06172839506172839,0,0)" xlink:href="#af"/><use transform="matrix(0.06172839506172839,0,0,0.06172839506172839,12.345679012345679,0)" xlink:href="#ag"/></g><path fill="#3a414a" d="M24 0v-248h52V0H24" id="ah"/><path fill="#3a414a" d="M137-138c1-29-70-34-71-4 15 46 118 7 119 86 1 83-164 76-172 9l43-7c4 19 20 25 44 25 33 8 57-30 24-41C81-84 22-81 20-136c-2-80 154-74 161-7" id="ai"/><path fill="#3a414a" d="M185-48c-13 30-37 53-82 52C43 2 14-33 14-96s30-98 90-98c62 0 83 45 84 108H66c0 31 8 55 39 56 18 0 30-7 34-22zm-45-69c5-46-57-63-70-21-2 6-4 13-4 21h74" id="aj"/><path fill="#3a414a" d="M135-150c-39-12-60 13-60 57V0H25l-1-190h47c2 13-1 29 3 40 6-28 27-53 61-41v41" id="ak"/><path fill="#3a414a" d="M115-3C79 11 28 4 28-45v-112H4v-33h27l15-45h31v45h36v33H77v99c-1 23 16 31 38 25v30" id="al"/><path fill="#3a414a" d="M25-224v-37h50v37H25zM25 0v-190h50V0H25" id="am"/><path fill="#3a414a" d="M110-194c64 0 96 36 96 99 0 64-35 99-97 99-61 0-95-36-95-99 0-62 34-99 96-99zm-1 164c35 0 45-28 45-65 0-40-10-65-43-65-34 0-45 26-45 65 0 36 10 65 43 65" id="an"/><g id="b"><use transform="matrix(0.06172839506172839,0,0,0.06172839506172839,0,0)" xlink:href="#ah"/><use transform="matrix(0.06172839506172839,0,0,0.06172839506172839,6.172839506172839,0)" xlink:href="#ag"/><use transform="matrix(0.06172839506172839,0,0,0.06172839506172839,19.691358024691358,0)" xlink:href="#ai"/><use transform="matrix(0.06172839506172839,0,0,0.06172839506172839,32.03703703703704,0)" xlink:href="#aj"/><use transform="matrix(0.06172839506172839,0,0,0.06172839506172839,44.382716049382715,0)" xlink:href="#ak"/><use transform="matrix(0.06172839506172839,0,0,0.06172839506172839,53.02469135802469,0)" xlink:href="#al"/><use transform="matrix(0.06172839506172839,0,0,0.06172839506172839,60.37037037037037,0)" xlink:href="#am"/><use transform="matrix(0.06172839506172839,0,0,0.06172839506172839,66.5432098765432,0)" xlink:href="#an"/><use transform="matrix(0.06172839506172839,0,0,0.06172839506172839,80.06172839506172,0)" xlink:href="#ag"/></g><use transform="matrix(0.06172839506172839,0,0,0.06172839506172839,0,0)" xlink:href="#af" id="c"/><path fill="#3a414a" d="M24-248c120-7 223 5 221 122C244-46 201 0 124 0H24v-248zM76-40c74 7 117-18 117-86 0-67-45-88-117-82v168" id="ao"/><path fill="#3a414a" d="M25 0v-261h50V0H25" id="ap"/><g id="d"><use transform="matrix(0.06172839506172839,0,0,0.06172839506172839,0,0)" xlink:href="#ao"/><use transform="matrix(0.06172839506172839,0,0,0.06172839506172839,15.987654320987653,0)" xlink:href="#aj"/><use transform="matrix(0.06172839506172839,0,0,0.06172839506172839,28.333333333333332,0)" xlink:href="#ap"/><use transform="matrix(0.06172839506172839,0,0,0.06172839506172839,34.50617283950617,0)" xlink:href="#aj"/><use transform="matrix(0.06172839506172839,0,0,0.06172839506172839,46.85185185185185,0)" xlink:href="#al"/><use transform="matrix(0.06172839506172839,0,0,0.06172839506172839,54.197530864197525,0)" xlink:href="#am"/><use transform="matrix(0.06172839506172839,0,0,0.06172839506172839,60.37037037037037,0)" xlink:href="#an"/><use transform="matrix(0.06172839506172839,0,0,0.06172839506172839,73.88888888888889,0)" xlink:href="#ag"/></g><path fill="#3a414a" d="M169-182c-1-43-94-46-97-3 18 66 151 10 154 114 3 95-165 93-204 36-6-8-10-19-12-30l50-8c3 46 112 56 116 5-17-69-150-10-154-114-4-87 153-88 188-35 5 8 8 18 10 28" id="aq"/><path fill="#3a414a" d="M85 4C-2 5 27-109 22-190h50c7 57-23 150 33 157 60-5 35-97 40-157h50l1 190h-47c-2-12 1-28-3-38-12 25-28 42-61 42" id="ar"/><path fill="#3a414a" d="M135-194c52 0 70 43 70 98 0 56-19 99-73 100-30 1-46-15-58-35L72 0H24l1-261h50v104c11-23 29-37 60-37zM114-30c31 0 40-27 40-66 0-37-7-63-39-63s-41 28-41 65c0 36 8 64 40 64" id="as"/><g id="e"><use transform="matrix(0.06172839506172839,0,0,0.06172839506172839,0,0)" xlink:href="#aq"/><use transform="matrix(0.06172839506172839,0,0,0.06172839506172839,14.814814814814813,0)" xlink:href="#ar"/><use transform="matrix(0.06172839506172839,0,0,0.06172839506172839,28.33333333333333,0)" xlink:href="#as"/><use transform="matrix(0.06172839506172839,0,0,0.06172839506172839,41.85185185185185,0)" xlink:href="#ai"/><use transform="matrix(0.06172839506172839,0,0,0.06172839506172839,54.197530864197525,0)" xlink:href="#al"/><use transform="matrix(0.06172839506172839,0,0,0.06172839506172839,61.5432098765432,0)" xlink:href="#am"/><use transform="matrix(0.06172839506172839,0,0,0.06172839506172839,67.71604938271604,0)" xlink:href="#al"/><use transform="matrix(0.06172839506172839,0,0,0.06172839506172839,75.06172839506172,0)" xlink:href="#ar"/><use transform="matrix(0.06172839506172839,0,0,0.06172839506172839,88.58024691358024,0)" xlink:href="#al"/><use transform="matrix(0.06172839506172839,0,0,0.06172839506172839,95.92592592592592,0)" xlink:href="#am"/><use transform="matrix(0.06172839506172839,0,0,0.06172839506172839,102.09876543209876,0)" xlink:href="#an"/><use transform="matrix(0.06172839506172839,0,0,0.06172839506172839,115.61728395061728,0)" xlink:href="#ag"/></g><g id="f"><use transform="matrix(0.06172839506172839,0,0,0.06172839506172839,0,0)" xlink:href="#ao"/><use transform="matrix(0.06172839506172839,0,0,0.06172839506172839,15.987654320987653,0)" xlink:href="#aj"/><use transform="matrix(0.06172839506172839,0,0,0.06172839506172839,28.333333333333332,0)" xlink:href="#ap"/><use transform="matrix(0.06172839506172839,0,0,0.06172839506172839,34.50617283950617,0)" xlink:href="#am"/><use transform="matrix(0.06172839506172839,0,0,0.06172839506172839,40.67901234567901,0)" xlink:href="#ag"/><use transform="matrix(0.06172839506172839,0,0,0.06172839506172839,54.19753086419753,0)" xlink:href="#ai"/></g><path fill="#3a414a" d="M4 7l51-268h42L46 7H4" id="at"/><use transform="matrix(0.06172839506172839,0,0,0.06172839506172839,0,0)" xlink:href="#at" id="g"/><path fill="#3a414a" d="M88-194c31-1 46 15 58 34l-1-101h50l1 261h-48c-2-10 0-23-3-31C134-8 116 4 84 4 32 4 16-41 15-95c0-56 19-97 73-99zm17 164c33 0 40-30 41-66 1-37-9-64-41-64s-38 30-39 65c0 43 13 65 39 65" id="au"/><g id="h"><use transform="matrix(0.06172839506172839,0,0,0.06172839506172839,0,0)" xlink:href="#ah"/><use transform="matrix(0.06172839506172839,0,0,0.06172839506172839,6.172839506172839,0)" xlink:href="#ag"/><use transform="matrix(0.06172839506172839,0,0,0.06172839506172839,19.691358024691358,0)" xlink:href="#au"/><use transform="matrix(0.06172839506172839,0,0,0.06172839506172839,33.20987654320987,0)" xlink:href="#aj"/><use transform="matrix(0.06172839506172839,0,0,0.06172839506172839,45.55555555555555,0)" xlink:href="#ap"/></g><path fill="#3a414a" d="M67-93c0 74 22 123 53 168H70C40 30 18-18 18-93s22-123 52-168h50c-32 44-53 94-53 168" id="av"/><path fill="#3a414a" d="M190-63c-7 42-38 67-86 67-59 0-84-38-90-98-12-110 154-137 174-36l-49 2c-2-19-15-32-35-32-30 0-35 28-38 64-6 74 65 87 74 30" id="aw"/><path fill="#3a414a" d="M102-93c0 74-22 123-52 168H0C30 29 54-18 53-93c0-74-22-123-53-168h50c30 45 52 94 52 168" id="ax"/><g id="i"><use transform="matrix(0.06172839506172839,0,0,0.06172839506172839,0,0)" xlink:href="#av"/><use transform="matrix(0.06172839506172839,0,0,0.06172839506172839,7.345679012345679,0)" xlink:href="#au"/><use transform="matrix(0.06172839506172839,0,0,0.06172839506172839,20.864197530864196,0)" xlink:href="#am"/><use transform="matrix(0.06172839506172839,0,0,0.06172839506172839,27.037037037037035,0)" xlink:href="#ak"/><use transform="matrix(0.06172839506172839,0,0,0.06172839506172839,35.67901234567901,0)" xlink:href="#aj"/><use transform="matrix(0.06172839506172839,0,0,0.06172839506172839,48.02469135802469,0)" xlink:href="#aw"/><use transform="matrix(0.06172839506172839,0,0,0.06172839506172839,60.37037037037037,0)" xlink:href="#al"/><use transform="matrix(0.06172839506172839,0,0,0.06172839506172839,67.71604938271605,0)" xlink:href="#ax"/></g><path fill="#3a414a" d="M136-208V0H84v-208H4v-40h212v40h-80" id="ay"/><path fill="#3a414a" d="M220-157c-53 9-28 100-34 157h-49v-107c1-27-5-49-29-50C55-147 81-57 75 0H25l-1-190h47c2 12-1 28 3 38 10-53 101-56 108 0 13-22 24-43 59-42 82 1 51 116 57 194h-49v-107c-1-25-5-48-29-50" id="az"/><g id="j"><use transform="matrix(0.06172839506172839,0,0,0.06172839506172839,0,0)" xlink:href="#ay"/><use transform="matrix(0.06172839506172839,0,0,0.06172839506172839,11.851851851851851,0)" xlink:href="#af"/><use transform="matrix(0.06172839506172839,0,0,0.06172839506172839,24.19753086419753,0)" xlink:href="#ag"/><use transform="matrix(0.06172839506172839,0,0,0.06172839506172839,37.71604938271605,0)" xlink:href="#au"/><use transform="matrix(0.06172839506172839,0,0,0.06172839506172839,51.23456790123457,0)" xlink:href="#aj"/><use transform="matrix(0.06172839506172839,0,0,0.06172839506172839,63.58024691358025,0)" xlink:href="#az"/></g><path fill="#3a414a" d="M135-194c53 0 70 44 70 98 0 56-19 98-73 100-31 1-45-17-59-34 3 33 2 69 2 105H25l-1-265h48c2 10 0 23 3 31 11-24 29-35 60-35zM114-30c33 0 39-31 40-66 0-38-9-64-40-64-56 0-55 130 0 130" id="aA"/><g id="k"><use transform="matrix(0.06172839506172839,0,0,0.06172839506172839,0,0)" xlink:href="#ao"/><use transform="matrix(0.06172839506172839,0,0,0.06172839506172839,15.987654320987653,0)" xlink:href="#ar"/><use transform="matrix(0.06172839506172839,0,0,0.06172839506172839,29.50617283950617,0)" xlink:href="#aA"/><use transform="matrix(0.06172839506172839,0,0,0.06172839506172839,43.02469135802469,0)" xlink:href="#ap"/><use transform="matrix(0.06172839506172839,0,0,0.06172839506172839,49.19753086419753,0)" xlink:href="#am"/><use transform="matrix(0.06172839506172839,0,0,0.06172839506172839,55.370370370370374,0)" xlink:href="#aw"/><use transform="matrix(0.06172839506172839,0,0,0.06172839506172839,67.71604938271605,0)" xlink:href="#af"/><use transform="matrix(0.06172839506172839,0,0,0.06172839506172839,80.06172839506173,0)" xlink:href="#al"/><use transform="matrix(0.06172839506172839,0,0,0.06172839506172839,87.40740740740742,0)" xlink:href="#am"/><use transform="matrix(0.06172839506172839,0,0,0.06172839506172839,93.58024691358025,0)" xlink:href="#an"/><use transform="matrix(0.06172839506172839,0,0,0.06172839506172839,107.09876543209877,0)" xlink:href="#ag"/></g><path fill="#3a414a" d="M240-174c0 40-23 61-54 70L253 0h-59l-57-94H76V0H24v-248c93 4 217-23 216 74zM76-134c48-2 112 12 112-38 0-48-66-32-112-35v73" id="aB"/><g id="l"><use transform="matrix(0.06172839506172839,0,0,0.06172839506172839,0,0)" xlink:href="#aB"/><use transform="matrix(0.06172839506172839,0,0,0.06172839506172839,15.987654320987653,0)" xlink:href="#aj"/><use transform="matrix(0.06172839506172839,0,0,0.06172839506172839,28.333333333333332,0)" xlink:href="#aA"/><use transform="matrix(0.06172839506172839,0,0,0.06172839506172839,41.85185185185185,0)" xlink:href="#aj"/><use transform="matrix(0.06172839506172839,0,0,0.06172839506172839,54.197530864197525,0)" xlink:href="#af"/><use transform="matrix(0.06172839506172839,0,0,0.06172839506172839,66.5432098765432,0)" xlink:href="#al"/><use transform="matrix(0.06172839506172839,0,0,0.06172839506172839,73.88888888888889,0)" xlink:href="#aj"/><use transform="matrix(0.06172839506172839,0,0,0.06172839506172839,86.23456790123457,0)" xlink:href="#au"/></g><path fill="#3a414a" d="M84 4C32 4 15-41 15-95c0-55 18-99 73-99 29 0 47 12 58 34l2-30h48l-1 265h-49V-32C136-9 114 4 84 4zm21-34c32 0 41-29 41-66 0-36-9-64-40-64-33 0-39 30-40 65 0 43 13 65 39 65" id="aC"/><g id="m"><use transform="matrix(0.06172839506172839,0,0,0.06172839506172839,0,0)" xlink:href="#aq"/><use transform="matrix(0.06172839506172839,0,0,0.06172839506172839,14.814814814814813,0)" xlink:href="#aj"/><use transform="matrix(0.06172839506172839,0,0,0.06172839506172839,27.160493827160494,0)" xlink:href="#aC"/><use transform="matrix(0.06172839506172839,0,0,0.06172839506172839,40.67901234567901,0)" xlink:href="#ar"/><use transform="matrix(0.06172839506172839,0,0,0.06172839506172839,54.19753086419753,0)" xlink:href="#aj"/><use transform="matrix(0.06172839506172839,0,0,0.06172839506172839,66.54320987654322,0)" xlink:href="#ag"/><use transform="matrix(0.06172839506172839,0,0,0.06172839506172839,80.06172839506173,0)" xlink:href="#aw"/><use transform="matrix(0.06172839506172839,0,0,0.06172839506172839,92.40740740740742,0)" xlink:href="#aj"/></g><g id="n"><use transform="matrix(0.06172839506172839,0,0,0.06172839506172839,0,0)" xlink:href="#al"/><use transform="matrix(0.06172839506172839,0,0,0.06172839506172839,7.345679012345679,0)" xlink:href="#ak"/><use transform="matrix(0.06172839506172839,0,0,0.06172839506172839,15.987654320987653,0)" xlink:href="#af"/><use transform="matrix(0.06172839506172839,0,0,0.06172839506172839,28.333333333333332,0)" xlink:href="#ag"/><use transform="matrix(0.06172839506172839,0,0,0.06172839506172839,41.85185185185185,0)" xlink:href="#ai"/><use transform="matrix(0.06172839506172839,0,0,0.06172839506172839,54.197530864197525,0)" xlink:href="#aw"/><use transform="matrix(0.06172839506172839,0,0,0.06172839506172839,66.5432098765432,0)" xlink:href="#ak"/><use transform="matrix(0.06172839506172839,0,0,0.06172839506172839,75.18518518518518,0)" xlink:href="#am"/><use transform="matrix(0.06172839506172839,0,0,0.06172839506172839,81.35802469135801,0)" xlink:href="#aA"/><use transform="matrix(0.06172839506172839,0,0,0.06172839506172839,94.87654320987653,0)" xlink:href="#al"/></g><path fill="#3a414a" d="M199 0l-22-63H83L61 0H9l90-248h61L250 0h-51zm-33-102l-36-108c-10 38-24 72-36 108h72" id="aD"/><g id="o"><use transform="matrix(0.06172839506172839,0,0,0.06172839506172839,0,0)" xlink:href="#aD"/><use transform="matrix(0.06172839506172839,0,0,0.06172839506172839,15.987654320987653,0)" xlink:href="#as"/><use transform="matrix(0.06172839506172839,0,0,0.06172839506172839,29.50617283950617,0)" xlink:href="#ap"/><use transform="matrix(0.06172839506172839,0,0,0.06172839506172839,35.67901234567901,0)" xlink:href="#af"/><use transform="matrix(0.06172839506172839,0,0,0.06172839506172839,48.02469135802469,0)" xlink:href="#al"/><use transform="matrix(0.06172839506172839,0,0,0.06172839506172839,55.37037037037037,0)" xlink:href="#am"/><use transform="matrix(0.06172839506172839,0,0,0.06172839506172839,61.54320987654321,0)" xlink:href="#an"/><use transform="matrix(0.06172839506172839,0,0,0.06172839506172839,75.06172839506172,0)" xlink:href="#ag"/></g><path fill="#333" d="M25-224v-37h50v37H25zM25 0v-190h50V0H25" id="aE"/><path fill="#333" d="M137-138c1-29-70-34-71-4 15 46 118 7 119 86 1 83-164 76-172 9l43-7c4 19 20 25 44 25 33 8 57-30 24-41C81-84 22-81 20-136c-2-80 154-74 161-7" id="aF"/><g id="p"><use transform="matrix(0.07407407407407406,0,0,0.07407407407407406,0,0)" xlink:href="#aE"/><use transform="matrix(0.07407407407407406,0,0,0.07407407407407406,7.407407407407406,0)" xlink:href="#aF"/></g><use transform="matrix(0.07407407407407407,0,0,0.07407407407407407,0,0)" xlink:href="#af" id="q"/><g id="r"><use transform="matrix(0.07407407407407407,0,0,0.07407407407407407,0,0)" xlink:href="#aq"/><use transform="matrix(0.07407407407407407,0,0,0.07407407407407407,17.77777777777778,0)" xlink:href="#az"/><use transform="matrix(0.07407407407407407,0,0,0.07407407407407407,41.48148148148148,0)" xlink:href="#af"/><use transform="matrix(0.07407407407407407,0,0,0.07407407407407407,56.29629629629629,0)" xlink:href="#ap"/><use transform="matrix(0.07407407407407407,0,0,0.07407407407407407,63.703703703703695,0)" xlink:href="#ap"/></g><g id="s"><use transform="matrix(0.07407407407407407,0,0,0.07407407407407407,0,0)" xlink:href="#aq"/><use transform="matrix(0.07407407407407407,0,0,0.07407407407407407,17.77777777777778,0)" xlink:href="#al"/><use transform="matrix(0.07407407407407407,0,0,0.07407407407407407,26.592592592592595,0)" xlink:href="#ak"/><use transform="matrix(0.07407407407407407,0,0,0.07407407407407407,36.96296296296296,0)" xlink:href="#ar"/><use transform="matrix(0.07407407407407407,0,0,0.07407407407407407,53.18518518518518,0)" xlink:href="#aw"/><use transform="matrix(0.07407407407407407,0,0,0.07407407407407407,68,0)" xlink:href="#al"/><use transform="matrix(0.07407407407407407,0,0,0.07407407407407407,76.81481481481481,0)" xlink:href="#ar"/><use transform="matrix(0.07407407407407407,0,0,0.07407407407407407,93.03703703703704,0)" xlink:href="#ak"/><use transform="matrix(0.07407407407407407,0,0,0.07407407407407407,103.4074074074074,0)" xlink:href="#af"/><use transform="matrix(0.07407407407407407,0,0,0.07407407407407407,118.22222222222221,0)" xlink:href="#ap"/></g><path fill="#3a414a" d="M147 0H94L2-248h55l64 206c17-72 42-137 63-206h54" id="aG"/><g id="t"><use transform="matrix(0.07407407407407407,0,0,0.07407407407407407,0,0)" xlink:href="#aG"/><use transform="matrix(0.07407407407407407,0,0,0.07407407407407407,16.296296296296298,0)" xlink:href="#af"/><use transform="matrix(0.07407407407407407,0,0,0.07407407407407407,31.11111111111111,0)" xlink:href="#ak"/><use transform="matrix(0.07407407407407407,0,0,0.07407407407407407,41.48148148148148,0)" xlink:href="#am"/><use transform="matrix(0.07407407407407407,0,0,0.07407407407407407,48.888888888888886,0)" xlink:href="#af"/><use transform="matrix(0.07407407407407407,0,0,0.07407407407407407,63.703703703703695,0)" xlink:href="#ag"/><use transform="matrix(0.07407407407407407,0,0,0.07407407407407407,79.92592592592592,0)" xlink:href="#al"/></g><path fill="#333" d="M230 0l2-204L168 0h-37L68-204 70 0H24v-248h70l56 185 57-185h69V0h-46" id="aH"/><path fill="#333" d="M133-34C117-15 103 5 69 4 32 3 11-16 11-54c-1-60 55-63 116-61 1-26-3-47-28-47-18 1-26 9-28 27l-52-2c7-38 36-58 82-57s74 22 75 68l1 82c-1 14 12 18 25 15v27c-30 8-71 5-69-32zm-48 3c29 0 43-24 42-57-32 0-66-3-65 30 0 17 8 27 23 27" id="aI"/><path fill="#333" d="M123 10C108 53 80 86 19 72V37c35 8 53-11 59-39L3-190h52l48 148c12-52 28-100 44-148h51" id="aJ"/><g id="u"><use transform="matrix(0.07407407407407406,0,0,0.07407407407407406,0,0)" xlink:href="#aH"/><use transform="matrix(0.07407407407407406,0,0,0.07407407407407406,22.14814814814814,0)" xlink:href="#aI"/><use transform="matrix(0.07407407407407406,0,0,0.07407407407407406,36.962962962962955,0)" xlink:href="#aJ"/></g><path fill="#333" d="M185-48c-13 30-37 53-82 52C43 2 14-33 14-96s30-98 90-98c62 0 83 45 84 108H66c0 31 8 55 39 56 18 0 30-7 34-22zm-45-69c5-46-57-63-70-21-2 6-4 13-4 21h74" id="aK"/><path fill="#333" d="M135-194c87-1 58 113 63 194h-50c-7-57 23-157-34-157-59 0-34 97-39 157H25l-1-190h47c2 12-1 28 3 38 12-26 28-41 61-42" id="aL"/><path fill="#333" d="M115-3C79 11 28 4 28-45v-112H4v-33h27l15-45h31v45h36v33H77v99c-1 23 16 31 38 25v30" id="aM"/><path fill="#333" d="M25 0v-261h50V0H25" id="aN"/><g id="v"><use transform="matrix(0.07407407407407406,0,0,0.07407407407407406,0,0)" xlink:href="#aK"/><use transform="matrix(0.07407407407407406,0,0,0.07407407407407406,14.814814814814811,0)" xlink:href="#aL"/><use transform="matrix(0.07407407407407406,0,0,0.07407407407407406,31.03703703703703,0)" xlink:href="#aM"/><use transform="matrix(0.07407407407407406,0,0,0.07407407407407406,39.85185185185185,0)" xlink:href="#aI"/><use transform="matrix(0.07407407407407406,0,0,0.07407407407407406,54.66666666666665,0)" xlink:href="#aE"/><use transform="matrix(0.07407407407407406,0,0,0.07407407407407406,62.07407407407406,0)" xlink:href="#aN"/></g><use transform="matrix(0.07407407407407407,0,0,0.07407407407407407,0,0)" xlink:href="#aD" id="w"/><path fill="#3a414a" d="M76-208v77h127v40H76V0H24v-248h183v40H76" id="aO"/><g id="x"><use transform="matrix(0.07407407407407407,0,0,0.07407407407407407,0,0)" xlink:href="#aO"/><use transform="matrix(0.07407407407407407,0,0,0.07407407407407407,16.22222222222222,0)" xlink:href="#ar"/><use transform="matrix(0.07407407407407407,0,0,0.07407407407407407,32.44444444444444,0)" xlink:href="#ai"/><use transform="matrix(0.07407407407407407,0,0,0.07407407407407407,47.259259259259245,0)" xlink:href="#am"/><use transform="matrix(0.07407407407407407,0,0,0.07407407407407407,54.66666666666666,0)" xlink:href="#an"/><use transform="matrix(0.07407407407407407,0,0,0.07407407407407407,70.88888888888889,0)" xlink:href="#ag"/></g><use transform="matrix(0.061728395061728385,0,0,0.061728395061728385,0,0)" xlink:href="#aD" id="y"/><path fill="#3a414a" d="M67-125c0 53 21 87 73 88 37 1 54-22 65-47l45 17C233-25 199 4 140 4 58 4 20-42 15-125 8-235 124-281 211-232c18 10 29 29 36 50l-46 12c-8-25-30-41-62-41-52 0-71 34-72 86" id="aP"/><path fill="#3a414a" d="M123 10C108 53 80 86 19 72V37c35 8 53-11 59-39L3-190h52l48 148c12-52 28-100 44-148h51" id="aQ"/><g id="z"><use transform="matrix(0.061728395061728385,0,0,0.061728395061728385,0,0)" xlink:href="#aP"/><use transform="matrix(0.061728395061728385,0,0,0.061728395061728385,15.987654320987652,0)" xlink:href="#an"/><use transform="matrix(0.061728395061728385,0,0,0.061728395061728385,29.506172839506167,0)" xlink:href="#aA"/><use transform="matrix(0.061728395061728385,0,0,0.061728395061728385,43.02469135802468,0)" xlink:href="#aQ"/></g><path fill="#3a414a" d="M175 0L67-191c6 58 2 128 3 191H24v-248h59L193-55c-6-58-2-129-3-193h46V0h-61" id="aR"/><g id="A"><use transform="matrix(0.061728395061728385,0,0,0.061728395061728385,0,0)" xlink:href="#aR"/><use transform="matrix(0.061728395061728385,0,0,0.061728395061728385,15.987654320987652,0)" xlink:href="#ar"/><use transform="matrix(0.061728395061728385,0,0,0.061728395061728385,29.506172839506167,0)" xlink:href="#az"/><use transform="matrix(0.061728395061728385,0,0,0.061728395061728385,49.25925925925925,0)" xlink:href="#as"/><use transform="matrix(0.061728395061728385,0,0,0.061728395061728385,62.77777777777777,0)" xlink:href="#aj"/><use transform="matrix(0.061728395061728385,0,0,0.061728395061728385,75.12345679012344,0)" xlink:href="#ak"/></g><g id="B"><use transform="matrix(0.061728395061728385,0,0,0.061728395061728385,0,0)" xlink:href="#aG"/><use transform="matrix(0.061728395061728385,0,0,0.061728395061728385,13.580246913580245,0)" xlink:href="#af"/><use transform="matrix(0.061728395061728385,0,0,0.061728395061728385,25.925925925925924,0)" xlink:href="#ak"/><use transform="matrix(0.061728395061728385,0,0,0.061728395061728385,34.5679012345679,0)" xlink:href="#am"/><use transform="matrix(0.061728395061728385,0,0,0.061728395061728385,40.74074074074073,0)" xlink:href="#af"/><use transform="matrix(0.061728395061728385,0,0,0.061728395061728385,53.08641975308641,0)" xlink:href="#ag"/><use transform="matrix(0.061728395061728385,0,0,0.061728395061728385,66.60493827160492,0)" xlink:href="#al"/></g><g id="C"><use transform="matrix(0.0493827160493827,0,0,0.0493827160493827,0,0)" xlink:href="#af"/><use transform="matrix(0.0493827160493827,0,0,0.0493827160493827,9.876543209876539,0)" xlink:href="#ag"/></g><path fill="#3a414a" d="M24 0v-248h195v40H76v63h132v40H76v65h150V0H24" id="aS"/><path fill="#3a414a" d="M144 0l-44-69L55 0H2l70-98-66-92h53l41 62 40-62h54l-67 91 71 99h-54" id="aT"/><g id="D"><use transform="matrix(0.0493827160493827,0,0,0.0493827160493827,0,0)" xlink:href="#aS"/><use transform="matrix(0.0493827160493827,0,0,0.0493827160493827,11.851851851851848,0)" xlink:href="#aT"/><use transform="matrix(0.0493827160493827,0,0,0.0493827160493827,21.728395061728385,0)" xlink:href="#aA"/><use transform="matrix(0.0493827160493827,0,0,0.0493827160493827,32.543209876543195,0)" xlink:href="#ak"/><use transform="matrix(0.0493827160493827,0,0,0.0493827160493827,39.45679012345677,0)" xlink:href="#aj"/><use transform="matrix(0.0493827160493827,0,0,0.0493827160493827,49.33333333333331,0)" xlink:href="#ai"/><use transform="matrix(0.0493827160493827,0,0,0.0493827160493827,59.209876543209845,0)" xlink:href="#ai"/><use transform="matrix(0.0493827160493827,0,0,0.0493827160493827,69.08641975308639,0)" xlink:href="#am"/><use transform="matrix(0.0493827160493827,0,0,0.0493827160493827,74.02469135802465,0)" xlink:href="#an"/><use transform="matrix(0.0493827160493827,0,0,0.0493827160493827,84.83950617283946,0)" xlink:href="#ag"/></g><g id="E"><use transform="matrix(0.0493827160493827,0,0,0.0493827160493827,0,0)" xlink:href="#aG"/><use transform="matrix(0.0493827160493827,0,0,0.0493827160493827,10.864197530864194,0)" xlink:href="#af"/><use transform="matrix(0.0493827160493827,0,0,0.0493827160493827,20.740740740740733,0)" xlink:href="#ak"/><use transform="matrix(0.0493827160493827,0,0,0.0493827160493827,27.654320987654312,0)" xlink:href="#am"/><use transform="matrix(0.0493827160493827,0,0,0.0493827160493827,32.59259259259258,0)" xlink:href="#af"/><use transform="matrix(0.0493827160493827,0,0,0.0493827160493827,42.46913580246912,0)" xlink:href="#ag"/><use transform="matrix(0.0493827160493827,0,0,0.0493827160493827,53.283950617283935,0)" xlink:href="#al"/></g><path fill="#979ea8" d="M230 0l2-204L168 0h-37L68-204 70 0H24v-248h70l56 185 57-185h69V0h-46" id="aU"/><path fill="#979ea8" d="M133-34C117-15 103 5 69 4 32 3 11-16 11-54c-1-60 55-63 116-61 1-26-3-47-28-47-18 1-26 9-28 27l-52-2c7-38 36-58 82-57s74 22 75 68l1 82c-1 14 12 18 25 15v27c-30 8-71 5-69-32zm-48 3c29 0 43-24 42-57-32 0-66-3-65 30 0 17 8 27 23 27" id="aV"/><path fill="#979ea8" d="M123 10C108 53 80 86 19 72V37c35 8 53-11 59-39L3-190h52l48 148c12-52 28-100 44-148h51" id="aW"/><g id="F"><use transform="matrix(0.07407407407407406,0,0,0.07407407407407406,0,0)" xlink:href="#aU"/><use transform="matrix(0.07407407407407406,0,0,0.07407407407407406,22.14814814814814,0)" xlink:href="#aV"/><use transform="matrix(0.07407407407407406,0,0,0.07407407407407406,36.962962962962955,0)" xlink:href="#aW"/></g><path fill="#979ea8" d="M185-48c-13 30-37 53-82 52C43 2 14-33 14-96s30-98 90-98c62 0 83 45 84 108H66c0 31 8 55 39 56 18 0 30-7 34-22zm-45-69c5-46-57-63-70-21-2 6-4 13-4 21h74" id="aX"/><path fill="#979ea8" d="M135-194c87-1 58 113 63 194h-50c-7-57 23-157-34-157-59 0-34 97-39 157H25l-1-190h47c2 12-1 28 3 38 12-26 28-41 61-42" id="aY"/><path fill="#979ea8" d="M115-3C79 11 28 4 28-45v-112H4v-33h27l15-45h31v45h36v33H77v99c-1 23 16 31 38 25v30" id="aZ"/><path fill="#979ea8" d="M25-224v-37h50v37H25zM25 0v-190h50V0H25" id="ba"/><path fill="#979ea8" d="M25 0v-261h50V0H25" id="bb"/><g id="G"><use transform="matrix(0.07407407407407406,0,0,0.07407407407407406,0,0)" xlink:href="#aX"/><use transform="matrix(0.07407407407407406,0,0,0.07407407407407406,14.814814814814811,0)" xlink:href="#aY"/><use transform="matrix(0.07407407407407406,0,0,0.07407407407407406,31.03703703703703,0)" xlink:href="#aZ"/><use transform="matrix(0.07407407407407406,0,0,0.07407407407407406,39.85185185185185,0)" xlink:href="#aV"/><use transform="matrix(0.07407407407407406,0,0,0.07407407407407406,54.66666666666665,0)" xlink:href="#ba"/><use transform="matrix(0.07407407407407406,0,0,0.07407407407407406,62.07407407407406,0)" xlink:href="#bb"/></g><path fill="#3a414a" d="M114-157C55-157 80-60 75 0H25v-261h50l-1 109c12-26 28-41 61-42 86-1 58 113 63 194h-50c-7-57 23-157-34-157" id="bc"/><path fill="#3a414a" d="M195-6C206 82 75 100 31 46c-4-6-6-13-8-21l49-6c3 16 16 24 34 25 40 0 42-37 40-79-11 22-30 35-61 35-53 0-70-43-70-97 0-56 18-96 73-97 30 0 46 14 59 34l2-30h47zm-90-29c32 0 41-27 41-63 0-35-9-62-40-62-32 0-39 29-40 63 0 36 9 62 39 62" id="bd"/><g id="H"><use transform="matrix(0.06172839506172839,0,0,0.06172839506172839,0,0)" xlink:href="#aP"/><use transform="matrix(0.06172839506172839,0,0,0.06172839506172839,15.987654320987653,0)" xlink:href="#bc"/><use transform="matrix(0.06172839506172839,0,0,0.06172839506172839,29.50617283950617,0)" xlink:href="#af"/><use transform="matrix(0.06172839506172839,0,0,0.06172839506172839,41.85185185185185,0)" xlink:href="#ag"/><use transform="matrix(0.06172839506172839,0,0,0.06172839506172839,55.37037037037037,0)" xlink:href="#bd"/><use transform="matrix(0.06172839506172839,0,0,0.06172839506172839,68.88888888888889,0)" xlink:href="#aj"/></g><g id="I"><use transform="matrix(0.06172839506172839,0,0,0.06172839506172839,0,0)" xlink:href="#am"/><use transform="matrix(0.06172839506172839,0,0,0.06172839506172839,6.172839506172839,0)" xlink:href="#ag"/></g><path fill="#3a414a" d="M24 0v-248h52v208h133V0H24" id="be"/><g id="J"><use transform="matrix(0.06172839506172839,0,0,0.06172839506172839,0,0)" xlink:href="#be"/><use transform="matrix(0.06172839506172839,0,0,0.06172839506172839,13.518518518518517,0)" xlink:href="#an"/><use transform="matrix(0.06172839506172839,0,0,0.06172839506172839,27.037037037037035,0)" xlink:href="#aw"/><use transform="matrix(0.06172839506172839,0,0,0.06172839506172839,39.382716049382715,0)" xlink:href="#af"/><use transform="matrix(0.06172839506172839,0,0,0.06172839506172839,51.72839506172839,0)" xlink:href="#al"/><use transform="matrix(0.06172839506172839,0,0,0.06172839506172839,59.07407407407407,0)" xlink:href="#am"/><use transform="matrix(0.06172839506172839,0,0,0.06172839506172839,65.24691358024691,0)" xlink:href="#an"/><use transform="matrix(0.06172839506172839,0,0,0.06172839506172839,78.76543209876543,0)" xlink:href="#ag"/></g><g id="K"><use transform="matrix(0.06172839506172839,0,0,0.06172839506172839,0,0)" xlink:href="#am"/><use transform="matrix(0.06172839506172839,0,0,0.06172839506172839,6.172839506172839,0)" xlink:href="#ag"/></g><g id="L"><use transform="matrix(0.06172839506172839,0,0,0.06172839506172839,0,0)" xlink:href="#aO"/><use transform="matrix(0.06172839506172839,0,0,0.06172839506172839,13.518518518518517,0)" xlink:href="#ak"/><use transform="matrix(0.06172839506172839,0,0,0.06172839506172839,22.160493827160494,0)" xlink:href="#af"/><use transform="matrix(0.06172839506172839,0,0,0.06172839506172839,34.50617283950617,0)" xlink:href="#az"/><use transform="matrix(0.06172839506172839,0,0,0.06172839506172839,54.25925925925925,0)" xlink:href="#aj"/></g><path fill="#3a414a" d="M140-251c80 0 125 45 125 126 0 70-33 111-92 124 6 28 34 38 68 31l-1 36C177 83 129 55 120 2 51-6 15-50 15-125c0-81 44-126 125-126zm-1 214c52 0 73-35 73-88 0-50-21-86-72-86-52 0-73 35-73 86s22 88 72 88" id="bf"/><g id="M"><use transform="matrix(0.06172839506172839,0,0,0.06172839506172839,0,0)" xlink:href="#bf"/><use transform="matrix(0.06172839506172839,0,0,0.06172839506172839,17.28395061728395,0)" xlink:href="#ar"/><use transform="matrix(0.06172839506172839,0,0,0.06172839506172839,30.80246913580247,0)" xlink:href="#af"/><use transform="matrix(0.06172839506172839,0,0,0.06172839506172839,43.148148148148145,0)" xlink:href="#ag"/><use transform="matrix(0.06172839506172839,0,0,0.06172839506172839,56.666666666666664,0)" xlink:href="#al"/><use transform="matrix(0.06172839506172839,0,0,0.06172839506172839,64.01234567901234,0)" xlink:href="#am"/><use transform="matrix(0.06172839506172839,0,0,0.06172839506172839,70.18518518518518,0)" xlink:href="#al"/><use transform="matrix(0.06172839506172839,0,0,0.06172839506172839,77.53086419753086,0)" xlink:href="#aQ"/></g><g id="N"><use transform="matrix(0.06172839506172839,0,0,0.06172839506172839,0,0)" xlink:href="#aO"/><use transform="matrix(0.06172839506172839,0,0,0.06172839506172839,13.518518518518517,0)" xlink:href="#ar"/><use transform="matrix(0.06172839506172839,0,0,0.06172839506172839,27.037037037037035,0)" xlink:href="#ag"/><use transform="matrix(0.06172839506172839,0,0,0.06172839506172839,40.55555555555555,0)" xlink:href="#aw"/><use transform="matrix(0.06172839506172839,0,0,0.06172839506172839,52.90123456790123,0)" xlink:href="#al"/><use transform="matrix(0.06172839506172839,0,0,0.06172839506172839,60.246913580246904,0)" xlink:href="#am"/><use transform="matrix(0.06172839506172839,0,0,0.06172839506172839,66.41975308641975,0)" xlink:href="#an"/><use transform="matrix(0.06172839506172839,0,0,0.06172839506172839,79.93827160493827,0)" xlink:href="#ag"/></g><g id="O"><use transform="matrix(0.06172839506172839,0,0,0.06172839506172839,0,0)" xlink:href="#aO"/><use transform="matrix(0.06172839506172839,0,0,0.06172839506172839,13.518518518518517,0)" xlink:href="#ak"/><use transform="matrix(0.06172839506172839,0,0,0.06172839506172839,22.160493827160494,0)" xlink:href="#aj"/><use transform="matrix(0.06172839506172839,0,0,0.06172839506172839,34.50617283950617,0)" xlink:href="#aC"/><use transform="matrix(0.06172839506172839,0,0,0.06172839506172839,48.02469135802469,0)" xlink:href="#ar"/><use transform="matrix(0.06172839506172839,0,0,0.06172839506172839,61.54320987654321,0)" xlink:href="#aj"/><use transform="matrix(0.06172839506172839,0,0,0.06172839506172839,73.88888888888889,0)" xlink:href="#ag"/><use transform="matrix(0.06172839506172839,0,0,0.06172839506172839,87.4074074074074,0)" xlink:href="#aw"/><use transform="matrix(0.06172839506172839,0,0,0.06172839506172839,99.75308641975309,0)" xlink:href="#aQ"/></g><g id="P"><use transform="matrix(0.0987654320987654,0,0,0.0987654320987654,0,0)" xlink:href="#aD"/><use transform="matrix(0.0987654320987654,0,0,0.0987654320987654,25.58024691358024,0)" xlink:href="#ag"/></g><path fill="#3a414a" d="M140-251c80 0 125 45 125 126S219 4 139 4C58 4 15-44 15-125s44-126 125-126zm-1 214c52 0 73-35 73-88 0-50-21-86-72-86-52 0-73 35-73 86s22 88 72 88" id="bg"/><g id="Q"><use transform="matrix(0.0987654320987654,0,0,0.0987654320987654,0,0)" xlink:href="#bg"/><use transform="matrix(0.0987654320987654,0,0,0.0987654320987654,27.654320987654312,0)" xlink:href="#av"/><use transform="matrix(0.0987654320987654,0,0,0.0987654320987654,39.40740740740739,0)" xlink:href="#ag"/><use transform="matrix(0.0987654320987654,0,0,0.0987654320987654,61.037037037037,0)" xlink:href="#al"/><use transform="matrix(0.0987654320987654,0,0,0.0987654320987654,72.7901234567901,0)" xlink:href="#an"/><use transform="matrix(0.0987654320987654,0,0,0.0987654320987654,94.41975308641972,0)" xlink:href="#ap"/><use transform="matrix(0.0987654320987654,0,0,0.0987654320987654,104.29629629629626,0)" xlink:href="#an"/><use transform="matrix(0.0987654320987654,0,0,0.0987654320987654,125.92592592592588,0)" xlink:href="#bd"/><use transform="matrix(0.0987654320987654,0,0,0.0987654320987654,147.55555555555551,0)" xlink:href="#aQ"/><use transform="matrix(0.0987654320987654,0,0,0.0987654320987654,167.3086419753086,0)" xlink:href="#ax"/><use transform="matrix(0.0987654320987654,0,0,0.0987654320987654,179.0617283950617,0)" xlink:href="#ap"/><use transform="matrix(0.0987654320987654,0,0,0.0987654320987654,188.93827160493822,0)" xlink:href="#an"/><use transform="matrix(0.0987654320987654,0,0,0.0987654320987654,210.56790123456784,0)" xlink:href="#bd"/></g><path fill="#3a414a" d="M121-226c-27-7-43 5-38 36h38v33H83V0H34v-157H6v-33h28c-9-59 32-81 87-68v32" id="bh"/><g id="R"><use transform="matrix(0.0987654320987654,0,0,0.0987654320987654,0,0)" xlink:href="#an"/><use transform="matrix(0.0987654320987654,0,0,0.0987654320987654,21.629629629629623,0)" xlink:href="#bh"/></g><g id="S"><use transform="matrix(0.0987654320987654,0,0,0.0987654320987654,0,0)" xlink:href="#ai"/><use transform="matrix(0.0987654320987654,0,0,0.0987654320987654,19.753086419753078,0)" xlink:href="#an"/><use transform="matrix(0.0987654320987654,0,0,0.0987654320987654,41.3827160493827,0)" xlink:href="#az"/><use transform="matrix(0.0987654320987654,0,0,0.0987654320987654,72.98765432098763,0)" xlink:href="#aj"/></g><g id="T"><use transform="matrix(0.0987654320987654,0,0,0.0987654320987654,0,0)" xlink:href="#aP"/><use transform="matrix(0.0987654320987654,0,0,0.0987654320987654,25.58024691358024,0)" xlink:href="#af"/><use transform="matrix(0.0987654320987654,0,0,0.0987654320987654,45.333333333333314,0)" xlink:href="#al"/><use transform="matrix(0.0987654320987654,0,0,0.0987654320987654,57.0864197530864,0)" xlink:href="#aj"/><use transform="matrix(0.0987654320987654,0,0,0.0987654320987654,76.83950617283948,0)" xlink:href="#bd"/><use transform="matrix(0.0987654320987654,0,0,0.0987654320987654,98.4691358024691,0)" xlink:href="#an"/><use transform="matrix(0.0987654320987654,0,0,0.0987654320987654,120.09876543209873,0)" xlink:href="#ak"/><use transform="matrix(0.0987654320987654,0,0,0.0987654320987654,133.92592592592587,0)" xlink:href="#am"/><use transform="matrix(0.0987654320987654,0,0,0.0987654320987654,143.8024691358024,0)" xlink:href="#aw"/><use transform="matrix(0.0987654320987654,0,0,0.0987654320987654,163.5555555555555,0)" xlink:href="#af"/><use transform="matrix(0.0987654320987654,0,0,0.0987654320987654,183.30864197530857,0)" xlink:href="#ap"/></g><g id="U"><use transform="matrix(0.0987654320987654,0,0,0.0987654320987654,0,0)" xlink:href="#aG"/><use transform="matrix(0.0987654320987654,0,0,0.0987654320987654,21.72839506172839,0)" xlink:href="#af"/><use transform="matrix(0.0987654320987654,0,0,0.0987654320987654,41.48148148148147,0)" xlink:href="#ak"/><use transform="matrix(0.0987654320987654,0,0,0.0987654320987654,55.308641975308625,0)" xlink:href="#am"/><use transform="matrix(0.0987654320987654,0,0,0.0987654320987654,65.18518518518516,0)" xlink:href="#af"/><use transform="matrix(0.0987654320987654,0,0,0.0987654320987654,84.93827160493824,0)" xlink:href="#ag"/><use transform="matrix(0.0987654320987654,0,0,0.0987654320987654,106.56790123456787,0)" xlink:href="#al"/><use transform="matrix(0.0987654320987654,0,0,0.0987654320987654,118.32098765432093,0)" xlink:href="#ai"/></g><g id="V"><use transform="matrix(0.0987654320987654,0,0,0.0987654320987654,0,0)" xlink:href="#am"/><use transform="matrix(0.0987654320987654,0,0,0.0987654320987654,9.876543209876539,0)" xlink:href="#ag"/></g><g id="W"><use transform="matrix(0.0987654320987654,0,0,0.0987654320987654,0,0)" xlink:href="#al"/><use transform="matrix(0.0987654320987654,0,0,0.0987654320987654,11.753086419753082,0)" xlink:href="#bc"/><use transform="matrix(0.0987654320987654,0,0,0.0987654320987654,33.38271604938271,0)" xlink:href="#aj"/></g><g id="X"><use transform="matrix(0.0987654320987654,0,0,0.0987654320987654,0,0)" xlink:href="#aw"/><use transform="matrix(0.0987654320987654,0,0,0.0987654320987654,19.753086419753078,0)" xlink:href="#af"/><use transform="matrix(0.0987654320987654,0,0,0.0987654320987654,39.506172839506156,0)" xlink:href="#al"/><use transform="matrix(0.0987654320987654,0,0,0.0987654320987654,51.259259259259245,0)" xlink:href="#aj"/><use transform="matrix(0.0987654320987654,0,0,0.0987654320987654,71.01234567901231,0)" xlink:href="#bd"/><use transform="matrix(0.0987654320987654,0,0,0.0987654320987654,92.64197530864193,0)" xlink:href="#an"/><use transform="matrix(0.0987654320987654,0,0,0.0987654320987654,114.27160493827155,0)" xlink:href="#ak"/><use transform="matrix(0.0987654320987654,0,0,0.0987654320987654,128.0987654320987,0)" xlink:href="#aQ"/></g><g id="Y"><use transform="matrix(0.0987654320987654,0,0,0.0987654320987654,0,0)" xlink:href="#aq"/><use transform="matrix(0.0987654320987654,0,0,0.0987654320987654,23.703703703703695,0)" xlink:href="#aj"/><use transform="matrix(0.0987654320987654,0,0,0.0987654320987654,43.45679012345677,0)" xlink:href="#al"/></g><g id="Z"><use transform="matrix(0.0987654320987654,0,0,0.0987654320987654,0,0)" xlink:href="#aq"/><use transform="matrix(0.0987654320987654,0,0,0.0987654320987654,23.703703703703695,0)" xlink:href="#bc"/><use transform="matrix(0.0987654320987654,0,0,0.0987654320987654,45.333333333333314,0)" xlink:href="#af"/><use transform="matrix(0.0987654320987654,0,0,0.0987654320987654,65.08641975308639,0)" xlink:href="#aA"/><use transform="matrix(0.0987654320987654,0,0,0.0987654320987654,86.71604938271601,0)" xlink:href="#aj"/><use transform="matrix(0.0987654320987654,0,0,0.0987654320987654,106.46913580246908,0)" xlink:href="#ai"/></g><path fill="#3a414a" d="M15-148v-39h180v39H15zm0 97v-39h180v39H15" id="bi"/><use transform="matrix(0.0987654320987654,0,0,0.0987654320987654,0,0)" xlink:href="#bi" id="aa"/><g id="ab"><use transform="matrix(0.0987654320987654,0,0,0.0987654320987654,0,0)" xlink:href="#ai"/><use transform="matrix(0.0987654320987654,0,0,0.0987654320987654,19.753086419753078,0)" xlink:href="#aj"/><use transform="matrix(0.0987654320987654,0,0,0.0987654320987654,39.506172839506156,0)" xlink:href="#al"/><use transform="matrix(0.0987654320987654,0,0,0.0987654320987654,51.259259259259245,0)" xlink:href="#ai"/></g><path fill="#3a414a" d="M231 0h-52l-39-155L100 0H48L-1-190h46L77-45c9-52 24-97 36-145h53l37 145 32-145h46" id="bj"/><g id="ac"><use transform="matrix(0.0987654320987654,0,0,0.0987654320987654,0,0)" xlink:href="#aD"/><use transform="matrix(0.0987654320987654,0,0,0.0987654320987654,25.58024691358024,0)" xlink:href="#ak"/><use transform="matrix(0.0987654320987654,0,0,0.0987654320987654,39.4074074074074,0)" xlink:href="#ak"/><use transform="matrix(0.0987654320987654,0,0,0.0987654320987654,53.23456790123456,0)" xlink:href="#an"/><use transform="matrix(0.0987654320987654,0,0,0.0987654320987654,74.86419753086417,0)" xlink:href="#bj"/><use transform="matrix(0.0987654320987654,0,0,0.0987654320987654,102.51851851851849,0)" xlink:href="#ai"/></g><g id="ad"><use transform="matrix(0.0987654320987654,0,0,0.0987654320987654,0,0)" xlink:href="#ai"/><use transform="matrix(0.0987654320987654,0,0,0.0987654320987654,19.753086419753078,0)" xlink:href="#aj"/><use transform="matrix(0.0987654320987654,0,0,0.0987654320987654,39.506172839506156,0)" xlink:href="#al"/></g><g id="ae"><use transform="matrix(0.0987654320987654,0,0,0.0987654320987654,0,0)" xlink:href="#az"/><use transform="matrix(0.0987654320987654,0,0,0.0987654320987654,31.60493827160493,0)" xlink:href="#an"/><use transform="matrix(0.0987654320987654,0,0,0.0987654320987654,53.23456790123456,0)" xlink:href="#ak"/><use transform="matrix(0.0987654320987654,0,0,0.0987654320987654,67.0617283950617,0)" xlink:href="#aA"/><use transform="matrix(0.0987654320987654,0,0,0.0987654320987654,88.69135802469133,0)" xlink:href="#bc"/><use transform="matrix(0.0987654320987654,0,0,0.0987654320987654,110.32098765432094,0)" xlink:href="#am"/><use transform="matrix(0.0987654320987654,0,0,0.0987654320987654,120.19753086419749,0)" xlink:href="#ai"/><use transform="matrix(0.0987654320987654,0,0,0.0987654320987654,139.95061728395058,0)" xlink:href="#az"/><use transform="matrix(0.0987654320987654,0,0,0.0987654320987654,171.55555555555551,0)" xlink:href="#ai"/></g></defs></g></svg>