<svg xmlns="http://www.w3.org/2000/svg" xmlns:xlink="http://www.w3.org/1999/xlink" xmlns:lucid="lucid" width="1466" height="986"><g transform="translate(-1517 3)" lucid:page-tab-id="hG2-15bC~rX~"><path d="M1520 6a6 6 0 0 1 6-6h1448a6 6 0 0 1 6 6v968a6 6 0 0 1-6 6H1526a6 6 0 0 1-6-6z" stroke="#000" stroke-opacity="0" stroke-width="6" fill-opacity="0"/><path d="M1991 387.63c0 114.5-95.36 207.33-213 207.33s-213-92.82-213-207.33c0-114.5 95.36-207.33 213-207.33s213 92.82 213 207.33z" stroke="#0c6291" stroke-width="6" fill-opacity="0"/><path d="M2222.64 518.05c0 114.5-95.36 207.33-213 207.33s-213-92.82-213-207.33c0-114.5 95.36-207.33 213-207.33s213 92.82 213 207.33z" stroke="#0c6291" stroke-width="6" fill-opacity="0"/><path d="M1991.17 638.14c0 114.5-95.36 207.34-213 207.34-117.63 0-213-92.83-213-207.34 0-114.5 95.37-207.33 213-207.33 117.64 0 213 92.84 213 207.34z" stroke="#0c6291" stroke-width="6" fill-opacity="0"/><path d="M1980 436.8a6 6 0 0 1 6-6h207.5a6 6 0 0 1 6 6v159.35a6 6 0 0 1-6 6H1986a6 6 0 0 1-6-6z" fill="none"/><use xlink:href="#a" transform="matrix(1,0,0,1,1984.9999999999998,435.8106186138325) translate(50.79427083333333 26.169270833333336)"/><use xlink:href="#b" transform="matrix(1,0,0,1,1984.9999999999998,435.8106186138325) translate(0.2604166666666572 58.434895833333336)"/><use xlink:href="#c" transform="matrix(1,0,0,1,1984.9999999999998,435.8106186138325) translate(119.37499999999999 58.434895833333336)"/><use xlink:href="#d" transform="matrix(1,0,0,1,1984.9999999999998,435.8106186138325) translate(25.41015625 90.70052083333334)"/><use xlink:href="#e" transform="matrix(1,0,0,1,1984.9999999999998,435.8106186138325) translate(158.69140625 90.70052083333334)"/><use xlink:href="#f" transform="matrix(1,0,0,1,1984.9999999999998,435.8106186138325) translate(40.3125 122.96614583333334)"/><use xlink:href="#g" transform="matrix(1,0,0,1,1984.9999999999998,435.8106186138325) translate(37.79296875 155.23177083333334)"/><path d="M1657.67 706a6 6 0 0 1 6-6h245.1a6 6 0 0 1 6 6v62.54a6 6 0 0 1-6 6h-245.1a6 6 0 0 1-6-6z" fill="none"/><use xlink:href="#h" transform="matrix(1,0,0,1,1662.6692708333335,705) translate(0.4583333333333286 26.067708333333336)"/><use xlink:href="#i" transform="matrix(1,0,0,1,1662.6692708333335,705) translate(75.25 26.067708333333336)"/><use xlink:href="#j" transform="matrix(1,0,0,1,1662.6692708333335,705) translate(186.25260416666669 26.067708333333336)"/><use xlink:href="#k" transform="matrix(1,0,0,1,1662.6692708333335,705) translate(28.772135416666657 58.333333333333336)"/><path d="M1707.7 206a6 6 0 0 1 6-6h142.04a6 6 0 0 1 6 6v62.54a6 6 0 0 1-6 6H1713.7a6 6 0 0 1-6-6z" fill="none"/><use xlink:href="#l" transform="matrix(1,0,0,1,1712.6923558803996,205) translate(0.4817708333333286 26.067708333333336)"/><use xlink:href="#m" transform="matrix(1,0,0,1,1712.6923558803996,205) translate(76.1328125 26.067708333333336)"/><use xlink:href="#n" transform="matrix(1,0,0,1,1712.6923558803996,205) translate(17.154947916666657 58.333333333333336)"/><path d="M1795 469a6 6 0 0 1 6-6h116.24a6 6 0 0 1 6 6v73.3a6 6 0 0 1-6 6H1801a6 6 0 0 1-6-6z" fill="none"/><use xlink:href="#o" transform="matrix(1,0,0,1,1800,468) translate(19.05403645833333 30.49565972222222)"/><use xlink:href="#p" transform="matrix(1,0,0,1,1800,468) translate(0.3843315972222143 68.13888888888889)"/><path d="M2402.67 67.13a15 15 0 0 1 15-15H2941a15 15 0 0 1 15 15v814.43a15 15 0 0 1-15 15h-523.33a15 15 0 0 1-15-15z" stroke="#0c6291" stroke-width="6" fill-opacity="0"/><use xlink:href="#q" transform="matrix(1,0,0,1,2407.666666666667,57.12909479389043) translate(0 16.216875)"/><use xlink:href="#r" transform="matrix(1,0,0,1,2407.666666666667,57.12909479389043) translate(0 50.39363498263889)"/><use xlink:href="#s" transform="matrix(1,0,0,1,2407.666666666667,57.12909479389043) translate(17.5 50.39363498263889)"/><use xlink:href="#t" transform="matrix(1,0,0,1,2407.666666666667,57.12909479389043) translate(120.25173611111111 50.39363498263889)"/><path d="M2429.77 132.14a6 6 0 0 1 6-6h485.15a6 6 0 0 1 6 6v789.73a6 6 0 0 1-6 6h-485.15a6 6 0 0 1-6-6z" fill="none"/><g><use xlink:href="#u" transform="matrix(1,0,0,1,2429.7686538726193,126.13976171127422) translate(0 30.138888888888893)"/><use xlink:href="#v" transform="matrix(1,0,0,1,2429.7686538726193,126.13976171127422) translate(0 50.55989583333334)"/><use xlink:href="#w" transform="matrix(1,0,0,1,2429.7686538726193,126.13976171127422) translate(36.01 83.91493055555557)"/><use xlink:href="#x" transform="matrix(1,0,0,1,2429.7686538726193,126.13976171127422) translate(36.01 121.55815972222223)"/><use xlink:href="#y" transform="matrix(1,0,0,1,2429.7686538726193,126.13976171127422) translate(62.26 121.55815972222223)"/><use xlink:href="#z" transform="matrix(1,0,0,1,2429.7686538726193,126.13976171127422) translate(36.01 159.20138888888889)"/><use xlink:href="#A" transform="matrix(1,0,0,1,2429.7686538726193,126.13976171127422) translate(72.01 159.20138888888889)"/><use xlink:href="#B" transform="matrix(1,0,0,1,2429.7686538726193,126.13976171127422) translate(108.01 159.20138888888889)"/><use xlink:href="#C" transform="matrix(1,0,0,1,2429.7686538726193,126.13976171127422) translate(36.01 196.84461805555557)"/><use xlink:href="#D" transform="matrix(1,0,0,1,2429.7686538726193,126.13976171127422) translate(72.01 196.84461805555557)"/><use xlink:href="#C" transform="matrix(1,0,0,1,2429.7686538726193,126.13976171127422) translate(36.01 234.48784722222226)"/><use xlink:href="#E" transform="matrix(1,0,0,1,2429.7686538726193,126.13976171127422) translate(72.01 234.48784722222226)"/><use xlink:href="#F" transform="matrix(1,0,0,1,2429.7686538726193,126.13976171127422) translate(108.01 234.48784722222226)"/><use xlink:href="#G" transform="matrix(1,0,0,1,2429.7686538726193,126.13976171127422) translate(226.1957638888889 234.48784722222226)"/><use xlink:href="#C" transform="matrix(1,0,0,1,2429.7686538726193,126.13976171127422) translate(36.01 272.13107638888897)"/><use xlink:href="#E" transform="matrix(1,0,0,1,2429.7686538726193,126.13976171127422) translate(72.01 272.13107638888897)"/><use xlink:href="#H" transform="matrix(1,0,0,1,2429.7686538726193,126.13976171127422) translate(108.01 272.13107638888897)"/><use xlink:href="#I" transform="matrix(1,0,0,1,2429.7686538726193,126.13976171127422) translate(234.8090451388889 272.13107638888897)"/><use xlink:href="#J" transform="matrix(1,0,0,1,2429.7686538726193,126.13976171127422) translate(0 292.5520833333334)"/><use xlink:href="#K" transform="matrix(1,0,0,1,2429.7686538726193,126.13976171127422) translate(36.01 325.90711805555566)"/><use xlink:href="#L" transform="matrix(1,0,0,1,2429.7686538726193,126.13976171127422) translate(36.01 363.55034722222234)"/><use xlink:href="#M" transform="matrix(1,0,0,1,2429.7686538726193,126.13976171127422) translate(72.01 363.55034722222234)"/><use xlink:href="#C" transform="matrix(1,0,0,1,2429.7686538726193,126.13976171127422) translate(36.01 401.193576388889)"/><use xlink:href="#E" transform="matrix(1,0,0,1,2429.7686538726193,126.13976171127422) translate(72.01 401.193576388889)"/><use xlink:href="#N" transform="matrix(1,0,0,1,2429.7686538726193,126.13976171127422) translate(108.01 401.193576388889)"/><use xlink:href="#O" transform="matrix(1,0,0,1,2429.7686538726193,126.13976171127422) translate(152.30687500000002 401.193576388889)"/><use xlink:href="#C" transform="matrix(1,0,0,1,2429.7686538726193,126.13976171127422) translate(36.01 438.8368055555557)"/><use xlink:href="#E" transform="matrix(1,0,0,1,2429.7686538726193,126.13976171127422) translate(72.01 438.8368055555557)"/><use xlink:href="#P" transform="matrix(1,0,0,1,2429.7686538726193,126.13976171127422) translate(108.01 438.8368055555557)"/><use xlink:href="#Q" transform="matrix(1,0,0,1,2429.7686538726193,126.13976171127422) translate(197.46963541666668 438.8368055555557)"/><use xlink:href="#R" transform="matrix(1,0,0,1,2429.7686538726193,126.13976171127422) translate(278.7565277777778 438.8368055555557)"/><use xlink:href="#C" transform="matrix(1,0,0,1,2429.7686538726193,126.13976171127422) translate(36.01 476.4800347222224)"/><use xlink:href="#E" transform="matrix(1,0,0,1,2429.7686538726193,126.13976171127422) translate(72.01 476.4800347222224)"/><use xlink:href="#S" transform="matrix(1,0,0,1,2429.7686538726193,126.13976171127422) translate(108.01 476.4800347222224)"/><use xlink:href="#T" transform="matrix(1,0,0,1,2429.7686538726193,126.13976171127422) translate(183.28126736111113 476.4800347222224)"/><use xlink:href="#U" transform="matrix(1,0,0,1,2429.7686538726193,126.13976171127422) translate(349.28821180555565 476.4800347222224)"/><use xlink:href="#C" transform="matrix(1,0,0,1,2429.7686538726193,126.13976171127422) translate(36.01 514.123263888889)"/><use xlink:href="#V" transform="matrix(1,0,0,1,2429.7686538726193,126.13976171127422) translate(72.01 514.123263888889)"/><use xlink:href="#C" transform="matrix(1,0,0,1,2429.7686538726193,126.13976171127422) translate(36.01 551.7664930555558)"/><use xlink:href="#E" transform="matrix(1,0,0,1,2429.7686538726193,126.13976171127422) translate(72.01 551.7664930555558)"/><use xlink:href="#W" transform="matrix(1,0,0,1,2429.7686538726193,126.13976171127422) translate(108.01 551.7664930555558)"/><use xlink:href="#X" transform="matrix(1,0,0,1,2429.7686538726193,126.13976171127422) translate(344.33595486111113 551.7664930555558)"/><use xlink:href="#Y" transform="matrix(1,0,0,1,2429.7686538726193,126.13976171127422) translate(36.01 589.4097222222224)"/><use xlink:href="#Z" transform="matrix(1,0,0,1,2429.7686538726193,126.13976171127422) translate(72.01 589.4097222222224)"/><use xlink:href="#aa" transform="matrix(1,0,0,1,2429.7686538726193,126.13976171127422) translate(108.01 589.4097222222224)"/><use xlink:href="#ab" transform="matrix(1,0,0,1,2429.7686538726193,126.13976171127422) translate(144.01 589.4097222222224)"/><use xlink:href="#ac" transform="matrix(1,0,0,1,2429.7686538726193,126.13976171127422) translate(36.01 627.052951388889)"/><use xlink:href="#C" transform="matrix(1,0,0,1,2429.7686538726193,126.13976171127422) translate(36.01 664.6961805555557)"/><use xlink:href="#ad" transform="matrix(1,0,0,1,2429.7686538726193,126.13976171127422) translate(72.01 664.6961805555557)"/><use xlink:href="#C" transform="matrix(1,0,0,1,2429.7686538726193,126.13976171127422) translate(36.01 702.3394097222223)"/><use xlink:href="#E" transform="matrix(1,0,0,1,2429.7686538726193,126.13976171127422) translate(72.01 702.3394097222223)"/><use xlink:href="#ae" transform="matrix(1,0,0,1,2429.7686538726193,126.13976171127422) translate(108.01 702.3394097222223)"/></g><path d="M2442.67 176.75a6 6 0 0 1 6-6h466.66a6 6 0 0 1 6 6v231a6 6 0 0 1-6 6h-466.66a6 6 0 0 1-6-6zM2442.67 420.04a6 6 0 0 1 6-6h466.66a6 6 0 0 1 6 6v279.02a6 6 0 0 1-6 6h-466.66a6 6 0 0 1-6-6zM2442.67 711.06a6 6 0 0 1 6-6h466.66a6 6 0 0 1 6 6V843.4a6 6 0 0 1-6 6h-466.66a6 6 0 0 1-6-6z" stroke="#dd3303" stroke-width="7" fill-opacity="0"/><path d="M1778 155.3v-12a6 6 0 0 1 6-6h490a6 6 0 0 1 6 6v142.95a6 6 0 0 0 6 6h131.18" stroke="#dd3303" stroke-width="6" fill="none"/><path d="M1778 171.3l-7.5-13h15zM2433.17 292.25l-13 7.5v-15z" stroke="#dd3303" stroke-width="6" fill="#dd3303"/><path d="M1778.17 870.47v12a6 6 0 0 0 6 6H2274a6 6 0 0 0 6-6V746a6 6 0 0 1 6-6h131.18" stroke="#dd3303" stroke-width="6" fill="none"/><path d="M1778.17 854.48l7.5 13h-15zM2433.17 740l-13 7.5v-15z" stroke="#dd3303" stroke-width="6" fill="#dd3303"/><path d="M2247.63 518.3l169.55 2.02" stroke="#dd3303" stroke-width="6" fill="none"/><path d="M2231.64 518.12l13.08-7.34-.18 15zM2433.17 520.5l-13.08 7.36.17-15z" stroke="#dd3303" stroke-width="6" fill="#dd3303"/><defs><path fill="#094d71" d="M716 20c-372 0-603-230-603-607 0-487 323-923 817-923 330 0 576 197 568 500h-310c-18-142-108-229-266-229-321 0-502 333-502 645 0 223 116 343 310 343 217 0 373-125 412-311H819l38-232h620l-32 196c-65 390-362 618-729 618" id="af"/><path fill="#094d71" d="M42 0l247-1490h581c341 0 501 193 452 485-33 203-151 351-334 424L1209 0H871L675-532H435L347 0H42zm434-779h220c187 0 287-77 312-226 25-154-54-233-237-233H552" id="ag"/><path fill="#094d71" d="M707 20c-356 0-594-221-594-608 0-485 317-922 814-922 343 0 581 191 570 529h-309c-1-161-104-258-267-258-326 0-501 341-501 649 0 224 118 339 304 339 179 0 331-97 388-259h309c-81 277-347 530-714 530" id="ah"/><path fill="#094d71" d="M442-647L335 0H35l247-1490h294l-97 584c87-145 202-226 365-226 232 0 372 159 329 421L1055 0H754l110-659c23-140-41-222-167-222s-231 85-255 234" id="ai"/><path fill="#094d71" d="M572 20C248 20 37-159 76-418h307c-13 112 82 185 223 185 146 0 264-82 284-203 21-124-71-210-243-210H509l38-227h138c143 0 258-80 278-200 19-115-54-193-183-193-132 0-250 74-272 189H214c46-255 298-433 600-433 305 0 487 185 448 418-27 168-161 285-332 317l-1 11c213 29 306 163 275 347-42 255-302 437-632 437" id="aj"/><path fill="#094d71" d="M587 20C253 20 27-158 67-401c31-187 195-339 381-369l1-9c-152-33-238-168-211-330 38-232 270-401 568-401s507 170 469 400c-27 164-161 298-321 331l-1 9c172 30 291 183 259 371-41 242-293 419-625 419zm16-226c151 0 274-88 295-219 21-130-67-225-214-225-145 0-273 91-296 224-22 129 60 220 215 220zm111-668c128 0 238-85 257-204 20-119-55-199-183-199s-236 78-257 199c-20 120 55 204 183 204" id="ak"/><g id="a"><use transform="matrix(0.013020833333333334,0,0,0.013020833333333334,0,0)" xlink:href="#af"/><use transform="matrix(0.013020833333333334,0,0,0.013020833333333334,20.013020833333336,0)" xlink:href="#ag"/><use transform="matrix(0.013020833333333334,0,0,0.013020833333333334,37.52604166666667,0)" xlink:href="#ah"/><use transform="matrix(0.013020833333333334,0,0,0.013020833333333334,57.25260416666667,0)" xlink:href="#ai"/><use transform="matrix(0.013020833333333334,0,0,0.013020833333333334,73.85416666666667,0)" xlink:href="#aj"/><use transform="matrix(0.013020833333333334,0,0,0.013020833333333334,91.06770833333334,0)" xlink:href="#ak"/></g><path fill="#094d71" d="M475 442C186 442 28 316 6 158l262-52c16 60 71 118 210 118 161 0 274-79 300-226l34-196-27 2C728-104 635-16 463-16 238-16 73-154 73-436c0-339 199-696 543-696 197 0 275 122 301 211l14-2 33-195h296L1074 0c-51 303-290 442-599 442zm87-686c217 0 320-234 320-431 0-135-60-217-181-217-209 0-322 240-322 439 0 131 60 209 183 209" id="al"/><path fill="#094d71" d="M552 24C254 24 71-146 71-432c0-377 264-705 643-705 236 0 413 123 413 326 0 251-270 329-766 342-10 155 35 265 213 267 113 0 207-50 245-134l269 36C1015-105 814 24 552 24zM392-650c368-7 456-43 456-146 0-71-63-115-165-115-165 0-251 126-291 261" id="am"/><path fill="#094d71" d="M441-638L335 0H35l186-1118h282l-30 213c87-148 206-227 368-227 241 0 374 169 330 431L1055 0H754l112-669c23-140-43-212-161-212-135 0-240 96-264 243" id="an"/><path fill="#094d71" d="M549 22C246 22 73-162 73-445c0-359 234-687 634-687 301 0 475 184 475 467 0 360-234 687-633 687zm10-236c223 0 322-274 322-459 0-134-61-223-185-223-223 0-322 271-322 458 0 133 61 224 185 224" id="ao"/><path fill="#094d71" d="M35 0l186-1118h278l-23 203c87-158 215-220 340-220 150 0 232 87 258 250 89-176 240-250 390-250 212 0 348 148 307 391L1648 0h-301l118-707c21-127-40-177-131-177-124 0-216 90-235 206L986 0H696l119-715c18-110-37-169-130-169-113 0-217 83-240 218L335 0H35" id="ap"/><path fill="#094d71" d="M36 0l185-1118h300L336 0H36zm359-1264c-91 0-153-69-139-154 14-84 99-154 190-154 89 0 153 67 139 154-14 86-100 154-190 154" id="aq"/><path fill="#094d71" d="M548 22C250 22 73-164 73-448c0-345 220-684 633-684 269 0 447 145 451 374l-285 48c-6-116-55-186-169-186-226 0-328 261-328 457 0 135 55 225 182 225 119 0 222-77 266-198l271 56C1013-122 815 22 548 22" id="ar"/><g id="b"><use transform="matrix(0.013020833333333334,0,0,0.013020833333333334,0,0)" xlink:href="#al"/><use transform="matrix(0.013020833333333334,0,0,0.013020833333333334,16.848958333333336,0)" xlink:href="#am"/><use transform="matrix(0.013020833333333334,0,0,0.013020833333333334,32.578125,0)" xlink:href="#an"/><use transform="matrix(0.013020833333333334,0,0,0.013020833333333334,49.1796875,0)" xlink:href="#ao"/><use transform="matrix(0.013020833333333334,0,0,0.013020833333333334,65.546875,0)" xlink:href="#ap"/><use transform="matrix(0.013020833333333334,0,0,0.013020833333333334,89.8828125,0)" xlink:href="#aq"/><use transform="matrix(0.013020833333333334,0,0,0.013020833333333334,97.12239583333333,0)" xlink:href="#ar"/></g><path fill="#094d71" d="M36 0l185-1118h290l-31 195h12c83-166 210-238 399-200l-45 268c-197-55-375 37-405 219L336 0H36" id="as"/><path fill="#094d71" d="M457 19C230 19 71-139 71-426c0-345 196-706 543-706 198 0 272 121 298 211h11l94-569h300L1070 0H775l32-179h-16C734-78 632 19 457 19zm100-241c213 0 324-249 324-452 0-136-60-218-181-218-213 0-322 248-322 449 0 134 58 221 179 221" id="at"/><path fill="#094d71" d="M490 22C212 20 43-104 37-315l281-29c11 104 65 146 186 146 109 0 214-47 222-128 5-51-29-84-119-104l-186-40c-195-42-289-149-277-303 14-232 242-359 510-359 274 2 415 119 430 308l-267 27c-11-76-56-120-162-120-98 0-203 45-211 128-6 50 24 83 118 104l194 40c196 41 291 138 279 289-15 238-265 378-545 378" id="au"/><g id="c"><use transform="matrix(0.013020833333333334,0,0,0.013020833333333334,0,0)" xlink:href="#ar"/><use transform="matrix(0.013020833333333334,0,0,0.013020833333333334,15.677083333333334,0)" xlink:href="#ao"/><use transform="matrix(0.013020833333333334,0,0,0.013020833333333334,32.044270833333336,0)" xlink:href="#ao"/><use transform="matrix(0.013020833333333334,0,0,0.013020833333333334,48.411458333333336,0)" xlink:href="#as"/><use transform="matrix(0.013020833333333334,0,0,0.013020833333333334,58.6328125,0)" xlink:href="#at"/><use transform="matrix(0.013020833333333334,0,0,0.013020833333333334,75.44270833333334,0)" xlink:href="#au"/></g><path fill="#094d71" d="M76 0l823-1228 2-10H188l42-252h1040l-42 256L402 0H76" id="av"/><path fill="#094d71" d="M-38 395l191-620h299L166 395H-38" id="aw"/><path fill="#094d71" d="M608 20C305 20 28-164 118-710c83-502 348-800 713-800 293 0 485 188 475 433h-301c-7-108-75-170-189-170-197 0-339 183-388 476h10c91-132 228-208 388-208 264 0 446 202 399 482-50 302-289 517-617 517zm8-242c147 0 286-115 311-267 26-150-54-267-203-267-151 0-288 120-313 268-23 147 58 266 205 266" id="ax"/><path fill="#094d71" d="M53-265l39-241 787-984h383l-162 979h186l-41 246h-186L1015 0H722l44-265H53zm759-246l107-643h-12L403-523l-2 12h411" id="ay"/><path fill="#094d71" d="M31 0l37-220 609-495c159-133 252-221 271-342 22-133-58-209-189-209-139 0-255 88-279 233H189c48-290 275-477 585-477 316 0 511 183 468 441-28 168-124 307-472 585L507-262l-2 11h622L1086 0H31" id="az"/><path fill="#094d71" d="M903-1490L656 0H352l203-1221h-10L163-980l46-279 368-231h326" id="aA"/><g id="d"><use transform="matrix(0.013020833333333334,0,0,0.013020833333333334,0,0)" xlink:href="#av"/><use transform="matrix(0.013020833333333334,0,0,0.013020833333333334,12.1875,0)" xlink:href="#aw"/><use transform="matrix(0.013020833333333334,0,0,0.013020833333333334,20.3125,0)" xlink:href="#ax"/><use transform="matrix(0.013020833333333334,0,0,0.013020833333333334,37.6171875,0)" xlink:href="#ax"/><use transform="matrix(0.013020833333333334,0,0,0.013020833333333334,54.921875,0)" xlink:href="#ak"/><use transform="matrix(0.013020833333333334,0,0,0.013020833333333334,71.70572916666666,0)" xlink:href="#aw"/><use transform="matrix(0.013020833333333334,0,0,0.013020833333333334,80.61197916666666,0)" xlink:href="#ay"/><use transform="matrix(0.013020833333333334,0,0,0.013020833333333334,98.65885416666666,0)" xlink:href="#az"/><use transform="matrix(0.013020833333333334,0,0,0.013020833333333334,115.45572916666664,0)" xlink:href="#aA"/></g><path fill="#094d71" d="M776-1118l-37 229H530l-93 562c-12 72 14 104 85 104 23 0 74-7 97-13l5 225C555 8 488 16 426 16 201 16 99-97 132-301l98-588H76l37-229h155l44-266h300l-44 266h208" id="aB"/><g id="e"><use transform="matrix(0.013020833333333334,0,0,0.013020833333333334,0,0)" xlink:href="#aB"/><use transform="matrix(0.013020833333333334,0,0,0.013020833333333334,9.531250000000002,0)" xlink:href="#ao"/></g><path fill="#094d71" d="M573 22C279 22 73-168 85-415h301c7 108 76 174 193 174 196 0 335-183 385-479h-10c-91 131-244 209-405 209-267 0-430-204-384-483 50-296 291-520 625-518 303 2 572 189 482 731-83 501-333 803-699 803zm102-757c145 0 279-118 304-266 25-145-64-267-214-267-145 0-277 115-302 268-24 148 62 265 212 265" id="aC"/><path fill="#094d71" d="M595 20C218 20 45-261 124-744c80-483 349-766 724-766 374 0 549 282 470 765-80 485-346 765-723 765zm41-253c185 0 317-186 371-512 53-325-16-513-201-513-181 0-316 183-371 514-53 326 17 511 201 511" id="aD"/><g id="f"><use transform="matrix(0.013020833333333334,0,0,0.013020833333333334,0,0)" xlink:href="#av"/><use transform="matrix(0.013020833333333334,0,0,0.013020833333333334,12.1875,0)" xlink:href="#aw"/><use transform="matrix(0.013020833333333334,0,0,0.013020833333333334,20.3125,0)" xlink:href="#ax"/><use transform="matrix(0.013020833333333334,0,0,0.013020833333333334,37.6171875,0)" xlink:href="#ak"/><use transform="matrix(0.013020833333333334,0,0,0.013020833333333334,54.9609375,0)" xlink:href="#av"/><use transform="matrix(0.013020833333333334,0,0,0.013020833333333334,67.1484375,0)" xlink:href="#aw"/><use transform="matrix(0.013020833333333334,0,0,0.013020833333333334,76.0546875,0)" xlink:href="#ay"/><use transform="matrix(0.013020833333333334,0,0,0.013020833333333334,94.1015625,0)" xlink:href="#aC"/><use transform="matrix(0.013020833333333334,0,0,0.013020833333333334,111.40625,0)" xlink:href="#aD"/></g><path fill="#094d71" d="M177-607c55-330 228-732 419-974h279c-197 312-342 675-392 973-43 262-19 511 84 887H288C164-4 128-310 177-607" id="aE"/><path fill="#094d71" d="M42 0l247-1490h305L389-253h642L990 0H42" id="aF"/><path fill="#094d71" d="M441 19C184 19 19-186 81-558c63-382 303-574 550-574 189 0 259 113 285 202h10l31-188h299L1071 0H776l29-179h-14C733-87 623 19 441 19zm133-241c154 0 263-135 296-336 34-204-31-334-185-334-159 0-264 139-296 334-33 197 29 336 185 336" id="aG"/><path fill="#094d71" d="M-73 288C132-57 252-316 298-599c53-316 21-679-63-973h287c103 233 136 630 78 974-51 310-183 616-386 886H-73" id="aH"/><g id="g"><use transform="matrix(0.013020833333333334,0,0,0.013020833333333334,0,0)" xlink:href="#aE"/><use transform="matrix(0.013020833333333334,0,0,0.013020833333333334,10.533854166666668,0)" xlink:href="#aF"/><use transform="matrix(0.013020833333333334,0,0,0.013020833333333334,25.611979166666668,0)" xlink:href="#ao"/><use transform="matrix(0.013020833333333334,0,0,0.013020833333333334,41.97916666666667,0)" xlink:href="#ar"/><use transform="matrix(0.013020833333333334,0,0,0.013020833333333334,57.65625,0)" xlink:href="#aG"/><use transform="matrix(0.013020833333333334,0,0,0.013020833333333334,74.47916666666667,0)" xlink:href="#aB"/><use transform="matrix(0.013020833333333334,0,0,0.013020833333333334,84.27083333333334,0)" xlink:href="#aq"/><use transform="matrix(0.013020833333333334,0,0,0.013020833333333334,91.51041666666667,0)" xlink:href="#ao"/><use transform="matrix(0.013020833333333334,0,0,0.013020833333333334,107.87760416666667,0)" xlink:href="#an"/><use transform="matrix(0.013020833333333334,0,0,0.013020833333333334,124.47916666666667,0)" xlink:href="#aH"/></g><path fill="#094d71" d="M-34 418l255-1536h295l-34 188h9c56-93 162-202 343-202 221 0 385 151 385 442 0 320-177 709-544 709-191 0-269-117-296-207h-14l-99 606H-34zm624-640c223 0 323-269 323-451 0-133-57-219-180-219-214 0-324 244-324 448 0 137 61 222 181 222" id="aI"/><path fill="#094d71" d="M-37 396L69 170c124 42 243 19 271-107l19-60-235-1121h310c39 287 107 555 115 872 123-306 281-582 422-872h323L612 132c-98 180-235 294-460 294-77 0-149-13-189-30" id="aJ"/><g id="h"><use transform="matrix(0.013020833333333334,0,0,0.013020833333333334,0,0)" xlink:href="#ah"/><use transform="matrix(0.013020833333333334,0,0,0.013020833333333334,19.7265625,0)" xlink:href="#ao"/><use transform="matrix(0.013020833333333334,0,0,0.013020833333333334,36.09375,0)" xlink:href="#aI"/><use transform="matrix(0.013020833333333334,0,0,0.013020833333333334,52.421875,0)" xlink:href="#aJ"/></g><path fill="#094d71" d="M42 0l247-1490h338l345 754c42 94 88 210 128 373 38-422 109-737 168-1127h312L1333 0H995C826-390 654-682 519-1121 476-661 417-410 354 0H42" id="aK"/><path fill="#094d71" d="M419 14C188 14 60-144 103-407l118-711h300L412-459c-23 138 39 222 166 222 125 0 231-84 255-234l107-647h301L1056 0H772l35-232C717-74 589 14 419 14" id="aL"/><path fill="#094d71" d="M675 19C485 19 405-93 377-185h-16L330 0H35l247-1490h300l-95 560h12c57-95 153-202 335-202 221 0 385 151 385 442 0 320-177 709-544 709zm-85-241c223 0 323-269 323-451 0-133-57-219-180-219-214 0-324 244-324 448 0 137 61 222 181 222" id="aM"/><g id="i"><use transform="matrix(0.013020833333333334,0,0,0.013020833333333334,0,0)" xlink:href="#aK"/><use transform="matrix(0.013020833333333334,0,0,0.013020833333333334,20.325520833333336,0)" xlink:href="#aL"/><use transform="matrix(0.013020833333333334,0,0,0.013020833333333334,36.94010416666667,0)" xlink:href="#ap"/><use transform="matrix(0.013020833333333334,0,0,0.013020833333333334,61.27604166666667,0)" xlink:href="#aM"/><use transform="matrix(0.013020833333333334,0,0,0.013020833333333334,78.0859375,0)" xlink:href="#am"/><use transform="matrix(0.013020833333333334,0,0,0.013020833333333334,93.81510416666667,0)" xlink:href="#as"/></g><g id="j"><use transform="matrix(0.013020833333333334,0,0,0.013020833333333334,0,0)" xlink:href="#aF"/><use transform="matrix(0.013020833333333334,0,0,0.013020833333333334,15.078125,0)" xlink:href="#ao"/><use transform="matrix(0.013020833333333334,0,0,0.013020833333333334,31.4453125,0)" xlink:href="#au"/><use transform="matrix(0.013020833333333334,0,0,0.013020833333333334,46.3671875,0)" xlink:href="#au"/></g><g id="k"><use transform="matrix(0.013020833333333334,0,0,0.013020833333333334,0,0)" xlink:href="#aE"/><use transform="matrix(0.013020833333333334,0,0,0.013020833333333334,10.052083333333334,0)" xlink:href="#ah"/><use transform="matrix(0.013020833333333334,0,0,0.013020833333333334,29.778645833333336,0)" xlink:href="#ao"/><use transform="matrix(0.013020833333333334,0,0,0.013020833333333334,46.145833333333336,0)" xlink:href="#aI"/><use transform="matrix(0.013020833333333334,0,0,0.013020833333333334,62.473958333333336,0)" xlink:href="#aJ"/><use transform="matrix(0.013020833333333334,0,0,0.013020833333333334,78.52864583333334,0)" xlink:href="#ah"/><use transform="matrix(0.013020833333333334,0,0,0.013020833333333334,98.25520833333334,0)" xlink:href="#ai"/><use transform="matrix(0.013020833333333334,0,0,0.013020833333333334,114.85677083333334,0)" xlink:href="#aG"/><use transform="matrix(0.013020833333333334,0,0,0.013020833333333334,131.6796875,0)" xlink:href="#an"/><use transform="matrix(0.013020833333333334,0,0,0.013020833333333334,148.28125,0)" xlink:href="#al"/><use transform="matrix(0.013020833333333334,0,0,0.013020833333333334,165.13020833333334,0)" xlink:href="#am"/><use transform="matrix(0.013020833333333334,0,0,0.013020833333333334,180.52083333333334,0)" xlink:href="#aH"/></g><path fill="#094d71" d="M75-1237v-253h1217v253H837V0H531v-1237H75" id="aN"/><path fill="#094d71" d="M135 0v-1490h581c339 0 533 210 533 503 0 295-197 500-540 500H440V0H135zm305-733h220c186 0 274-104 274-254s-88-251-275-251H440v505" id="aO"/><path fill="#094d71" d="M664 20c-306 0-529-183-535-438h297c6 117 110 196 238 196 149 0 255-108 255-266 0-159-108-270-261-270-89 0-178 39-224 98l-274-48 72-782h901v252H485l-39 377h8c53-72 165-124 294-124 269 0 467 204 467 490 0 300-224 515-551 515" id="aP"/><path fill="#094d71" d="M659 20C335 20 103-159 99-418h307c5 112 113 185 254 185 147 0 250-83 250-204 0-123-105-209-278-209H494v-227h138c145 0 246-81 246-200 0-115-87-193-216-193-130 0-237 73-240 189H128c4-255 233-433 536-433 306 0 510 185 510 418 0 167-114 285-279 317v11c217 29 333 162 333 347 0 254-237 437-569 437" id="aQ"/><g id="l"><use transform="matrix(0.013020833333333334,0,0,0.013020833333333334,0,0)" xlink:href="#aN"/><use transform="matrix(0.013020833333333334,0,0,0.013020833333333334,17.799479166666668,0)" xlink:href="#aO"/><use transform="matrix(0.013020833333333334,0,0,0.013020833333333334,35.078125,0)" xlink:href="#aP"/><use transform="matrix(0.013020833333333334,0,0,0.013020833333333334,52.122395833333336,0)" xlink:href="#aQ"/></g><path fill="#094d71" d="M795 20C377 20 94-272 94-743c0-483 302-767 694-767 335 0 593 206 635 500h-310c-42-142-154-229-320-229-230 0-389 177-389 493s154 495 393 495c212 0 340-120 345-311H818v-232h620v186c0 391-269 628-643 628" id="aR"/><path fill="#094d71" d="M633 22C291 22 81-200 81-553c0-345 210-579 537-579 292 0 525 185 525 567v84H378c7 183 109 277 260 277 105 0 184-46 216-132l272 51C1071-99 893 22 633 22zM380-669h474c-15-146-94-237-233-237-143 0-229 99-241 237" id="aS"/><path fill="#094d71" d="M428-647V0H128v-1118h283l4 231c63-156 176-245 348-245 232 0 384 159 384 421V0H847v-659c0-139-76-222-202-222-128 0-217 86-217 234" id="aT"/><g id="m"><use transform="matrix(0.013020833333333334,0,0,0.013020833333333334,0,0)" xlink:href="#aR"/><use transform="matrix(0.013020833333333334,0,0,0.013020833333333334,20.013020833333336,0)" xlink:href="#aS"/><use transform="matrix(0.013020833333333334,0,0,0.013020833333333334,35.8984375,0)" xlink:href="#aT"/><use transform="matrix(0.013020833333333334,0,0,0.013020833333333334,52.5,0)" xlink:href="#aS"/></g><path fill="#094d71" d="M169-607c0-330 107-732 258-974h279c-145 311-231 674-231 974 0 262 67 512 231 886H427C258-1 169-307 169-607" id="aU"/><path fill="#094d71" d="M135 0v-1490h581c339 0 533 192 533 485 0 204-94 351-264 424L1302 0H964L680-532H440V0H135zm305-779h220c186 0 274-77 274-226 0-150-88-233-275-233H440v459" id="aV"/><path fill="#094d71" d="M625 442c-280 0-454-114-503-274l258-72c28 63 97 128 243 128 153 0 246-69 246-216v-206h-23C805-108 717-16 536-16 284-16 81-191 81-561c0-378 208-571 456-571 188 0 280 113 321 202h13v-188h295V-9c0 303-226 451-541 451zm5-686c153 0 240-119 240-319 0-198-86-329-240-329-158 0-241 137-241 329 0 195 85 319 241 319" id="aW"/><path fill="#094d71" d="M128 0v-1118h300V0H128zm150-1264c-91 0-165-68-165-154 0-85 74-154 165-154 90 0 165 69 165 154 0 86-75 154-165 154" id="aX"/><path fill="#094d71" d="M628 22C291 22 81-210 81-554c0-346 210-578 547-578 336 0 547 232 547 578 0 344-211 576-547 576zm0-236c160 0 242-146 242-341 0-197-82-341-242-341S387-753 387-555c0 195 81 341 241 341" id="aY"/><path fill="#094d71" d="M67 279c166-379 230-627 230-886 0-300-86-663-230-974h278c151 241 258 644 258 974 0 302-90 608-258 886H67" id="aZ"/><g id="n"><use transform="matrix(0.013020833333333334,0,0,0.013020833333333334,0,0)" xlink:href="#aU"/><use transform="matrix(0.013020833333333334,0,0,0.013020833333333334,10.533854166666668,0)" xlink:href="#aV"/><use transform="matrix(0.013020833333333334,0,0,0.013020833333333334,27.721354166666675,0)" xlink:href="#aS"/><use transform="matrix(0.013020833333333334,0,0,0.013020833333333334,43.60677083333334,0)" xlink:href="#aW"/><use transform="matrix(0.013020833333333334,0,0,0.013020833333333334,60.45572916666668,0)" xlink:href="#aX"/><use transform="matrix(0.013020833333333334,0,0,0.013020833333333334,67.68229166666669,0)" xlink:href="#aY"/><use transform="matrix(0.013020833333333334,0,0,0.013020833333333334,84.03645833333336,0)" xlink:href="#aT"/><use transform="matrix(0.013020833333333334,0,0,0.013020833333333334,100.63802083333336,0)" xlink:href="#aZ"/></g><path fill="#dd3303" d="M188-1237l42-253h1217l-42 253H950L745 0H439l205-1237H188" id="ba"/><path fill="#dd3303" d="M42 0l247-1490h581c338 0 498 208 449 502-48 295-279 501-622 501H428L347 0H42zm427-733h220c188 0 291-107 316-254 24-150-46-251-234-251H552" id="bb"/><path fill="#dd3303" d="M577 20C271 20 69-163 105-418h298c-14 116 68 196 196 196 148 0 282-107 308-267s-58-269-208-269c-88 0-193 38-249 98l-266-48 202-782h902l-42 252H597L496-861h8c65-72 177-124 305-124 269 0 443 204 395 490-50 300-300 515-627 515" id="bc"/><path fill="#dd3303" d="M572 20C248 20 37-159 76-418h307c-13 112 82 185 223 185 146 0 264-82 284-203 21-124-71-210-243-210H509l38-227h138c143 0 258-80 278-200 19-115-54-193-183-193-132 0-250 74-272 189H214c46-255 298-433 600-433 305 0 487 185 448 418-27 168-161 285-332 317l-1 11c213 29 306 163 275 347-42 255-302 437-632 437" id="bd"/><g id="o"><use transform="matrix(0.015190972222222224,0,0,0.015190972222222224,0,0)" xlink:href="#ba"/><use transform="matrix(0.015190972222222224,0,0,0.015190972222222224,20.781250000000004,0)" xlink:href="#bb"/><use transform="matrix(0.015190972222222224,0,0,0.015190972222222224,40.93967013888889,0)" xlink:href="#bc"/><use transform="matrix(0.015190972222222224,0,0,0.015190972222222224,60.80946180555556,0)" xlink:href="#bd"/></g><path fill="#dd3303" d="M707 20c-356 0-594-221-594-608 0-485 317-922 814-922 343 0 581 191 570 529h-309c-1-161-104-258-267-258-326 0-501 341-501 649 0 224 118 339 304 339 179 0 331-97 388-259h309c-81 277-347 530-714 530" id="be"/><path fill="#dd3303" d="M42 0l247-1490h338l345 754c42 94 88 210 128 373 38-422 109-737 168-1127h312L1333 0H995C826-390 654-682 519-1121 476-661 417-410 354 0H42" id="bf"/><path fill="#dd3303" d="M42 0l247-1490h305L389-253h642L990 0H42" id="bg"/><path fill="#dd3303" d="M549 22C246 22 73-162 73-445c0-359 234-687 634-687 301 0 475 184 475 467 0 360-234 687-633 687zm10-236c223 0 322-274 322-459 0-134-61-223-185-223-223 0-322 271-322 458 0 133 61 224 185 224" id="bh"/><path fill="#dd3303" d="M490 22C212 20 43-104 37-315l281-29c11 104 65 146 186 146 109 0 214-47 222-128 5-51-29-84-119-104l-186-40c-195-42-289-149-277-303 14-232 242-359 510-359 274 2 415 119 430 308l-267 27c-11-76-56-120-162-120-98 0-203 45-211 128-6 50 24 83 118 104l194 40c196 41 291 138 279 289-15 238-265 378-545 378" id="bi"/><g id="p"><use transform="matrix(0.015190972222222224,0,0,0.015190972222222224,0,0)" xlink:href="#be"/><use transform="matrix(0.015190972222222224,0,0,0.015190972222222224,23.014322916666668,0)" xlink:href="#bf"/><use transform="matrix(0.015190972222222224,0,0,0.015190972222222224,46.72743055555556,0)" xlink:href="#bg"/><use transform="matrix(0.015190972222222224,0,0,0.015190972222222224,64.31857638888889,0)" xlink:href="#bh"/><use transform="matrix(0.015190972222222224,0,0,0.015190972222222224,83.41362847222223,0)" xlink:href="#bi"/><use transform="matrix(0.015190972222222224,0,0,0.015190972222222224,100.8224826388889,0)" xlink:href="#bi"/></g><path fill="#094d71" d="M232-923l-22-567h194l-22 567H232zm340 0l-22-567h194l-22 567H572" id="bj"/><g id="s"><use transform="matrix(0.015190972222222224,0,0,0.015190972222222224,0,0)" xlink:href="#bj"/><use transform="matrix(0.015190972222222224,0,0,0.015190972222222224,14.492187500000002,0)" xlink:href="#ba"/><use transform="matrix(0.015190972222222224,0,0,0.015190972222222224,35.27343750000001,0)" xlink:href="#bb"/><use transform="matrix(0.015190972222222224,0,0,0.015190972222222224,55.4318576388889,0)" xlink:href="#bc"/><use transform="matrix(0.015190972222222224,0,0,0.015190972222222224,75.30164930555557,0)" xlink:href="#bd"/></g><path fill="#dd3303" d="M786 20C389 20 94-260 94-744c0-487 299-766 692-766 339 0 597 194 641 529h-309c-28-162-156-258-326-258-233 0-388 179-388 495 0 323 157 493 387 493 170 0 298-97 328-259h309c-34 277-266 530-642 530" id="bk"/><path fill="#dd3303" d="M135 0v-1490h340l471 754c59 97 122 210 187 365-32-387-14-721-19-1119h312V0h-341C855-382 627-689 427-1113c32 420 16 695 20 1113H135" id="bl"/><path fill="#dd3303" d="M135 0v-1490h305v1237h643V0H135" id="bm"/><path fill="#dd3303" d="M628 22C291 22 81-210 81-554c0-346 210-578 547-578 336 0 547 232 547 578 0 344-211 576-547 576zm0-236c160 0 242-146 242-341 0-197-82-341-242-341S387-753 387-555c0 195 81 341 241 341" id="bn"/><path fill="#dd3303" d="M572 22C302 22 117-98 78-306l279-48c29 105 101 156 224 156 114 0 185-48 185-115 0-118-228-130-337-155-215-49-322-150-322-317 0-215 187-347 470-347 265 0 424 116 466 298l-266 47c-24-76-87-130-196-130-98 0-174 46-174 113 0 56 38 95 144 117l201 40c216 44 320 143 320 302 0 220-207 367-500 367" id="bo"/><g id="t"><use transform="matrix(0.015190972222222224,0,0,0.015190972222222224,0,0)" xlink:href="#bk"/><use transform="matrix(0.015190972222222224,0,0,0.015190972222222224,23.014322916666668,0)" xlink:href="#bl"/><use transform="matrix(0.015190972222222224,0,0,0.015190972222222224,46.72743055555556,0)" xlink:href="#bm"/><use transform="matrix(0.015190972222222224,0,0,0.015190972222222224,64.31857638888889,0)" xlink:href="#bn"/><use transform="matrix(0.015190972222222224,0,0,0.015190972222222224,83.3984375,0)" xlink:href="#bo"/><use transform="matrix(0.015190972222222224,0,0,0.015190972222222224,100.82248263888889,0)" xlink:href="#bo"/><use transform="matrix(0.015190972222222224,0,0,0.015190972222222224,118.24652777777777,0)" xlink:href="#bj"/></g><path fill="#094d71" d="M613 24c-304 0-509-231-509-576 0-350 205-580 509-580 216 0 392 114 453 309l-173 49c-33-115-133-197-280-197-223 0-326 196-326 419 0 220 103 415 326 415 150 0 252-85 285-206l172 49C1010-95 832 24 613 24" id="bp"/><path fill="#094d71" d="M613 24c-304 0-509-231-509-576 0-350 205-580 509-580 305 0 511 230 511 580 0 345-206 576-511 576zm0-161c226 0 329-195 329-415 0-222-103-419-329-419-223 0-326 196-326 419 0 220 103 415 326 415" id="bq"/><path fill="#094d71" d="M338-670V0H158v-1118h173l1 207c72-158 192-221 342-221 226 0 378 139 378 422V0H872v-695c0-172-96-275-252-275-161 0-282 109-282 300" id="br"/><path fill="#094d71" d="M538 24C308 24 148-78 108-271l171-41c32 123 123 178 257 178 156 0 256-77 256-169 0-77-54-128-164-154l-186-44c-203-48-300-148-300-305 0-192 176-326 414-326 230 0 351 112 402 269l-163 42c-31-80-94-158-238-158-133 0-233 69-233 162 0 83 57 129 188 160l169 40c203 48 298 149 298 302 0 196-179 339-441 339" id="bs"/><path fill="#094d71" d="M598-1118v154H368v674c0 100 37 144 132 144 23 0 62-6 92-12L629-6c-37 13-88 20-134 20-193 0-307-107-307-290v-688H20v-154h168v-266h180v266h230" id="bt"/><path fill="#094d71" d="M158 0v-1118h174v172h12c41-113 157-188 290-188 26 0 70 2 91 3v181c-11-2-60-10-108-10-161 0-279 109-279 260V0H158" id="bu"/><path fill="#094d71" d="M471 26C259 26 90-98 90-318c0-256 228-303 435-329 202-27 287-16 287-108 0-139-79-219-234-219-161 0-248 86-283 164l-173-57c86-203 278-265 451-265 150 0 419 46 419 395V0H815v-152h-12C765-73 660 26 471 26zm31-159c199 0 310-134 310-271v-155c-30 35-226 55-295 64-131 17-246 59-246 186 0 116 97 176 231 176" id="bv"/><path fill="#094d71" d="M158 0v-1118h180V0H158zm91-1301c-68 0-125-53-125-119s57-119 125-119c69 0 126 53 126 119s-57 119-126 119" id="bw"/><path fill="#094d71" d="M295 13c-75 0-135-60-135-135s60-135 135-135 135 60 135 135S370 13 295 13zm0-809c-75 0-135-60-135-135s60-135 135-135 135 60 135 135-60 135-135 135" id="bx"/><g id="u"><use transform="matrix(0.015190972222222224,0,0,0.015190972222222224,0,0)" xlink:href="#bp"/><use transform="matrix(0.015190972222222224,0,0,0.015190972222222224,17.773437500000004,0)" xlink:href="#bq"/><use transform="matrix(0.015190972222222224,0,0,0.015190972222222224,36.42795138888889,0)" xlink:href="#br"/><use transform="matrix(0.015190972222222224,0,0,0.015190972222222224,54.809027777777786,0)" xlink:href="#bs"/><use transform="matrix(0.015190972222222224,0,0,0.015190972222222224,71.23046875000001,0)" xlink:href="#bt"/><use transform="matrix(0.015190972222222224,0,0,0.015190972222222224,81.4084201388889,0)" xlink:href="#bu"/><use transform="matrix(0.015190972222222224,0,0,0.015190972222222224,93.12065972222223,0)" xlink:href="#bv"/><use transform="matrix(0.015190972222222224,0,0,0.015190972222222224,110.59027777777779,0)" xlink:href="#bw"/><use transform="matrix(0.015190972222222224,0,0,0.015190972222222224,118.12500000000001,0)" xlink:href="#br"/><use transform="matrix(0.015190972222222224,0,0,0.015190972222222224,136.5060763888889,0)" xlink:href="#bt"/><use transform="matrix(0.015190972222222224,0,0,0.015190972222222224,146.38020833333334,0)" xlink:href="#bs"/><use transform="matrix(0.015190972222222224,0,0,0.015190972222222224,162.80164930555557,0)" xlink:href="#bx"/></g><path fill="#094d71" d="M135 0v-1490h980v253H440v416h609v249H440V0H135" id="by"/><path fill="#094d71" d="M440 22C227 22 68-92 68-313c0-250 202-322 422-343 195-21 271-24 271-105 0-95-63-149-175-149-116 0-187 57-211 129l-275-46c57-194 237-305 487-305 240 0 474 108 474 379V0H777v-155h-10C713-51 605 22 440 22zm85-211c140 0 238-93 238-211v-121c-37 26-156 42-222 51-111 16-185 59-185 149 0 87 70 132 169 132" id="bz"/><path fill="#094d71" d="M683-1118v229H474v562c0 71 29 104 102 104 23 0 73-7 95-13l43 225C647 9 580 16 520 16 296 16 174-96 174-301v-588H20v-229h154v-266h300v266h209" id="bA"/><path fill="#094d71" d="M513 14c-232 0-385-159-385-421v-711h300v659c0 139 76 222 202 222 127 0 217-86 217-234v-647h301V0H864l-4-232C797-74 683 14 513 14" id="bB"/><path fill="#094d71" d="M128 0v-1118h290v195h12c54-169 184-238 367-200v268c-27-8-86-15-130-15-138 0-239 95-239 234V0H128" id="bC"/><path fill="#094d71" d="M786 20C389 20 94-260 94-744c0-487 299-766 692-766 339 0 597 194 641 529h-309c-28-162-156-258-326-258-233 0-388 179-388 495 0 323 157 493 387 493 170 0 298-97 328-259h309c-34 277-266 530-642 530" id="bD"/><path fill="#094d71" d="M42 0l360-574-338-544h324c72 124 151 261 209 394 58-134 140-271 215-394h318L785-570 1146 0H824c-79-136-169-280-234-425C528-278 439-134 360 0H42" id="bE"/><path fill="#094d71" d="M572 22C302 22 117-98 78-306l279-48c29 105 101 156 224 156 114 0 185-48 185-115 0-118-228-130-337-155-215-49-322-150-322-317 0-215 187-347 470-347 265 0 424 116 466 298l-266 47c-24-76-87-130-196-130-98 0-174 46-174 113 0 56 38 95 144 117l201 40c216 44 320 143 320 302 0 220-207 367-500 367" id="bF"/><g id="w"><use transform="matrix(0.015190972222222224,0,0,0.015190972222222224,0,0)" xlink:href="#by"/><use transform="matrix(0.015190972222222224,0,0,0.015190972222222224,17.363281250000004,0)" xlink:href="#aS"/><use transform="matrix(0.015190972222222224,0,0,0.015190972222222224,36.20008680555556,0)" xlink:href="#bz"/><use transform="matrix(0.015190972222222224,0,0,0.015190972222222224,54.262152777777786,0)" xlink:href="#bA"/><use transform="matrix(0.015190972222222224,0,0,0.015190972222222224,65.65538194444446,0)" xlink:href="#bB"/><use transform="matrix(0.015190972222222224,0,0,0.015190972222222224,85.0238715277778,0)" xlink:href="#bC"/><use transform="matrix(0.015190972222222224,0,0,0.015190972222222224,96.93359375000001,0)" xlink:href="#aS"/><use transform="matrix(0.015190972222222224,0,0,0.015190972222222224,115.46657986111113,0)" xlink:href="#bD"/><use transform="matrix(0.015190972222222224,0,0,0.015190972222222224,138.4809027777778,0)" xlink:href="#aY"/><use transform="matrix(0.015190972222222224,0,0,0.015190972222222224,157.5607638888889,0)" xlink:href="#aT"/><use transform="matrix(0.015190972222222224,0,0,0.015190972222222224,176.92925347222226,0)" xlink:href="#bA"/><use transform="matrix(0.015190972222222224,0,0,0.015190972222222224,188.01866319444446,0)" xlink:href="#aS"/><use transform="matrix(0.015190972222222224,0,0,0.015190972222222224,205.92881944444446,0)" xlink:href="#bE"/><use transform="matrix(0.015190972222222224,0,0,0.015190972222222224,224.4162326388889,0)" xlink:href="#bA"/><use transform="matrix(0.015190972222222224,0,0,0.015190972222222224,235.80946180555557,0)" xlink:href="#bD"/><use transform="matrix(0.015190972222222224,0,0,0.015190972222222224,258.82378472222223,0)" xlink:href="#aY"/><use transform="matrix(0.015190972222222224,0,0,0.015190972222222224,277.90364583333337,0)" xlink:href="#aT"/><use transform="matrix(0.015190972222222224,0,0,0.015190972222222224,297.2721354166667,0)" xlink:href="#bF"/><use transform="matrix(0.015190972222222224,0,0,0.015190972222222224,314.6961805555556,0)" xlink:href="#bA"/><use transform="matrix(0.015190972222222224,0,0,0.015190972222222224,326.0894097222223,0)" xlink:href="#bC"/><use transform="matrix(0.015190972222222224,0,0,0.015190972222222224,338.33333333333337,0)" xlink:href="#bz"/><use transform="matrix(0.015190972222222224,0,0,0.015190972222222224,356.3953993055556,0)" xlink:href="#aX"/><use transform="matrix(0.015190972222222224,0,0,0.015190972222222224,364.8263888888889,0)" xlink:href="#aT"/><use transform="matrix(0.015190972222222224,0,0,0.015190972222222224,384.19487847222223,0)" xlink:href="#bA"/><use transform="matrix(0.015190972222222224,0,0,0.015190972222222224,395.5881076388889,0)" xlink:href="#bx"/></g><path fill="#094d71" d="M678-1118v154H420V0H240v-964H20v-154h220v-149c0-194 155-293 318-293 85 0 141 18 168 30l-50 154c-19-6-47-17-97-17-111 0-159 58-159 166v109h258" id="bG"/><path fill="#094d71" d="M628 24c-324 0-524-230-524-574 0-343 198-582 503-582 237 0 487 146 487 559v75H286c9 234 145 362 343 362 132 0 231-58 273-172l174 48C1024-91 857 24 628 24zM287-650h624c-17-190-120-322-304-322-192 0-309 151-320 322" id="bH"/><path fill="#094d71" d="M537 14c-226 0-379-139-379-422v-710h180v695c0 172 97 275 253 275 160 0 281-109 281-300v-670h181V0H879v-209C806-46 684 14 537 14" id="bI"/><path fill="#094d71" d="M783 20c-382 0-661-292-661-764 0-473 279-766 661-766 302 0 548 182 601 489h-190c-42-204-217-313-411-313-268 0-476 208-476 590 0 381 209 588 476 588 195 0 369-110 411-313h190c-52 303-296 489-601 489" id="bJ"/><path fill="#094d71" d="M65 0l393-574-370-544h210c88 136 192 297 267 435 67-142 176-302 264-435h206L661-564 1053 0H844c-94-144-206-310-287-458C484-308 366-142 273 0H65" id="bK"/><g id="y"><use transform="matrix(0.015190972222222224,0,0,0.015190972222222224,0,0)" xlink:href="#bG"/><use transform="matrix(0.015190972222222224,0,0,0.015190972222222224,10.603298611111112,0)" xlink:href="#bH"/><use transform="matrix(0.015190972222222224,0,0,0.015190972222222224,29.045138888888893,0)" xlink:href="#bv"/><use transform="matrix(0.015190972222222224,0,0,0.015190972222222224,46.51475694444445,0)" xlink:href="#bt"/><use transform="matrix(0.015190972222222224,0,0,0.015190972222222224,56.69270833333334,0)" xlink:href="#bI"/><use transform="matrix(0.015190972222222224,0,0,0.015190972222222224,75.08897569444446,0)" xlink:href="#bu"/><use transform="matrix(0.015190972222222224,0,0,0.015190972222222224,86.28472222222223,0)" xlink:href="#bH"/><use transform="matrix(0.015190972222222224,0,0,0.015190972222222224,104.42274305555557,0)" xlink:href="#bJ"/><use transform="matrix(0.015190972222222224,0,0,0.015190972222222224,127.14843750000001,0)" xlink:href="#bq"/><use transform="matrix(0.015190972222222224,0,0,0.015190972222222224,145.8029513888889,0)" xlink:href="#br"/><use transform="matrix(0.015190972222222224,0,0,0.015190972222222224,164.1840277777778,0)" xlink:href="#bt"/><use transform="matrix(0.015190972222222224,0,0,0.015190972222222224,174.05815972222223,0)" xlink:href="#bH"/><use transform="matrix(0.015190972222222224,0,0,0.015190972222222224,191.49739583333334,0)" xlink:href="#bK"/><use transform="matrix(0.015190972222222224,0,0,0.015190972222222224,209.08854166666669,0)" xlink:href="#bt"/><use transform="matrix(0.015190972222222224,0,0,0.015190972222222224,219.26649305555557,0)" xlink:href="#bx"/></g><path fill="#094d71" d="M292-923l72-567h194L443-923H292zm340 0l72-567h194L783-923H632" id="bL"/><path fill="#094d71" d="M188-1237l42-253h1217l-42 253H950L745 0H439l205-1237H188" id="bM"/><path fill="#094d71" d="M42 0l247-1490h581c338 0 498 208 449 502-48 295-279 501-622 501H428L347 0H42zm427-733h220c188 0 291-107 316-254 24-150-46-251-234-251H552" id="bN"/><path fill="#094d71" d="M577 20C271 20 69-163 105-418h298c-14 116 68 196 196 196 148 0 282-107 308-267s-58-269-208-269c-88 0-193 38-249 98l-266-48 202-782h902l-42 252H597L496-861h8c65-72 177-124 305-124 269 0 443 204 395 490-50 300-300 515-627 515" id="bO"/><g id="B"><use transform="matrix(0.015190972222222224,0,0,0.015190972222222224,0,0)" xlink:href="#bL"/><use transform="matrix(0.015190972222222224,0,0,0.015190972222222224,14.492187500000002,0)" xlink:href="#bM"/><use transform="matrix(0.015190972222222224,0,0,0.015190972222222224,35.27343750000001,0)" xlink:href="#bN"/><use transform="matrix(0.015190972222222224,0,0,0.015190972222222224,55.4318576388889,0)" xlink:href="#bO"/><use transform="matrix(0.015190972222222224,0,0,0.015190972222222224,75.30164930555557,0)" xlink:href="#aj"/><use transform="matrix(0.015190972222222224,0,0,0.015190972222222224,95.38411458333334,0)" xlink:href="#bj"/></g><path fill="#094d71" d="M180 0v-1490h510c348 0 508 209 508 474 0 266-160 477-507 477H370V0H180zm190-706h312c236 0 327-133 327-310 0-176-91-307-329-307H370v617" id="bP"/><path fill="#094d71" d="M158 0v-1118h175l1 205c55-151 181-225 313-225 147 0 245 90 285 228 53-141 190-228 352-228 194 0 352 125 352 384V0h-181v-749c0-161-105-225-225-225-151 0-243 103-243 244V0H807v-767c0-124-93-207-219-207-131 0-250 92-250 270V0H158" id="bQ"/><path fill="#094d71" d="M140 405l46-156c120 36 205 19 263-150l32-93L54-1118h197c107 313 237 620 324 950 87-331 219-637 326-950h196L606 167c-68 178-176 259-334 259-64 0-113-12-132-21" id="bR"/><path fill="#094d71" d="M577 24c-279 0-473-224-473-580 0-354 195-576 474-576 218 0 287 134 324 193h14v-551h180V0H922v-173h-20C865-111 790 24 577 24zm27-161c203 0 314-172 314-421 0-247-108-413-314-413-212 0-317 181-317 413 0 235 108 421 317 421" id="bS"/><path fill="#094d71" d="M611 442c-248 0-391-105-460-228l146-94c47 65 117 165 314 165 178 0 307-82 307-266v-224h-17C863-141 792-18 576-18c-268 0-472-195-472-546 0-346 197-568 476-568 216 0 288 133 326 193h17v-179h175V29c0 289-215 413-487 413zm-5-620c203 0 314-146 314-390 0-237-108-403-314-403-213 0-319 180-319 403 0 230 109 390 319 390" id="bT"/><g id="D"><use transform="matrix(0.015190972222222224,0,0,0.015190972222222224,0,0)" xlink:href="#bP"/><use transform="matrix(0.015190972222222224,0,0,0.015190972222222224,19.869791666666668,0)" xlink:href="#bu"/><use transform="matrix(0.015190972222222224,0,0,0.015190972222222224,32.068142361111114,0)" xlink:href="#bw"/><use transform="matrix(0.015190972222222224,0,0,0.015190972222222224,39.602864583333336,0)" xlink:href="#bQ"/><use transform="matrix(0.015190972222222224,0,0,0.015190972222222224,66.85546875,0)" xlink:href="#bv"/><use transform="matrix(0.015190972222222224,0,0,0.015190972222222224,84.32508680555556,0)" xlink:href="#bu"/><use transform="matrix(0.015190972222222224,0,0,0.015190972222222224,96.5234375,0)" xlink:href="#bR"/><use transform="matrix(0.015190972222222224,0,0,0.015190972222222224,114.00824652777777,0)" xlink:href="#bJ"/><use transform="matrix(0.015190972222222224,0,0,0.015190972222222224,136.73394097222223,0)" xlink:href="#bq"/><use transform="matrix(0.015190972222222224,0,0,0.015190972222222224,155.38845486111111,0)" xlink:href="#bS"/><use transform="matrix(0.015190972222222224,0,0,0.015190972222222224,174.43793402777777,0)" xlink:href="#bw"/><use transform="matrix(0.015190972222222224,0,0,0.015190972222222224,181.97265625,0)" xlink:href="#br"/><use transform="matrix(0.015190972222222224,0,0,0.015190972222222224,200.35373263888889,0)" xlink:href="#bT"/><use transform="matrix(0.015190972222222224,0,0,0.015190972222222224,219.43359375,0)" xlink:href="#bx"/></g><g id="F"><use transform="matrix(0.015190972222222224,0,0,0.015190972222222224,0,0)" xlink:href="#bp"/><use transform="matrix(0.015190972222222224,0,0,0.015190972222222224,17.773437500000004,0)" xlink:href="#bq"/><use transform="matrix(0.015190972222222224,0,0,0.015190972222222224,36.42795138888889,0)" xlink:href="#bS"/><use transform="matrix(0.015190972222222224,0,0,0.015190972222222224,55.47743055555556,0)" xlink:href="#bw"/><use transform="matrix(0.015190972222222224,0,0,0.015190972222222224,63.012152777777786,0)" xlink:href="#br"/><use transform="matrix(0.015190972222222224,0,0,0.015190972222222224,81.39322916666667,0)" xlink:href="#bT"/><use transform="matrix(0.015190972222222224,0,0,0.015190972222222224,100.47309027777779,0)" xlink:href="#bx"/></g><path fill="#094d71" d="M690 20C314 20 94-261 94-744c0-482 221-766 596-766 376 0 597 284 597 766 0 483-219 764-597 764zm0-253c184 0 286-184 286-511 0-328-102-514-286-514-183 0-285 187-285 514s101 511 285 511" id="bU"/><path fill="#094d71" d="M101-265v-241l623-984h383v979h186v246h-186V0H814v-265H101zm719-246v-643h-12L409-523v12h411" id="bV"/><path fill="#094d71" d="M684 20C381 20 94-164 94-710c0-501 235-800 601-800 293 0 496 188 526 433H921c-25-105-108-170-226-170-197 0-301 182-301 476h10c67-130 211-208 374-208 263 0 459 201 459 481 0 301-224 518-553 518zm-2-242c147 0 258-116 258-268 0-150-108-266-256-266-146 0-259 121-259 267 0 147 109 267 257 267" id="bW"/><path fill="#094d71" d="M177 0l620-1228v-10H75v-252h1041v256L494 0H177" id="bX"/><g id="G"><use transform="matrix(0.015190972222222224,0,0,0.015190972222222224,0,0)" xlink:href="#aO"/><use transform="matrix(0.015190972222222224,0,0,0.015190972222222224,20.15842013888889,0)" xlink:href="#bU"/><use transform="matrix(0.015190972222222224,0,0,0.015190972222222224,41.13715277777778,0)" xlink:href="#bV"/><use transform="matrix(0.015190972222222224,0,0,0.015190972222222224,62.17664930555556,0)" xlink:href="#bW"/><use transform="matrix(0.015190972222222224,0,0,0.015190972222222224,82.38064236111111,0)" xlink:href="#aQ"/><use transform="matrix(0.015190972222222224,0,0,0.015190972222222224,102.46310763888889,0)" xlink:href="#bX"/></g><path fill="#094d71" d="M338-1490V0H158v-1490h180" id="bY"/><g id="H"><use transform="matrix(0.015190972222222224,0,0,0.015190972222222224,0,0)" xlink:href="#bu"/><use transform="matrix(0.015190972222222224,0,0,0.015190972222222224,11.195746527777779,0)" xlink:href="#bH"/><use transform="matrix(0.015190972222222224,0,0,0.015190972222222224,29.333767361111114,0)" xlink:href="#bY"/><use transform="matrix(0.015190972222222224,0,0,0.015190972222222224,36.868489583333336,0)" xlink:href="#bv"/><use transform="matrix(0.015190972222222224,0,0,0.015190972222222224,54.33810763888889,0)" xlink:href="#bt"/><use transform="matrix(0.015190972222222224,0,0,0.015190972222222224,64.51605902777779,0)" xlink:href="#bw"/><use transform="matrix(0.015190972222222224,0,0,0.015190972222222224,72.05078125000001,0)" xlink:href="#bq"/><use transform="matrix(0.015190972222222224,0,0,0.015190972222222224,90.7052951388889,0)" xlink:href="#br"/><use transform="matrix(0.015190972222222224,0,0,0.015190972222222224,109.08637152777779,0)" xlink:href="#bx"/></g><path fill="#094d71" d="M628 22C291 22 81-210 81-554c0-346 210-578 547-578 265 0 455 142 497 372l-279 52c-25-116-99-188-215-188-160 0-244 139-244 341 0 200 84 341 244 341 116 0 193-74 217-195l279 51C1085-123 896 22 628 22" id="bZ"/><path fill="#094d71" d="M135 0v-1490h468l242 684c30 94 76 293 111 455 34-161 80-360 110-455l238-684h470V0h-307c0-447-3-765 11-1227-122 503-246 788-395 1227H826C676-435 552-717 427-1215c15 453 11 775 11 1215H135" id="ca"/><path fill="#094d71" d="M428-647V0H128v-1490h294v586c65-146 175-228 341-228 232 0 385 159 385 421V0H847v-659c0-139-76-222-202-222-128 0-217 86-217 234" id="cb"/><g id="I"><use transform="matrix(0.015190972222222224,0,0,0.015190972222222224,0,0)" xlink:href="#bj"/><use transform="matrix(0.015190972222222224,0,0,0.015190972222222224,14.492187500000002,0)" xlink:href="#aS"/><use transform="matrix(0.015190972222222224,0,0,0.015190972222222224,32.40234375000001,0)" xlink:href="#bE"/><use transform="matrix(0.015190972222222224,0,0,0.015190972222222224,50.38845486111113,0)" xlink:href="#bz"/><use transform="matrix(0.015190972222222224,0,0,0.015190972222222224,68.45052083333336,0)" xlink:href="#bZ"/><use transform="matrix(0.015190972222222224,0,0,0.015190972222222224,86.75564236111114,0)" xlink:href="#bA"/><use transform="matrix(0.015190972222222224,0,0,0.015190972222222224,98.22482638888893,0)" xlink:href="#ca"/><use transform="matrix(0.015190972222222224,0,0,0.015190972222222224,127.20920138888893,0)" xlink:href="#bz"/><use transform="matrix(0.015190972222222224,0,0,0.015190972222222224,145.27126736111114,0)" xlink:href="#bA"/><use transform="matrix(0.015190972222222224,0,0,0.015190972222222224,156.36067708333334,0)" xlink:href="#bZ"/><use transform="matrix(0.015190972222222224,0,0,0.015190972222222224,174.66579861111111,0)" xlink:href="#cb"/><use transform="matrix(0.015190972222222224,0,0,0.015190972222222224,194.03428819444446,0)" xlink:href="#bj"/></g><path fill="#094d71" d="M659 0H135v-1490h529c448 0 721 280 721 744 0 466-273 746-726 746zM440-263h204c287 0 437-148 437-483 0-333-150-481-435-481H440v964" id="cc"/><path fill="#094d71" d="M750-1118v229H516V0H217v-889H20v-229h197v-86c0-238 156-356 363-356 94 0 178 20 215 31l-54 226c-25-7-61-15-100-15-123-3-131 84-125 200h234" id="cd"/><path fill="#094d71" d="M135 0v-1490h305v1237h643V0H135" id="ce"/><g id="K"><use transform="matrix(0.015190972222222224,0,0,0.015190972222222224,0,0)" xlink:href="#cc"/><use transform="matrix(0.015190972222222224,0,0,0.015190972222222224,22.467447916666668,0)" xlink:href="#aS"/><use transform="matrix(0.015190972222222224,0,0,0.015190972222222224,41.000434027777786,0)" xlink:href="#cd"/><use transform="matrix(0.015190972222222224,0,0,0.015190972222222224,53.63932291666668,0)" xlink:href="#aX"/><use transform="matrix(0.015190972222222224,0,0,0.015190972222222224,62.070312500000014,0)" xlink:href="#aT"/><use transform="matrix(0.015190972222222224,0,0,0.015190972222222224,81.43880208333334,0)" xlink:href="#aX"/><use transform="matrix(0.015190972222222224,0,0,0.015190972222222224,89.86979166666667,0)" xlink:href="#aT"/><use transform="matrix(0.015190972222222224,0,0,0.015190972222222224,109.23828125,0)" xlink:href="#aW"/><use transform="matrix(0.015190972222222224,0,0,0.015190972222222224,128.89539930555554,0)" xlink:href="#ce"/><use transform="matrix(0.015190972222222224,0,0,0.015190972222222224,146.48654513888889,0)" xlink:href="#aY"/><use transform="matrix(0.015190972222222224,0,0,0.015190972222222224,165.56640625,0)" xlink:href="#bZ"/><use transform="matrix(0.015190972222222224,0,0,0.015190972222222224,184.17534722222223,0)" xlink:href="#bz"/><use transform="matrix(0.015190972222222224,0,0,0.015190972222222224,202.23741319444446,0)" xlink:href="#bA"/><use transform="matrix(0.015190972222222224,0,0,0.015190972222222224,213.63064236111111,0)" xlink:href="#aX"/><use transform="matrix(0.015190972222222224,0,0,0.015190972222222224,222.06163194444446,0)" xlink:href="#aY"/><use transform="matrix(0.015190972222222224,0,0,0.015190972222222224,241.14149305555557,0)" xlink:href="#aT"/><use transform="matrix(0.015190972222222224,0,0,0.015190972222222224,260.5099826388889,0)" xlink:href="#bD"/><use transform="matrix(0.015190972222222224,0,0,0.015190972222222224,283.5243055555556,0)" xlink:href="#aY"/><use transform="matrix(0.015190972222222224,0,0,0.015190972222222224,302.60416666666674,0)" xlink:href="#aT"/><use transform="matrix(0.015190972222222224,0,0,0.015190972222222224,321.97265625000006,0)" xlink:href="#bF"/><use transform="matrix(0.015190972222222224,0,0,0.015190972222222224,339.39670138888897,0)" xlink:href="#bA"/><use transform="matrix(0.015190972222222224,0,0,0.015190972222222224,350.78993055555566,0)" xlink:href="#bC"/><use transform="matrix(0.015190972222222224,0,0,0.015190972222222224,363.03385416666674,0)" xlink:href="#bz"/><use transform="matrix(0.015190972222222224,0,0,0.015190972222222224,381.09592013888897,0)" xlink:href="#aX"/><use transform="matrix(0.015190972222222224,0,0,0.015190972222222224,389.5269097222223,0)" xlink:href="#aT"/><use transform="matrix(0.015190972222222224,0,0,0.015190972222222224,408.8953993055556,0)" xlink:href="#bA"/><use transform="matrix(0.015190972222222224,0,0,0.015190972222222224,420.2886284722223,0)" xlink:href="#bx"/></g><g id="M"><use transform="matrix(0.015190972222222224,0,0,0.015190972222222224,0,0)" xlink:href="#bY"/><use transform="matrix(0.015190972222222224,0,0,0.015190972222222224,7.534722222222223,0)" xlink:href="#bq"/><use transform="matrix(0.015190972222222224,0,0,0.015190972222222224,26.189236111111114,0)" xlink:href="#bp"/><use transform="matrix(0.015190972222222224,0,0,0.015190972222222224,44.26649305555556,0)" xlink:href="#bv"/><use transform="matrix(0.015190972222222224,0,0,0.015190972222222224,61.736111111111114,0)" xlink:href="#bt"/><use transform="matrix(0.015190972222222224,0,0,0.015190972222222224,71.9140625,0)" xlink:href="#bw"/><use transform="matrix(0.015190972222222224,0,0,0.015190972222222224,79.44878472222223,0)" xlink:href="#bq"/><use transform="matrix(0.015190972222222224,0,0,0.015190972222222224,98.10329861111111,0)" xlink:href="#br"/><use transform="matrix(0.015190972222222224,0,0,0.015190972222222224,116.484375,0)" xlink:href="#bx"/></g><g id="N"><use transform="matrix(0.015190972222222224,0,0,0.015190972222222224,0,0)" xlink:href="#bw"/><use transform="matrix(0.015190972222222224,0,0,0.015190972222222224,7.534722222222223,0)" xlink:href="#bS"/><use transform="matrix(0.015190972222222224,0,0,0.015190972222222224,26.584201388888893,0)" xlink:href="#bx"/></g><path fill="#094d71" d="M342-723c-98 0-173-75-173-172s75-172 173-172 173 75 173 172-75 172-173 172zm0 742c-98 0-173-75-173-172s75-172 173-172 173 75 173 172S440 19 342 19" id="cf"/><path fill="#094d71" d="M681 22C323 22 94-145 85-462h297c10 151 131 226 296 226 163 0 271-77 271-190 0-102-95-149-257-189l-164-41c-252-61-403-188-403-405 0-269 236-449 560-449 330 0 546 183 551 445H941c-11-119-106-188-259-188-156 0-244 72-244 172-3 156 226 185 373 221 250 61 445 186 445 436 0 271-213 446-575 446" id="cg"/><path fill="#094d71" d="M342 19c-98 0-173-75-173-172s75-172 173-172 173 75 173 172S440 19 342 19" id="ch"/><path fill="#094d71" d="M636 22c-294 0-497-190-527-437h302c24 106 107 174 225 174 196 0 302-184 302-479h-10c-68 129-211 209-374 209-265 0-460-202-460-482 0-301 224-521 555-519 300 2 588 186 588 731 0 502-235 803-601 803zm11-757c147 0 260-121 260-268 0-144-109-265-258-265-147 0-258 117-258 267 0 151 108 266 256 266" id="ci"/><path fill="#094d71" d="M749-1490V0H444v-1221h-10L93-980v-279l329-231h327" id="cj"/><path fill="#094d71" d="M754 19C571 19 479-89 437-179h-14V0H128v-1490h300v560h9c41-89 129-202 319-202 248 0 453 193 453 575 0 372-197 576-455 576zm-92-241c156 0 240-139 240-336 0-196-83-334-240-334-154 0-241 131-241 334 0 202 88 336 241 336" id="ck"/><g id="O"><use transform="matrix(0.015190972222222224,0,0,0.015190972222222224,0,0)" xlink:href="#bj"/><use transform="matrix(0.015190972222222224,0,0,0.015190972222222224,14.492187500000002,0)" xlink:href="#aW"/><use transform="matrix(0.015190972222222224,0,0,0.015190972222222224,34.14930555555556,0)" xlink:href="#bz"/><use transform="matrix(0.015190972222222224,0,0,0.015190972222222224,52.211371527777786,0)" xlink:href="#bV"/><use transform="matrix(0.015190972222222224,0,0,0.015190972222222224,73.25086805555557,0)" xlink:href="#aW"/><use transform="matrix(0.015190972222222224,0,0,0.015190972222222224,92.90798611111113,0)" xlink:href="#cb"/><use transform="matrix(0.015190972222222224,0,0,0.015190972222222224,112.27647569444446,0)" xlink:href="#cf"/><use transform="matrix(0.015190972222222224,0,0,0.015190972222222224,122.66710069444446,0)" xlink:href="#cg"/><use transform="matrix(0.015190972222222224,0,0,0.015190972222222224,143.03819444444446,0)" xlink:href="#ce"/><use transform="matrix(0.015190972222222224,0,0,0.015190972222222224,160.6293402777778,0)" xlink:href="#ch"/><use transform="matrix(0.015190972222222224,0,0,0.015190972222222224,171.0199652777778,0)" xlink:href="#bB"/><use transform="matrix(0.015190972222222224,0,0,0.015190972222222224,190.38845486111114,0)" xlink:href="#ci"/><use transform="matrix(0.015190972222222224,0,0,0.015190972222222224,210.59244791666669,0)" xlink:href="#aV"/><use transform="matrix(0.015190972222222224,0,0,0.015190972222222224,231.02430555555557,0)" xlink:href="#cj"/><use transform="matrix(0.015190972222222224,0,0,0.015190972222222224,244.4379340277778,0)" xlink:href="#aT"/><use transform="matrix(0.015190972222222224,0,0,0.015190972222222224,263.80642361111114,0)" xlink:href="#ck"/><use transform="matrix(0.015190972222222224,0,0,0.015190972222222224,283.41796875000006,0)" xlink:href="#ch"/><use transform="matrix(0.015190972222222224,0,0,0.015190972222222224,293.80859375000006,0)" xlink:href="#ch"/><use transform="matrix(0.015190972222222224,0,0,0.015190972222222224,304.19921875000006,0)" xlink:href="#ch"/><use transform="matrix(0.015190972222222224,0,0,0.015190972222222224,314.58984375000006,0)" xlink:href="#bj"/></g><g id="P"><use transform="matrix(0.015190972222222224,0,0,0.015190972222222224,0,0)" xlink:href="#bF"/><use transform="matrix(0.015190972222222224,0,0,0.015190972222222224,17.42404513888889,0)" xlink:href="#bA"/><use transform="matrix(0.015190972222222224,0,0,0.015190972222222224,28.96918402777778,0)" xlink:href="#bz"/><use transform="matrix(0.015190972222222224,0,0,0.015190972222222224,47.03125,0)" xlink:href="#bC"/><use transform="matrix(0.015190972222222224,0,0,0.015190972222222224,60.30815972222222,0)" xlink:href="#bA"/><use transform="matrix(0.015190972222222224,0,0,0.015190972222222224,71.70138888888889,0)" xlink:href="#cf"/></g><path fill="#094d71" d="M182 279v-1860h488v228H471V51h199v228H182" id="cl"/><path fill="#094d71" d="M128 359l88-567h206L266 359H128" id="cm"/><g id="Q"><use transform="matrix(0.015190972222222224,0,0,0.015190972222222224,0,0)" xlink:href="#cl"/><use transform="matrix(0.015190972222222224,0,0,0.015190972222222224,11.727430555555557,0)" xlink:href="#br"/><use transform="matrix(0.015190972222222224,0,0,0.015190972222222224,30.108506944444446,0)" xlink:href="#bI"/><use transform="matrix(0.015190972222222224,0,0,0.015190972222222224,48.50477430555556,0)" xlink:href="#bY"/><use transform="matrix(0.015190972222222224,0,0,0.015190972222222224,56.03949652777778,0)" xlink:href="#bY"/><use transform="matrix(0.015190972222222224,0,0,0.015190972222222224,63.57421875000001,0)" xlink:href="#cm"/></g><path fill="#094d71" d="M666 20C332 20 94-158 94-400c0-186 139-340 321-370v-9c-159-33-267-168-267-331 0-230 219-400 518-400 298 0 519 171 519 400 0 163-111 298-266 331v9c177 30 321 184 321 370 0 242-241 420-574 420zm0-226c153 0 255-89 255-218 0-131-108-226-255-226-148 0-255 94-255 226 0 128 101 218 255 218zm0-668c127 0 220-84 220-203s-90-200-220-200-220 80-220 200c0 119 92 203 220 203" id="cn"/><path fill="#094d71" d="M124 0v-220l528-495c135-132 210-216 210-336 0-133-98-215-231-215-139 0-229 88-229 233H110c0-290 214-477 523-477 315 0 525 182 525 440 0 167-80 305-385 586L548-262v11h630V0H124" id="co"/><path fill="#094d71" d="M102 279V51h199v-1404H102v-228h489V279H102" id="cp"/><g id="R"><use transform="matrix(0.015190972222222224,0,0,0.015190972222222224,0,0)" xlink:href="#bX"/><use transform="matrix(0.015190972222222224,0,0,0.015190972222222224,17.606336805555557,0)" xlink:href="#bW"/><use transform="matrix(0.015190972222222224,0,0,0.015190972222222224,37.810329861111114,0)" xlink:href="#bW"/><use transform="matrix(0.015190972222222224,0,0,0.015190972222222224,58.01432291666667,0)" xlink:href="#cn"/><use transform="matrix(0.015190972222222224,0,0,0.015190972222222224,78.2638888888889,0)" xlink:href="#bV"/><use transform="matrix(0.015190972222222224,0,0,0.015190972222222224,99.30338541666669,0)" xlink:href="#co"/><use transform="matrix(0.015190972222222224,0,0,0.015190972222222224,118.89973958333336,0)" xlink:href="#bU"/><use transform="matrix(0.015190972222222224,0,0,0.015190972222222224,139.87847222222226,0)" xlink:href="#cp"/></g><path fill="#094d71" d="M537 19C279 19 81-185 81-557c0-382 206-575 454-575 190 0 278 113 318 202h10v-560h300V0H868v-179h-15C812-89 719 19 537 19zm92-241c153 0 240-134 240-336 0-203-86-334-240-334-158 0-240 138-240 334 0 197 84 336 240 336" id="cq"/><g id="S"><use transform="matrix(0.015190972222222224,0,0,0.015190972222222224,0,0)" xlink:href="#aS"/><use transform="matrix(0.015190972222222224,0,0,0.015190972222222224,18.532986111111114,0)" xlink:href="#aT"/><use transform="matrix(0.015190972222222224,0,0,0.015190972222222224,37.90147569444445,0)" xlink:href="#cq"/><use transform="matrix(0.015190972222222224,0,0,0.015190972222222224,57.51302083333334,0)" xlink:href="#cf"/></g><g id="T"><use transform="matrix(0.015190972222222224,0,0,0.015190972222222224,0,0)" xlink:href="#cl"/><use transform="matrix(0.015190972222222224,0,0,0.015190972222222224,11.727430555555557,0)" xlink:href="#bX"/><use transform="matrix(0.015190972222222224,0,0,0.015190972222222224,29.333767361111114,0)" xlink:href="#bW"/><use transform="matrix(0.015190972222222224,0,0,0.015190972222222224,49.53776041666667,0)" xlink:href="#cn"/><use transform="matrix(0.015190972222222224,0,0,0.015190972222222224,69.7873263888889,0)" xlink:href="#bX"/><use transform="matrix(0.015190972222222224,0,0,0.015190972222222224,86.07204861111113,0)" xlink:href="#bV"/><use transform="matrix(0.015190972222222224,0,0,0.015190972222222224,107.11154513888891,0)" xlink:href="#ci"/><use transform="matrix(0.015190972222222224,0,0,0.015190972222222224,127.31553819444449,0)" xlink:href="#bU"/><use transform="matrix(0.015190972222222224,0,0,0.015190972222222224,148.29427083333337,0)" xlink:href="#cm"/></g><g id="U"><use transform="matrix(0.015190972222222224,0,0,0.015190972222222224,0,0)" xlink:href="#br"/><use transform="matrix(0.015190972222222224,0,0,0.015190972222222224,18.38107638888889,0)" xlink:href="#bI"/><use transform="matrix(0.015190972222222224,0,0,0.015190972222222224,36.77734375,0)" xlink:href="#bY"/><use transform="matrix(0.015190972222222224,0,0,0.015190972222222224,44.31206597222222,0)" xlink:href="#bY"/><use transform="matrix(0.015190972222222224,0,0,0.015190972222222224,51.84678819444444,0)" xlink:href="#cp"/></g><path fill="#094d71" d="M338-670V0H158v-1490h180v566c73-149 190-208 336-208 226 0 379 139 379 422V0H872v-695c0-172-96-275-252-275-161 0-282 109-282 300" id="cr"/><g id="V"><use transform="matrix(0.015190972222222224,0,0,0.015190972222222224,0,0)" xlink:href="#bQ"/><use transform="matrix(0.015190972222222224,0,0,0.015190972222222224,27.252604166666668,0)" xlink:href="#bv"/><use transform="matrix(0.015190972222222224,0,0,0.015190972222222224,44.72222222222223,0)" xlink:href="#bt"/><use transform="matrix(0.015190972222222224,0,0,0.015190972222222224,54.59635416666667,0)" xlink:href="#bp"/><use transform="matrix(0.015190972222222224,0,0,0.015190972222222224,72.36979166666667,0)" xlink:href="#cr"/><use transform="matrix(0.015190972222222224,0,0,0.015190972222222224,90.76605902777779,0)" xlink:href="#bJ"/><use transform="matrix(0.015190972222222224,0,0,0.015190972222222224,113.49175347222223,0)" xlink:href="#cr"/><use transform="matrix(0.015190972222222224,0,0,0.015190972222222224,131.88802083333334,0)" xlink:href="#bv"/><use transform="matrix(0.015190972222222224,0,0,0.015190972222222224,149.3576388888889,0)" xlink:href="#bu"/><use transform="matrix(0.015190972222222224,0,0,0.015190972222222224,161.06987847222226,0)" xlink:href="#bv"/><use transform="matrix(0.015190972222222224,0,0,0.015190972222222224,178.53949652777783,0)" xlink:href="#bp"/><use transform="matrix(0.015190972222222224,0,0,0.015190972222222224,196.31293402777783,0)" xlink:href="#bt"/><use transform="matrix(0.015190972222222224,0,0,0.015190972222222224,206.18706597222226,0)" xlink:href="#bq"/><use transform="matrix(0.015190972222222224,0,0,0.015190972222222224,224.84157986111114,0)" xlink:href="#bu"/><use transform="matrix(0.015190972222222224,0,0,0.015190972222222224,237.0399305555556,0)" xlink:href="#bw"/><use transform="matrix(0.015190972222222224,0,0,0.015190972222222224,244.57465277777783,0)" xlink:href="#bs"/><use transform="matrix(0.015190972222222224,0,0,0.015190972222222224,260.99609375000006,0)" xlink:href="#bt"/><use transform="matrix(0.015190972222222224,0,0,0.015190972222222224,271.17404513888897,0)" xlink:href="#bw"/><use transform="matrix(0.015190972222222224,0,0,0.015190972222222224,278.7087673611112,0)" xlink:href="#bp"/><use transform="matrix(0.015190972222222224,0,0,0.015190972222222224,296.4822048611112,0)" xlink:href="#bx"/></g><path fill="#094d71" d="M158 418v-1536h174v179h20c37-59 106-193 324-193 279 0 474 222 474 576 0 356-194 580-473 580-213 0-288-135-325-197h-14v591H158zm492-555c209 0 317-186 317-421 0-232-105-413-317-413-206 0-314 166-314 413 0 249 111 421 314 421" id="cs"/><g id="W"><use transform="matrix(0.015190972222222224,0,0,0.015190972222222224,0,0)" xlink:href="#cs"/><use transform="matrix(0.015190972222222224,0,0,0.015190972222222224,19.049479166666668,0)" xlink:href="#bu"/><use transform="matrix(0.015190972222222224,0,0,0.015190972222222224,31.247829861111114,0)" xlink:href="#bw"/><use transform="matrix(0.015190972222222224,0,0,0.015190972222222224,38.782552083333336,0)" xlink:href="#bQ"/><use transform="matrix(0.015190972222222224,0,0,0.015190972222222224,66.03515625,0)" xlink:href="#bv"/><use transform="matrix(0.015190972222222224,0,0,0.015190972222222224,83.50477430555556,0)" xlink:href="#bu"/><use transform="matrix(0.015190972222222224,0,0,0.015190972222222224,95.703125,0)" xlink:href="#bR"/><use transform="matrix(0.015190972222222224,0,0,0.015190972222222224,113.18793402777777,0)" xlink:href="#bJ"/><use transform="matrix(0.015190972222222224,0,0,0.015190972222222224,135.91362847222223,0)" xlink:href="#bq"/><use transform="matrix(0.015190972222222224,0,0,0.015190972222222224,154.56814236111111,0)" xlink:href="#bS"/><use transform="matrix(0.015190972222222224,0,0,0.015190972222222224,173.61762152777777,0)" xlink:href="#bw"/><use transform="matrix(0.015190972222222224,0,0,0.015190972222222224,181.15234375,0)" xlink:href="#br"/><use transform="matrix(0.015190972222222224,0,0,0.015190972222222224,199.53342013888889,0)" xlink:href="#bT"/><use transform="matrix(0.015190972222222224,0,0,0.015190972222222224,218.61328125,0)" xlink:href="#bx"/></g><path fill="#094d71" d="M975 0v231H0V0h975" id="ct"/><path fill="#094d71" d="M361 0L31-1118h315c68 295 127 523 188 845 63-317 128-551 199-845h276c71 296 131 525 196 846 57-321 119-552 186-846h319L1378 0h-305c-73-261-148-486-204-771C813-484 740-261 666 0H361" id="cu"/><g id="X"><use transform="matrix(0.015190972222222224,0,0,0.015190972222222224,0,0)" xlink:href="#aX"/><use transform="matrix(0.015190972222222224,0,0,0.015190972222222224,8.430989583333334,0)" xlink:href="#bF"/><use transform="matrix(0.015190972222222224,0,0,0.015190972222222224,25.85503472222222,0)" xlink:href="#ct"/><use transform="matrix(0.015190972222222224,0,0,0.015190972222222224,40.666232638888886,0)" xlink:href="#cu"/><use transform="matrix(0.015190972222222224,0,0,0.015190972222222224,67.11371527777777,0)" xlink:href="#aX"/><use transform="matrix(0.015190972222222224,0,0,0.015190972222222224,75.5447048611111,0)" xlink:href="#bA"/><use transform="matrix(0.015190972222222224,0,0,0.015190972222222224,87.01388888888889,0)" xlink:href="#cb"/><use transform="matrix(0.015190972222222224,0,0,0.015190972222222224,106.38237847222223,0)" xlink:href="#aX"/><use transform="matrix(0.015190972222222224,0,0,0.015190972222222224,114.81336805555556,0)" xlink:href="#aT"/></g><path fill="#094d71" d="M128 418v-1536h295v188h14c41-89 129-202 319-202 248 0 453 193 453 575 0 372-197 576-455 576-183 0-275-108-317-198h-9v597H128zm534-640c156 0 240-139 240-336 0-196-83-334-240-334-154 0-241 131-241 334 0 202 88 336 241 336" id="cv"/><path fill="#094d71" d="M120 396l69-226c123 42 245 23 254-107l8-60L31-1118h319c87 288 199 559 259 872 72-308 185-583 277-872h315L726 132c-68 181-186 294-410 294-79 0-153-13-196-30" id="cw"/><g id="ac"><use transform="matrix(0.015190972222222224,0,0,0.015190972222222224,0,0)" xlink:href="#bD"/><use transform="matrix(0.015190972222222224,0,0,0.015190972222222224,23.014322916666668,0)" xlink:href="#aY"/><use transform="matrix(0.015190972222222224,0,0,0.015190972222222224,42.094184027777786,0)" xlink:href="#cv"/><use transform="matrix(0.015190972222222224,0,0,0.015190972222222224,61.14366319444446,0)" xlink:href="#cw"/><use transform="matrix(0.015190972222222224,0,0,0.015190972222222224,79.87413194444446,0)" xlink:href="#bD"/><use transform="matrix(0.015190972222222224,0,0,0.015190972222222224,102.88845486111113,0)" xlink:href="#cb"/><use transform="matrix(0.015190972222222224,0,0,0.015190972222222224,122.25694444444446,0)" xlink:href="#bz"/><use transform="matrix(0.015190972222222224,0,0,0.015190972222222224,140.31901041666669,0)" xlink:href="#aT"/><use transform="matrix(0.015190972222222224,0,0,0.015190972222222224,159.68750000000003,0)" xlink:href="#aW"/><use transform="matrix(0.015190972222222224,0,0,0.015190972222222224,179.3446180555556,0)" xlink:href="#aS"/><use transform="matrix(0.015190972222222224,0,0,0.015190972222222224,197.8776041666667,0)" xlink:href="#bD"/><use transform="matrix(0.015190972222222224,0,0,0.015190972222222224,220.89192708333337,0)" xlink:href="#aY"/><use transform="matrix(0.015190972222222224,0,0,0.015190972222222224,239.97178819444449,0)" xlink:href="#aT"/><use transform="matrix(0.015190972222222224,0,0,0.015190972222222224,259.3402777777778,0)" xlink:href="#bF"/><use transform="matrix(0.015190972222222224,0,0,0.015190972222222224,276.76432291666674,0)" xlink:href="#bA"/><use transform="matrix(0.015190972222222224,0,0,0.015190972222222224,288.1575520833334,0)" xlink:href="#bC"/><use transform="matrix(0.015190972222222224,0,0,0.015190972222222224,300.4014756944445,0)" xlink:href="#bz"/><use transform="matrix(0.015190972222222224,0,0,0.015190972222222224,318.46354166666674,0)" xlink:href="#aX"/><use transform="matrix(0.015190972222222224,0,0,0.015190972222222224,326.89453125000006,0)" xlink:href="#aT"/><use transform="matrix(0.015190972222222224,0,0,0.015190972222222224,346.26302083333337,0)" xlink:href="#bA"/><use transform="matrix(0.015190972222222224,0,0,0.015190972222222224,357.65625000000006,0)" xlink:href="#bx"/></g><g id="ad"><use transform="matrix(0.015190972222222224,0,0,0.015190972222222224,0,0)" xlink:href="#bp"/><use transform="matrix(0.015190972222222224,0,0,0.015190972222222224,17.773437500000004,0)" xlink:href="#bq"/><use transform="matrix(0.015190972222222224,0,0,0.015190972222222224,36.42795138888889,0)" xlink:href="#cs"/><use transform="matrix(0.015190972222222224,0,0,0.015190972222222224,54.86979166666667,0)" xlink:href="#bR"/><use transform="matrix(0.015190972222222224,0,0,0.015190972222222224,72.35460069444446,0)" xlink:href="#bJ"/><use transform="matrix(0.015190972222222224,0,0,0.015190972222222224,95.0802951388889,0)" xlink:href="#cr"/><use transform="matrix(0.015190972222222224,0,0,0.015190972222222224,113.47656250000001,0)" xlink:href="#bv"/><use transform="matrix(0.015190972222222224,0,0,0.015190972222222224,130.94618055555557,0)" xlink:href="#br"/><use transform="matrix(0.015190972222222224,0,0,0.015190972222222224,149.32725694444446,0)" xlink:href="#bT"/><use transform="matrix(0.015190972222222224,0,0,0.015190972222222224,168.40711805555557,0)" xlink:href="#bH"/><use transform="matrix(0.015190972222222224,0,0,0.015190972222222224,186.5451388888889,0)" xlink:href="#bx"/></g><path fill="#094d71" d="M428-1490V0H128v-1490h300" id="cx"/><g id="ae"><use transform="matrix(0.015190972222222224,0,0,0.015190972222222224,0,0)" xlink:href="#bj"/><use transform="matrix(0.015190972222222224,0,0,0.015190972222222224,14.492187500000002,0)" xlink:href="#cx"/><use transform="matrix(0.015190972222222224,0,0,0.015190972222222224,22.923177083333336,0)" xlink:href="#aY"/><use transform="matrix(0.015190972222222224,0,0,0.015190972222222224,42.00303819444445,0)" xlink:href="#bF"/><use transform="matrix(0.015190972222222224,0,0,0.015190972222222224,59.42708333333334,0)" xlink:href="#bF"/><use transform="matrix(0.015190972222222224,0,0,0.015190972222222224,76.85112847222223,0)" xlink:href="#bj"/></g></defs></g></svg>