<?xml version="1.0" encoding="utf-8" standalone="no"?>
<!DOCTYPE svg PUBLIC "-//W3C//DTD SVG 1.1//EN"
  "http://www.w3.org/Graphics/SVG/1.1/DTD/svg11.dtd">
<svg xmlns:xlink="http://www.w3.org/1999/xlink" width="614.788125pt" height="484.520625pt" viewBox="0 0 614.788125 484.520625" xmlns="http://www.w3.org/2000/svg" version="1.1">
 <metadata>
  <rdf:RDF xmlns:dc="http://purl.org/dc/elements/1.1/" xmlns:cc="http://creativecommons.org/ns#" xmlns:rdf="http://www.w3.org/1999/02/22-rdf-syntax-ns#">
   <cc:Work>
    <dc:type rdf:resource="http://purl.org/dc/dcmitype/StillImage"/>
    <dc:date>2025-07-07T01:23:16.554608</dc:date>
    <dc:format>image/svg+xml</dc:format>
    <dc:creator>
     <cc:Agent>
      <dc:title>Matplotlib v3.10.0, https://matplotlib.org/</dc:title>
     </cc:Agent>
    </dc:creator>
   </cc:Work>
  </rdf:RDF>
 </metadata>
 <defs>
  <style type="text/css">*{stroke-linejoin: round; stroke-linecap: butt}</style>
 </defs>
 <g id="figure_1">
  <g id="patch_1">
   <path d="M 0 484.520625 
L 614.788125 484.520625 
L 614.788125 0 
L 0 0 
z
" style="fill: #ffffff"/>
  </g>
  <g id="axes_1">
   <g id="patch_2">
    <path d="M 49.588125 441.1575 
L 607.588125 441.1575 
L 607.588125 25.3575 
L 49.588125 25.3575 
z
" style="fill: #ffffff"/>
   </g>
   <g id="patch_3">
    <path d="M 74.951761 441.1575 
L 80.024489 441.1575 
L 80.024489 45.1575 
L 74.951761 45.1575 
z
" clip-path="url(#paa0b7ce5b0)" style="fill: #1f77b4"/>
   </g>
   <g id="patch_4">
    <path d="M 80.024489 441.1575 
L 85.097216 441.1575 
L 85.097216 131.44598 
L 80.024489 131.44598 
z
" clip-path="url(#paa0b7ce5b0)" style="fill: #1f77b4"/>
   </g>
   <g id="patch_5">
    <path d="M 85.097216 441.1575 
L 90.169943 441.1575 
L 90.169943 377.498867 
L 85.097216 377.498867 
z
" clip-path="url(#paa0b7ce5b0)" style="fill: #1f77b4"/>
   </g>
   <g id="patch_6">
    <path d="M 90.169943 441.1575 
L 95.24267 441.1575 
L 95.24267 415.816226 
L 90.169943 415.816226 
z
" clip-path="url(#paa0b7ce5b0)" style="fill: #1f77b4"/>
   </g>
   <g id="patch_7">
    <path d="M 95.24267 441.1575 
L 100.315398 441.1575 
L 100.315398 426.338632 
L 95.24267 426.338632 
z
" clip-path="url(#paa0b7ce5b0)" style="fill: #1f77b4"/>
   </g>
   <g id="patch_8">
    <path d="M 100.315398 441.1575 
L 105.388125 441.1575 
L 105.388125 434.593684 
L 100.315398 434.593684 
z
" clip-path="url(#paa0b7ce5b0)" style="fill: #1f77b4"/>
   </g>
   <g id="patch_9">
    <path d="M 105.388125 441.1575 
L 110.460852 441.1575 
L 110.460852 436.713719 
L 105.388125 436.713719 
z
" clip-path="url(#paa0b7ce5b0)" style="fill: #1f77b4"/>
   </g>
   <g id="patch_10">
    <path d="M 110.460852 441.1575 
L 115.53358 441.1575 
L 115.53358 438.952644 
L 110.460852 438.952644 
z
" clip-path="url(#paa0b7ce5b0)" style="fill: #1f77b4"/>
   </g>
   <g id="patch_11">
    <path d="M 115.53358 441.1575 
L 120.606307 441.1575 
L 120.606307 438.220512 
L 115.53358 438.220512 
z
" clip-path="url(#paa0b7ce5b0)" style="fill: #1f77b4"/>
   </g>
   <g id="patch_12">
    <path d="M 120.606307 441.1575 
L 125.679034 441.1575 
L 125.679034 439.54897 
L 120.606307 439.54897 
z
" clip-path="url(#paa0b7ce5b0)" style="fill: #1f77b4"/>
   </g>
   <g id="patch_13">
    <path d="M 125.679034 441.1575 
L 130.751761 441.1575 
L 130.751761 439.815414 
L 125.679034 439.815414 
z
" clip-path="url(#paa0b7ce5b0)" style="fill: #1f77b4"/>
   </g>
   <g id="patch_14">
    <path d="M 130.751761 441.1575 
L 135.824489 441.1575 
L 135.824489 438.853726 
L 130.751761 438.853726 
z
" clip-path="url(#paa0b7ce5b0)" style="fill: #1f77b4"/>
   </g>
   <g id="patch_15">
    <path d="M 135.824489 441.1575 
L 140.897216 441.1575 
L 140.897216 439.515371 
L 135.824489 439.515371 
z
" clip-path="url(#paa0b7ce5b0)" style="fill: #1f77b4"/>
   </g>
   <g id="patch_16">
    <path d="M 140.897216 441.1575 
L 145.969943 441.1575 
L 145.969943 440.337728 
L 140.897216 440.337728 
z
" clip-path="url(#paa0b7ce5b0)" style="fill: #1f77b4"/>
   </g>
   <g id="patch_17">
    <path d="M 145.969943 441.1575 
L 151.04267 441.1575 
L 151.04267 440.926065 
L 145.969943 440.926065 
z
" clip-path="url(#paa0b7ce5b0)" style="fill: #1f77b4"/>
   </g>
   <g id="patch_18">
    <path d="M 151.04267 441.1575 
L 156.115398 441.1575 
L 156.115398 440.881188 
L 151.04267 440.881188 
z
" clip-path="url(#paa0b7ce5b0)" style="fill: #1f77b4"/>
   </g>
   <g id="patch_19">
    <path d="M 156.115398 441.1575 
L 161.188125 441.1575 
L 161.188125 440.95426 
L 156.115398 440.95426 
z
" clip-path="url(#paa0b7ce5b0)" style="fill: #1f77b4"/>
   </g>
   <g id="patch_20">
    <path d="M 161.188125 441.1575 
L 166.260852 441.1575 
L 166.260852 440.883303 
L 161.188125 440.883303 
z
" clip-path="url(#paa0b7ce5b0)" style="fill: #1f77b4"/>
   </g>
   <g id="patch_21">
    <path d="M 166.260852 441.1575 
L 171.33358 441.1575 
L 171.33358 440.897635 
L 166.260852 440.897635 
z
" clip-path="url(#paa0b7ce5b0)" style="fill: #1f77b4"/>
   </g>
   <g id="patch_22">
    <path d="M 171.33358 441.1575 
L 176.406307 441.1575 
L 176.406307 441.029447 
L 171.33358 441.029447 
z
" clip-path="url(#paa0b7ce5b0)" style="fill: #1f77b4"/>
   </g>
   <g id="patch_23">
    <path d="M 176.406307 441.1575 
L 181.479034 441.1575 
L 181.479034 441.042605 
L 176.406307 441.042605 
z
" clip-path="url(#paa0b7ce5b0)" style="fill: #1f77b4"/>
   </g>
   <g id="patch_24">
    <path d="M 181.479034 441.1575 
L 186.551761 441.1575 
L 186.551761 441.15468 
L 181.479034 441.15468 
z
" clip-path="url(#paa0b7ce5b0)" style="fill: #1f77b4"/>
   </g>
   <g id="patch_25">
    <path d="M 186.551761 441.1575 
L 191.624489 441.1575 
L 191.624489 441.140583 
L 186.551761 441.140583 
z
" clip-path="url(#paa0b7ce5b0)" style="fill: #1f77b4"/>
   </g>
   <g id="patch_26">
    <path d="M 191.624489 441.1575 
L 196.697216 441.1575 
L 196.697216 441.155855 
L 191.624489 441.155855 
z
" clip-path="url(#paa0b7ce5b0)" style="fill: #1f77b4"/>
   </g>
   <g id="patch_27">
    <path d="M 196.697216 441.1575 
L 201.769943 441.1575 
L 201.769943 441.151861 
L 196.697216 441.151861 
z
" clip-path="url(#paa0b7ce5b0)" style="fill: #1f77b4"/>
   </g>
   <g id="patch_28">
    <path d="M 201.769943 441.1575 
L 206.84267 441.1575 
L 206.84267 441.149746 
L 201.769943 441.149746 
z
" clip-path="url(#paa0b7ce5b0)" style="fill: #1f77b4"/>
   </g>
   <g id="patch_29">
    <path d="M 206.84267 441.1575 
L 211.915398 441.1575 
L 211.915398 441.142228 
L 206.84267 441.142228 
z
" clip-path="url(#paa0b7ce5b0)" style="fill: #1f77b4"/>
   </g>
   <g id="patch_30">
    <path d="M 211.915398 441.1575 
L 216.988125 441.1575 
L 216.988125 441.118262 
L 211.915398 441.118262 
z
" clip-path="url(#paa0b7ce5b0)" style="fill: #1f77b4"/>
   </g>
   <g id="patch_31">
    <path d="M 216.988125 441.1575 
L 222.060852 441.1575 
L 222.060852 441.142228 
L 216.988125 441.142228 
z
" clip-path="url(#paa0b7ce5b0)" style="fill: #1f77b4"/>
   </g>
   <g id="patch_32">
    <path d="M 222.060852 441.1575 
L 227.13358 441.1575 
L 227.13358 441.1575 
L 222.060852 441.1575 
z
" clip-path="url(#paa0b7ce5b0)" style="fill: #1f77b4"/>
   </g>
   <g id="patch_33">
    <path d="M 227.13358 441.1575 
L 232.206307 441.1575 
L 232.206307 441.147397 
L 227.13358 441.147397 
z
" clip-path="url(#paa0b7ce5b0)" style="fill: #1f77b4"/>
   </g>
   <g id="patch_34">
    <path d="M 232.206307 441.1575 
L 237.279034 441.1575 
L 237.279034 441.15609 
L 232.206307 441.15609 
z
" clip-path="url(#paa0b7ce5b0)" style="fill: #1f77b4"/>
   </g>
   <g id="patch_35">
    <path d="M 237.279034 441.1575 
L 242.351761 441.1575 
L 242.351761 441.15468 
L 237.279034 441.15468 
z
" clip-path="url(#paa0b7ce5b0)" style="fill: #1f77b4"/>
   </g>
   <g id="patch_36">
    <path d="M 242.351761 441.1575 
L 247.424489 441.1575 
L 247.424489 441.151861 
L 242.351761 441.151861 
z
" clip-path="url(#paa0b7ce5b0)" style="fill: #1f77b4"/>
   </g>
   <g id="patch_37">
    <path d="M 247.424489 441.1575 
L 252.497216 441.1575 
L 252.497216 441.147632 
L 247.424489 441.147632 
z
" clip-path="url(#paa0b7ce5b0)" style="fill: #1f77b4"/>
   </g>
   <g id="patch_38">
    <path d="M 252.497216 441.1575 
L 257.569943 441.1575 
L 257.569943 441.15656 
L 252.497216 441.15656 
z
" clip-path="url(#paa0b7ce5b0)" style="fill: #1f77b4"/>
   </g>
   <g id="patch_39">
    <path d="M 257.569943 441.1575 
L 262.64267 441.1575 
L 262.64267 441.145282 
L 257.569943 441.145282 
z
" clip-path="url(#paa0b7ce5b0)" style="fill: #1f77b4"/>
   </g>
   <g id="patch_40">
    <path d="M 262.64267 441.1575 
L 267.715398 441.1575 
L 267.715398 441.144107 
L 262.64267 441.144107 
z
" clip-path="url(#paa0b7ce5b0)" style="fill: #1f77b4"/>
   </g>
   <g id="patch_41">
    <path d="M 267.715398 441.1575 
L 272.788125 441.1575 
L 272.788125 441.15609 
L 267.715398 441.15609 
z
" clip-path="url(#paa0b7ce5b0)" style="fill: #1f77b4"/>
   </g>
   <g id="patch_42">
    <path d="M 272.788125 441.1575 
L 277.860852 441.1575 
L 277.860852 441.152331 
L 272.788125 441.152331 
z
" clip-path="url(#paa0b7ce5b0)" style="fill: #1f77b4"/>
   </g>
   <g id="patch_43">
    <path d="M 277.860852 441.1575 
L 282.93358 441.1575 
L 282.93358 441.148807 
L 277.860852 441.148807 
z
" clip-path="url(#paa0b7ce5b0)" style="fill: #1f77b4"/>
   </g>
   <g id="patch_44">
    <path d="M 282.93358 441.1575 
L 288.006307 441.1575 
L 288.006307 441.15703 
L 282.93358 441.15703 
z
" clip-path="url(#paa0b7ce5b0)" style="fill: #1f77b4"/>
   </g>
   <g id="patch_45">
    <path d="M 288.006307 441.1575 
L 293.079034 441.1575 
L 293.079034 441.1575 
L 288.006307 441.1575 
z
" clip-path="url(#paa0b7ce5b0)" style="fill: #1f77b4"/>
   </g>
   <g id="patch_46">
    <path d="M 293.079034 441.1575 
L 298.151761 441.1575 
L 298.151761 441.1575 
L 293.079034 441.1575 
z
" clip-path="url(#paa0b7ce5b0)" style="fill: #1f77b4"/>
   </g>
   <g id="patch_47">
    <path d="M 298.151761 441.1575 
L 303.224489 441.1575 
L 303.224489 441.15468 
L 298.151761 441.15468 
z
" clip-path="url(#paa0b7ce5b0)" style="fill: #1f77b4"/>
   </g>
   <g id="patch_48">
    <path d="M 303.224489 441.1575 
L 308.297216 441.1575 
L 308.297216 441.1575 
L 303.224489 441.1575 
z
" clip-path="url(#paa0b7ce5b0)" style="fill: #1f77b4"/>
   </g>
   <g id="patch_49">
    <path d="M 308.297216 441.1575 
L 313.369943 441.1575 
L 313.369943 441.1575 
L 308.297216 441.1575 
z
" clip-path="url(#paa0b7ce5b0)" style="fill: #1f77b4"/>
   </g>
   <g id="patch_50">
    <path d="M 313.369943 441.1575 
L 318.44267 441.1575 
L 318.44267 441.1575 
L 313.369943 441.1575 
z
" clip-path="url(#paa0b7ce5b0)" style="fill: #1f77b4"/>
   </g>
   <g id="patch_51">
    <path d="M 318.44267 441.1575 
L 323.515398 441.1575 
L 323.515398 441.066806 
L 318.44267 441.066806 
z
" clip-path="url(#paa0b7ce5b0)" style="fill: #1f77b4"/>
   </g>
   <g id="patch_52">
    <path d="M 323.515398 441.1575 
L 328.588125 441.1575 
L 328.588125 440.571747 
L 323.515398 440.571747 
z
" clip-path="url(#paa0b7ce5b0)" style="fill: #1f77b4"/>
   </g>
   <g id="patch_53">
    <path d="M 328.588125 441.1575 
L 333.660852 441.1575 
L 333.660852 441.1575 
L 328.588125 441.1575 
z
" clip-path="url(#paa0b7ce5b0)" style="fill: #1f77b4"/>
   </g>
   <g id="patch_54">
    <path d="M 333.660852 441.1575 
L 338.73358 441.1575 
L 338.73358 441.154915 
L 333.660852 441.154915 
z
" clip-path="url(#paa0b7ce5b0)" style="fill: #1f77b4"/>
   </g>
   <g id="patch_55">
    <path d="M 338.73358 441.1575 
L 343.806307 441.1575 
L 343.806307 441.1575 
L 338.73358 441.1575 
z
" clip-path="url(#paa0b7ce5b0)" style="fill: #1f77b4"/>
   </g>
   <g id="patch_56">
    <path d="M 343.806307 441.1575 
L 348.879034 441.1575 
L 348.879034 441.1575 
L 343.806307 441.1575 
z
" clip-path="url(#paa0b7ce5b0)" style="fill: #1f77b4"/>
   </g>
   <g id="patch_57">
    <path d="M 348.879034 441.1575 
L 353.951761 441.1575 
L 353.951761 441.1575 
L 348.879034 441.1575 
z
" clip-path="url(#paa0b7ce5b0)" style="fill: #1f77b4"/>
   </g>
   <g id="patch_58">
    <path d="M 353.951761 441.1575 
L 359.024489 441.1575 
L 359.024489 441.1575 
L 353.951761 441.1575 
z
" clip-path="url(#paa0b7ce5b0)" style="fill: #1f77b4"/>
   </g>
   <g id="patch_59">
    <path d="M 359.024489 441.1575 
L 364.097216 441.1575 
L 364.097216 441.1575 
L 359.024489 441.1575 
z
" clip-path="url(#paa0b7ce5b0)" style="fill: #1f77b4"/>
   </g>
   <g id="patch_60">
    <path d="M 364.097216 441.1575 
L 369.169943 441.1575 
L 369.169943 441.1575 
L 364.097216 441.1575 
z
" clip-path="url(#paa0b7ce5b0)" style="fill: #1f77b4"/>
   </g>
   <g id="patch_61">
    <path d="M 369.169943 441.1575 
L 374.24267 441.1575 
L 374.24267 441.1575 
L 369.169943 441.1575 
z
" clip-path="url(#paa0b7ce5b0)" style="fill: #1f77b4"/>
   </g>
   <g id="patch_62">
    <path d="M 374.24267 441.1575 
L 379.315398 441.1575 
L 379.315398 441.1575 
L 374.24267 441.1575 
z
" clip-path="url(#paa0b7ce5b0)" style="fill: #1f77b4"/>
   </g>
   <g id="patch_63">
    <path d="M 379.315398 441.1575 
L 384.388125 441.1575 
L 384.388125 441.1575 
L 379.315398 441.1575 
z
" clip-path="url(#paa0b7ce5b0)" style="fill: #1f77b4"/>
   </g>
   <g id="patch_64">
    <path d="M 384.388125 441.1575 
L 389.460852 441.1575 
L 389.460852 441.15656 
L 384.388125 441.15656 
z
" clip-path="url(#paa0b7ce5b0)" style="fill: #1f77b4"/>
   </g>
   <g id="patch_65">
    <path d="M 389.460852 441.1575 
L 394.53358 441.1575 
L 394.53358 441.1575 
L 389.460852 441.1575 
z
" clip-path="url(#paa0b7ce5b0)" style="fill: #1f77b4"/>
   </g>
   <g id="patch_66">
    <path d="M 394.53358 441.1575 
L 399.606307 441.1575 
L 399.606307 441.1575 
L 394.53358 441.1575 
z
" clip-path="url(#paa0b7ce5b0)" style="fill: #1f77b4"/>
   </g>
   <g id="patch_67">
    <path d="M 399.606307 441.1575 
L 404.679034 441.1575 
L 404.679034 441.1575 
L 399.606307 441.1575 
z
" clip-path="url(#paa0b7ce5b0)" style="fill: #1f77b4"/>
   </g>
   <g id="patch_68">
    <path d="M 404.679034 441.1575 
L 409.751761 441.1575 
L 409.751761 441.1575 
L 404.679034 441.1575 
z
" clip-path="url(#paa0b7ce5b0)" style="fill: #1f77b4"/>
   </g>
   <g id="patch_69">
    <path d="M 409.751761 441.1575 
L 414.824489 441.1575 
L 414.824489 441.1575 
L 409.751761 441.1575 
z
" clip-path="url(#paa0b7ce5b0)" style="fill: #1f77b4"/>
   </g>
   <g id="patch_70">
    <path d="M 414.824489 441.1575 
L 419.897216 441.1575 
L 419.897216 441.1575 
L 414.824489 441.1575 
z
" clip-path="url(#paa0b7ce5b0)" style="fill: #1f77b4"/>
   </g>
   <g id="patch_71">
    <path d="M 419.897216 441.1575 
L 424.969943 441.1575 
L 424.969943 441.1286 
L 419.897216 441.1286 
z
" clip-path="url(#paa0b7ce5b0)" style="fill: #1f77b4"/>
   </g>
   <g id="patch_72">
    <path d="M 424.969943 441.1575 
L 430.04267 441.1575 
L 430.04267 441.1575 
L 424.969943 441.1575 
z
" clip-path="url(#paa0b7ce5b0)" style="fill: #1f77b4"/>
   </g>
   <g id="patch_73">
    <path d="M 430.04267 441.1575 
L 435.115398 441.1575 
L 435.115398 441.122256 
L 430.04267 441.122256 
z
" clip-path="url(#paa0b7ce5b0)" style="fill: #1f77b4"/>
   </g>
   <g id="patch_74">
    <path d="M 435.115398 441.1575 
L 440.188125 441.1575 
L 440.188125 441.10064 
L 435.115398 441.10064 
z
" clip-path="url(#paa0b7ce5b0)" style="fill: #1f77b4"/>
   </g>
   <g id="patch_75">
    <path d="M 440.188125 441.1575 
L 445.260852 441.1575 
L 445.260852 441.155385 
L 440.188125 441.155385 
z
" clip-path="url(#paa0b7ce5b0)" style="fill: #1f77b4"/>
   </g>
   <g id="patch_76">
    <path d="M 445.260852 441.1575 
L 450.33358 441.1575 
L 450.33358 441.142228 
L 445.260852 441.142228 
z
" clip-path="url(#paa0b7ce5b0)" style="fill: #1f77b4"/>
   </g>
   <g id="patch_77">
    <path d="M 450.33358 441.1575 
L 455.406307 441.1575 
L 455.406307 441.157265 
L 450.33358 441.157265 
z
" clip-path="url(#paa0b7ce5b0)" style="fill: #1f77b4"/>
   </g>
   <g id="patch_78">
    <path d="M 455.406307 441.1575 
L 460.479034 441.1575 
L 460.479034 441.136354 
L 455.406307 441.136354 
z
" clip-path="url(#paa0b7ce5b0)" style="fill: #1f77b4"/>
   </g>
   <g id="patch_79">
    <path d="M 460.479034 441.1575 
L 465.551761 441.1575 
L 465.551761 441.156325 
L 460.479034 441.156325 
z
" clip-path="url(#paa0b7ce5b0)" style="fill: #1f77b4"/>
   </g>
   <g id="patch_80">
    <path d="M 465.551761 441.1575 
L 470.624489 441.1575 
L 470.624489 441.1575 
L 465.551761 441.1575 
z
" clip-path="url(#paa0b7ce5b0)" style="fill: #1f77b4"/>
   </g>
   <g id="patch_81">
    <path d="M 470.624489 441.1575 
L 475.697216 441.1575 
L 475.697216 441.1575 
L 470.624489 441.1575 
z
" clip-path="url(#paa0b7ce5b0)" style="fill: #1f77b4"/>
   </g>
   <g id="patch_82">
    <path d="M 475.697216 441.1575 
L 480.769943 441.1575 
L 480.769943 441.067041 
L 475.697216 441.067041 
z
" clip-path="url(#paa0b7ce5b0)" style="fill: #1f77b4"/>
   </g>
   <g id="patch_83">
    <path d="M 480.769943 441.1575 
L 485.84267 441.1575 
L 485.84267 439.847368 
L 480.769943 439.847368 
z
" clip-path="url(#paa0b7ce5b0)" style="fill: #1f77b4"/>
   </g>
   <g id="patch_84">
    <path d="M 485.84267 441.1575 
L 490.915398 441.1575 
L 490.915398 441.120376 
L 485.84267 441.120376 
z
" clip-path="url(#paa0b7ce5b0)" style="fill: #1f77b4"/>
   </g>
   <g id="patch_85">
    <path d="M 490.915398 441.1575 
L 495.988125 441.1575 
L 495.988125 441.153741 
L 490.915398 441.153741 
z
" clip-path="url(#paa0b7ce5b0)" style="fill: #1f77b4"/>
   </g>
   <g id="patch_86">
    <path d="M 495.988125 441.1575 
L 501.060852 441.1575 
L 501.060852 441.146222 
L 495.988125 441.146222 
z
" clip-path="url(#paa0b7ce5b0)" style="fill: #1f77b4"/>
   </g>
   <g id="patch_87">
    <path d="M 501.060852 441.1575 
L 506.13358 441.1575 
L 506.13358 441.1575 
L 501.060852 441.1575 
z
" clip-path="url(#paa0b7ce5b0)" style="fill: #1f77b4"/>
   </g>
   <g id="patch_88">
    <path d="M 506.13358 441.1575 
L 511.206307 441.1575 
L 511.206307 441.146457 
L 506.13358 441.146457 
z
" clip-path="url(#paa0b7ce5b0)" style="fill: #1f77b4"/>
   </g>
   <g id="patch_89">
    <path d="M 511.206307 441.1575 
L 516.279034 441.1575 
L 516.279034 441.15703 
L 511.206307 441.15703 
z
" clip-path="url(#paa0b7ce5b0)" style="fill: #1f77b4"/>
   </g>
   <g id="patch_90">
    <path d="M 516.279034 441.1575 
L 521.351761 441.1575 
L 521.351761 441.157265 
L 516.279034 441.157265 
z
" clip-path="url(#paa0b7ce5b0)" style="fill: #1f77b4"/>
   </g>
   <g id="patch_91">
    <path d="M 521.351761 441.1575 
L 526.424489 441.1575 
L 526.424489 441.1575 
L 521.351761 441.1575 
z
" clip-path="url(#paa0b7ce5b0)" style="fill: #1f77b4"/>
   </g>
   <g id="patch_92">
    <path d="M 526.424489 441.1575 
L 531.497216 441.1575 
L 531.497216 441.15562 
L 526.424489 441.15562 
z
" clip-path="url(#paa0b7ce5b0)" style="fill: #1f77b4"/>
   </g>
   <g id="patch_93">
    <path d="M 531.497216 441.1575 
L 536.569943 441.1575 
L 536.569943 441.1575 
L 531.497216 441.1575 
z
" clip-path="url(#paa0b7ce5b0)" style="fill: #1f77b4"/>
   </g>
   <g id="patch_94">
    <path d="M 536.569943 441.1575 
L 541.64267 441.1575 
L 541.64267 441.1575 
L 536.569943 441.1575 
z
" clip-path="url(#paa0b7ce5b0)" style="fill: #1f77b4"/>
   </g>
   <g id="patch_95">
    <path d="M 541.64267 441.1575 
L 546.715398 441.1575 
L 546.715398 441.1575 
L 541.64267 441.1575 
z
" clip-path="url(#paa0b7ce5b0)" style="fill: #1f77b4"/>
   </g>
   <g id="patch_96">
    <path d="M 546.715398 441.1575 
L 551.788125 441.1575 
L 551.788125 441.115912 
L 546.715398 441.115912 
z
" clip-path="url(#paa0b7ce5b0)" style="fill: #1f77b4"/>
   </g>
   <g id="patch_97">
    <path d="M 551.788125 441.1575 
L 556.860852 441.1575 
L 556.860852 441.136119 
L 551.788125 441.136119 
z
" clip-path="url(#paa0b7ce5b0)" style="fill: #1f77b4"/>
   </g>
   <g id="patch_98">
    <path d="M 556.860852 441.1575 
L 561.93358 441.1575 
L 561.93358 441.131889 
L 556.860852 441.131889 
z
" clip-path="url(#paa0b7ce5b0)" style="fill: #1f77b4"/>
   </g>
   <g id="patch_99">
    <path d="M 561.93358 441.1575 
L 567.006307 441.1575 
L 567.006307 441.057877 
L 561.93358 441.057877 
z
" clip-path="url(#paa0b7ce5b0)" style="fill: #1f77b4"/>
   </g>
   <g id="patch_100">
    <path d="M 567.006307 441.1575 
L 572.079034 441.1575 
L 572.079034 440.984335 
L 567.006307 440.984335 
z
" clip-path="url(#paa0b7ce5b0)" style="fill: #1f77b4"/>
   </g>
   <g id="patch_101">
    <path d="M 572.079034 441.1575 
L 577.151761 441.1575 
L 577.151761 440.43923 
L 572.079034 440.43923 
z
" clip-path="url(#paa0b7ce5b0)" style="fill: #1f77b4"/>
   </g>
   <g id="patch_102">
    <path d="M 577.151761 441.1575 
L 582.224489 441.1575 
L 582.224489 441.148337 
L 577.151761 441.148337 
z
" clip-path="url(#paa0b7ce5b0)" style="fill: #1f77b4"/>
   </g>
   <g id="matplotlib.axis_1">
    <g id="xtick_1">
     <g id="line2d_1">
      <defs>
       <path id="m76a385af26" d="M 0 0 
L 0 3.5 
" style="stroke: #000000; stroke-width: 0.8"/>
      </defs>
      <g>
       <use xlink:href="#m76a385af26" x="74.282536" y="441.1575" style="stroke: #000000; stroke-width: 0.8"/>
      </g>
     </g>
     <g id="text_1">
      <!-- 0 -->
      <g transform="translate(71.101286 455.755937) scale(0.1 -0.1)">
       <defs>
        <path id="DejaVuSans-30" d="M 2034 4250 
Q 1547 4250 1301 3770 
Q 1056 3291 1056 2328 
Q 1056 1369 1301 889 
Q 1547 409 2034 409 
Q 2525 409 2770 889 
Q 3016 1369 3016 2328 
Q 3016 3291 2770 3770 
Q 2525 4250 2034 4250 
z
M 2034 4750 
Q 2819 4750 3233 4129 
Q 3647 3509 3647 2328 
Q 3647 1150 3233 529 
Q 2819 -91 2034 -91 
Q 1250 -91 836 529 
Q 422 1150 422 2328 
Q 422 3509 836 4129 
Q 1250 4750 2034 4750 
z
" transform="scale(0.015625)"/>
       </defs>
       <use xlink:href="#DejaVuSans-30"/>
      </g>
     </g>
    </g>
    <g id="xtick_2">
     <g id="line2d_2">
      <g>
       <use xlink:href="#m76a385af26" x="141.20506" y="441.1575" style="stroke: #000000; stroke-width: 0.8"/>
      </g>
     </g>
     <g id="text_2">
      <!-- 100 -->
      <g transform="translate(131.66131 455.755937) scale(0.1 -0.1)">
       <defs>
        <path id="DejaVuSans-31" d="M 794 531 
L 1825 531 
L 1825 4091 
L 703 3866 
L 703 4441 
L 1819 4666 
L 2450 4666 
L 2450 531 
L 3481 531 
L 3481 0 
L 794 0 
L 794 531 
z
" transform="scale(0.015625)"/>
       </defs>
       <use xlink:href="#DejaVuSans-31"/>
       <use xlink:href="#DejaVuSans-30" transform="translate(63.623047 0)"/>
       <use xlink:href="#DejaVuSans-30" transform="translate(127.246094 0)"/>
      </g>
     </g>
    </g>
    <g id="xtick_3">
     <g id="line2d_3">
      <g>
       <use xlink:href="#m76a385af26" x="208.127583" y="441.1575" style="stroke: #000000; stroke-width: 0.8"/>
      </g>
     </g>
     <g id="text_3">
      <!-- 200 -->
      <g transform="translate(198.583833 455.755937) scale(0.1 -0.1)">
       <defs>
        <path id="DejaVuSans-32" d="M 1228 531 
L 3431 531 
L 3431 0 
L 469 0 
L 469 531 
Q 828 903 1448 1529 
Q 2069 2156 2228 2338 
Q 2531 2678 2651 2914 
Q 2772 3150 2772 3378 
Q 2772 3750 2511 3984 
Q 2250 4219 1831 4219 
Q 1534 4219 1204 4116 
Q 875 4013 500 3803 
L 500 4441 
Q 881 4594 1212 4672 
Q 1544 4750 1819 4750 
Q 2544 4750 2975 4387 
Q 3406 4025 3406 3419 
Q 3406 3131 3298 2873 
Q 3191 2616 2906 2266 
Q 2828 2175 2409 1742 
Q 1991 1309 1228 531 
z
" transform="scale(0.015625)"/>
       </defs>
       <use xlink:href="#DejaVuSans-32"/>
       <use xlink:href="#DejaVuSans-30" transform="translate(63.623047 0)"/>
       <use xlink:href="#DejaVuSans-30" transform="translate(127.246094 0)"/>
      </g>
     </g>
    </g>
    <g id="xtick_4">
     <g id="line2d_4">
      <g>
       <use xlink:href="#m76a385af26" x="275.050106" y="441.1575" style="stroke: #000000; stroke-width: 0.8"/>
      </g>
     </g>
     <g id="text_4">
      <!-- 300 -->
      <g transform="translate(265.506356 455.755937) scale(0.1 -0.1)">
       <defs>
        <path id="DejaVuSans-33" d="M 2597 2516 
Q 3050 2419 3304 2112 
Q 3559 1806 3559 1356 
Q 3559 666 3084 287 
Q 2609 -91 1734 -91 
Q 1441 -91 1130 -33 
Q 819 25 488 141 
L 488 750 
Q 750 597 1062 519 
Q 1375 441 1716 441 
Q 2309 441 2620 675 
Q 2931 909 2931 1356 
Q 2931 1769 2642 2001 
Q 2353 2234 1838 2234 
L 1294 2234 
L 1294 2753 
L 1863 2753 
Q 2328 2753 2575 2939 
Q 2822 3125 2822 3475 
Q 2822 3834 2567 4026 
Q 2313 4219 1838 4219 
Q 1578 4219 1281 4162 
Q 984 4106 628 3988 
L 628 4550 
Q 988 4650 1302 4700 
Q 1616 4750 1894 4750 
Q 2613 4750 3031 4423 
Q 3450 4097 3450 3541 
Q 3450 3153 3228 2886 
Q 3006 2619 2597 2516 
z
" transform="scale(0.015625)"/>
       </defs>
       <use xlink:href="#DejaVuSans-33"/>
       <use xlink:href="#DejaVuSans-30" transform="translate(63.623047 0)"/>
       <use xlink:href="#DejaVuSans-30" transform="translate(127.246094 0)"/>
      </g>
     </g>
    </g>
    <g id="xtick_5">
     <g id="line2d_5">
      <g>
       <use xlink:href="#m76a385af26" x="341.97263" y="441.1575" style="stroke: #000000; stroke-width: 0.8"/>
      </g>
     </g>
     <g id="text_5">
      <!-- 400 -->
      <g transform="translate(332.42888 455.755937) scale(0.1 -0.1)">
       <defs>
        <path id="DejaVuSans-34" d="M 2419 4116 
L 825 1625 
L 2419 1625 
L 2419 4116 
z
M 2253 4666 
L 3047 4666 
L 3047 1625 
L 3713 1625 
L 3713 1100 
L 3047 1100 
L 3047 0 
L 2419 0 
L 2419 1100 
L 313 1100 
L 313 1709 
L 2253 4666 
z
" transform="scale(0.015625)"/>
       </defs>
       <use xlink:href="#DejaVuSans-34"/>
       <use xlink:href="#DejaVuSans-30" transform="translate(63.623047 0)"/>
       <use xlink:href="#DejaVuSans-30" transform="translate(127.246094 0)"/>
      </g>
     </g>
    </g>
    <g id="xtick_6">
     <g id="line2d_6">
      <g>
       <use xlink:href="#m76a385af26" x="408.895153" y="441.1575" style="stroke: #000000; stroke-width: 0.8"/>
      </g>
     </g>
     <g id="text_6">
      <!-- 500 -->
      <g transform="translate(399.351403 455.755937) scale(0.1 -0.1)">
       <defs>
        <path id="DejaVuSans-35" d="M 691 4666 
L 3169 4666 
L 3169 4134 
L 1269 4134 
L 1269 2991 
Q 1406 3038 1543 3061 
Q 1681 3084 1819 3084 
Q 2600 3084 3056 2656 
Q 3513 2228 3513 1497 
Q 3513 744 3044 326 
Q 2575 -91 1722 -91 
Q 1428 -91 1123 -41 
Q 819 9 494 109 
L 494 744 
Q 775 591 1075 516 
Q 1375 441 1709 441 
Q 2250 441 2565 725 
Q 2881 1009 2881 1497 
Q 2881 1984 2565 2268 
Q 2250 2553 1709 2553 
Q 1456 2553 1204 2497 
Q 953 2441 691 2322 
L 691 4666 
z
" transform="scale(0.015625)"/>
       </defs>
       <use xlink:href="#DejaVuSans-35"/>
       <use xlink:href="#DejaVuSans-30" transform="translate(63.623047 0)"/>
       <use xlink:href="#DejaVuSans-30" transform="translate(127.246094 0)"/>
      </g>
     </g>
    </g>
    <g id="xtick_7">
     <g id="line2d_7">
      <g>
       <use xlink:href="#m76a385af26" x="475.817676" y="441.1575" style="stroke: #000000; stroke-width: 0.8"/>
      </g>
     </g>
     <g id="text_7">
      <!-- 600 -->
      <g transform="translate(466.273926 455.755937) scale(0.1 -0.1)">
       <defs>
        <path id="DejaVuSans-36" d="M 2113 2584 
Q 1688 2584 1439 2293 
Q 1191 2003 1191 1497 
Q 1191 994 1439 701 
Q 1688 409 2113 409 
Q 2538 409 2786 701 
Q 3034 994 3034 1497 
Q 3034 2003 2786 2293 
Q 2538 2584 2113 2584 
z
M 3366 4563 
L 3366 3988 
Q 3128 4100 2886 4159 
Q 2644 4219 2406 4219 
Q 1781 4219 1451 3797 
Q 1122 3375 1075 2522 
Q 1259 2794 1537 2939 
Q 1816 3084 2150 3084 
Q 2853 3084 3261 2657 
Q 3669 2231 3669 1497 
Q 3669 778 3244 343 
Q 2819 -91 2113 -91 
Q 1303 -91 875 529 
Q 447 1150 447 2328 
Q 447 3434 972 4092 
Q 1497 4750 2381 4750 
Q 2619 4750 2861 4703 
Q 3103 4656 3366 4563 
z
" transform="scale(0.015625)"/>
       </defs>
       <use xlink:href="#DejaVuSans-36"/>
       <use xlink:href="#DejaVuSans-30" transform="translate(63.623047 0)"/>
       <use xlink:href="#DejaVuSans-30" transform="translate(127.246094 0)"/>
      </g>
     </g>
    </g>
    <g id="xtick_8">
     <g id="line2d_8">
      <g>
       <use xlink:href="#m76a385af26" x="542.7402" y="441.1575" style="stroke: #000000; stroke-width: 0.8"/>
      </g>
     </g>
     <g id="text_8">
      <!-- 700 -->
      <g transform="translate(533.19645 455.755937) scale(0.1 -0.1)">
       <defs>
        <path id="DejaVuSans-37" d="M 525 4666 
L 3525 4666 
L 3525 4397 
L 1831 0 
L 1172 0 
L 2766 4134 
L 525 4134 
L 525 4666 
z
" transform="scale(0.015625)"/>
       </defs>
       <use xlink:href="#DejaVuSans-37"/>
       <use xlink:href="#DejaVuSans-30" transform="translate(63.623047 0)"/>
       <use xlink:href="#DejaVuSans-30" transform="translate(127.246094 0)"/>
      </g>
     </g>
    </g>
    <g id="text_9">
     <!-- Total expressions (nucleotide and protein) per AlleleID, (log1p scale) -->
     <g transform="translate(55.023125 473.993125) scale(0.16 -0.16)">
      <defs>
       <path id="DejaVuSans-54" d="M -19 4666 
L 3928 4666 
L 3928 4134 
L 2272 4134 
L 2272 0 
L 1638 0 
L 1638 4134 
L -19 4134 
L -19 4666 
z
" transform="scale(0.015625)"/>
       <path id="DejaVuSans-6f" d="M 1959 3097 
Q 1497 3097 1228 2736 
Q 959 2375 959 1747 
Q 959 1119 1226 758 
Q 1494 397 1959 397 
Q 2419 397 2687 759 
Q 2956 1122 2956 1747 
Q 2956 2369 2687 2733 
Q 2419 3097 1959 3097 
z
M 1959 3584 
Q 2709 3584 3137 3096 
Q 3566 2609 3566 1747 
Q 3566 888 3137 398 
Q 2709 -91 1959 -91 
Q 1206 -91 779 398 
Q 353 888 353 1747 
Q 353 2609 779 3096 
Q 1206 3584 1959 3584 
z
" transform="scale(0.015625)"/>
       <path id="DejaVuSans-74" d="M 1172 4494 
L 1172 3500 
L 2356 3500 
L 2356 3053 
L 1172 3053 
L 1172 1153 
Q 1172 725 1289 603 
Q 1406 481 1766 481 
L 2356 481 
L 2356 0 
L 1766 0 
Q 1100 0 847 248 
Q 594 497 594 1153 
L 594 3053 
L 172 3053 
L 172 3500 
L 594 3500 
L 594 4494 
L 1172 4494 
z
" transform="scale(0.015625)"/>
       <path id="DejaVuSans-61" d="M 2194 1759 
Q 1497 1759 1228 1600 
Q 959 1441 959 1056 
Q 959 750 1161 570 
Q 1363 391 1709 391 
Q 2188 391 2477 730 
Q 2766 1069 2766 1631 
L 2766 1759 
L 2194 1759 
z
M 3341 1997 
L 3341 0 
L 2766 0 
L 2766 531 
Q 2569 213 2275 61 
Q 1981 -91 1556 -91 
Q 1019 -91 701 211 
Q 384 513 384 1019 
Q 384 1609 779 1909 
Q 1175 2209 1959 2209 
L 2766 2209 
L 2766 2266 
Q 2766 2663 2505 2880 
Q 2244 3097 1772 3097 
Q 1472 3097 1187 3025 
Q 903 2953 641 2809 
L 641 3341 
Q 956 3463 1253 3523 
Q 1550 3584 1831 3584 
Q 2591 3584 2966 3190 
Q 3341 2797 3341 1997 
z
" transform="scale(0.015625)"/>
       <path id="DejaVuSans-6c" d="M 603 4863 
L 1178 4863 
L 1178 0 
L 603 0 
L 603 4863 
z
" transform="scale(0.015625)"/>
       <path id="DejaVuSans-20" transform="scale(0.015625)"/>
       <path id="DejaVuSans-65" d="M 3597 1894 
L 3597 1613 
L 953 1613 
Q 991 1019 1311 708 
Q 1631 397 2203 397 
Q 2534 397 2845 478 
Q 3156 559 3463 722 
L 3463 178 
Q 3153 47 2828 -22 
Q 2503 -91 2169 -91 
Q 1331 -91 842 396 
Q 353 884 353 1716 
Q 353 2575 817 3079 
Q 1281 3584 2069 3584 
Q 2775 3584 3186 3129 
Q 3597 2675 3597 1894 
z
M 3022 2063 
Q 3016 2534 2758 2815 
Q 2500 3097 2075 3097 
Q 1594 3097 1305 2825 
Q 1016 2553 972 2059 
L 3022 2063 
z
" transform="scale(0.015625)"/>
       <path id="DejaVuSans-78" d="M 3513 3500 
L 2247 1797 
L 3578 0 
L 2900 0 
L 1881 1375 
L 863 0 
L 184 0 
L 1544 1831 
L 300 3500 
L 978 3500 
L 1906 2253 
L 2834 3500 
L 3513 3500 
z
" transform="scale(0.015625)"/>
       <path id="DejaVuSans-70" d="M 1159 525 
L 1159 -1331 
L 581 -1331 
L 581 3500 
L 1159 3500 
L 1159 2969 
Q 1341 3281 1617 3432 
Q 1894 3584 2278 3584 
Q 2916 3584 3314 3078 
Q 3713 2572 3713 1747 
Q 3713 922 3314 415 
Q 2916 -91 2278 -91 
Q 1894 -91 1617 61 
Q 1341 213 1159 525 
z
M 3116 1747 
Q 3116 2381 2855 2742 
Q 2594 3103 2138 3103 
Q 1681 3103 1420 2742 
Q 1159 2381 1159 1747 
Q 1159 1113 1420 752 
Q 1681 391 2138 391 
Q 2594 391 2855 752 
Q 3116 1113 3116 1747 
z
" transform="scale(0.015625)"/>
       <path id="DejaVuSans-72" d="M 2631 2963 
Q 2534 3019 2420 3045 
Q 2306 3072 2169 3072 
Q 1681 3072 1420 2755 
Q 1159 2438 1159 1844 
L 1159 0 
L 581 0 
L 581 3500 
L 1159 3500 
L 1159 2956 
Q 1341 3275 1631 3429 
Q 1922 3584 2338 3584 
Q 2397 3584 2469 3576 
Q 2541 3569 2628 3553 
L 2631 2963 
z
" transform="scale(0.015625)"/>
       <path id="DejaVuSans-73" d="M 2834 3397 
L 2834 2853 
Q 2591 2978 2328 3040 
Q 2066 3103 1784 3103 
Q 1356 3103 1142 2972 
Q 928 2841 928 2578 
Q 928 2378 1081 2264 
Q 1234 2150 1697 2047 
L 1894 2003 
Q 2506 1872 2764 1633 
Q 3022 1394 3022 966 
Q 3022 478 2636 193 
Q 2250 -91 1575 -91 
Q 1294 -91 989 -36 
Q 684 19 347 128 
L 347 722 
Q 666 556 975 473 
Q 1284 391 1588 391 
Q 1994 391 2212 530 
Q 2431 669 2431 922 
Q 2431 1156 2273 1281 
Q 2116 1406 1581 1522 
L 1381 1569 
Q 847 1681 609 1914 
Q 372 2147 372 2553 
Q 372 3047 722 3315 
Q 1072 3584 1716 3584 
Q 2034 3584 2315 3537 
Q 2597 3491 2834 3397 
z
" transform="scale(0.015625)"/>
       <path id="DejaVuSans-69" d="M 603 3500 
L 1178 3500 
L 1178 0 
L 603 0 
L 603 3500 
z
M 603 4863 
L 1178 4863 
L 1178 4134 
L 603 4134 
L 603 4863 
z
" transform="scale(0.015625)"/>
       <path id="DejaVuSans-6e" d="M 3513 2113 
L 3513 0 
L 2938 0 
L 2938 2094 
Q 2938 2591 2744 2837 
Q 2550 3084 2163 3084 
Q 1697 3084 1428 2787 
Q 1159 2491 1159 1978 
L 1159 0 
L 581 0 
L 581 3500 
L 1159 3500 
L 1159 2956 
Q 1366 3272 1645 3428 
Q 1925 3584 2291 3584 
Q 2894 3584 3203 3211 
Q 3513 2838 3513 2113 
z
" transform="scale(0.015625)"/>
       <path id="DejaVuSans-28" d="M 1984 4856 
Q 1566 4138 1362 3434 
Q 1159 2731 1159 2009 
Q 1159 1288 1364 580 
Q 1569 -128 1984 -844 
L 1484 -844 
Q 1016 -109 783 600 
Q 550 1309 550 2009 
Q 550 2706 781 3412 
Q 1013 4119 1484 4856 
L 1984 4856 
z
" transform="scale(0.015625)"/>
       <path id="DejaVuSans-75" d="M 544 1381 
L 544 3500 
L 1119 3500 
L 1119 1403 
Q 1119 906 1312 657 
Q 1506 409 1894 409 
Q 2359 409 2629 706 
Q 2900 1003 2900 1516 
L 2900 3500 
L 3475 3500 
L 3475 0 
L 2900 0 
L 2900 538 
Q 2691 219 2414 64 
Q 2138 -91 1772 -91 
Q 1169 -91 856 284 
Q 544 659 544 1381 
z
M 1991 3584 
L 1991 3584 
z
" transform="scale(0.015625)"/>
       <path id="DejaVuSans-63" d="M 3122 3366 
L 3122 2828 
Q 2878 2963 2633 3030 
Q 2388 3097 2138 3097 
Q 1578 3097 1268 2742 
Q 959 2388 959 1747 
Q 959 1106 1268 751 
Q 1578 397 2138 397 
Q 2388 397 2633 464 
Q 2878 531 3122 666 
L 3122 134 
Q 2881 22 2623 -34 
Q 2366 -91 2075 -91 
Q 1284 -91 818 406 
Q 353 903 353 1747 
Q 353 2603 823 3093 
Q 1294 3584 2113 3584 
Q 2378 3584 2631 3529 
Q 2884 3475 3122 3366 
z
" transform="scale(0.015625)"/>
       <path id="DejaVuSans-64" d="M 2906 2969 
L 2906 4863 
L 3481 4863 
L 3481 0 
L 2906 0 
L 2906 525 
Q 2725 213 2448 61 
Q 2172 -91 1784 -91 
Q 1150 -91 751 415 
Q 353 922 353 1747 
Q 353 2572 751 3078 
Q 1150 3584 1784 3584 
Q 2172 3584 2448 3432 
Q 2725 3281 2906 2969 
z
M 947 1747 
Q 947 1113 1208 752 
Q 1469 391 1925 391 
Q 2381 391 2643 752 
Q 2906 1113 2906 1747 
Q 2906 2381 2643 2742 
Q 2381 3103 1925 3103 
Q 1469 3103 1208 2742 
Q 947 2381 947 1747 
z
" transform="scale(0.015625)"/>
       <path id="DejaVuSans-29" d="M 513 4856 
L 1013 4856 
Q 1481 4119 1714 3412 
Q 1947 2706 1947 2009 
Q 1947 1309 1714 600 
Q 1481 -109 1013 -844 
L 513 -844 
Q 928 -128 1133 580 
Q 1338 1288 1338 2009 
Q 1338 2731 1133 3434 
Q 928 4138 513 4856 
z
" transform="scale(0.015625)"/>
       <path id="DejaVuSans-41" d="M 2188 4044 
L 1331 1722 
L 3047 1722 
L 2188 4044 
z
M 1831 4666 
L 2547 4666 
L 4325 0 
L 3669 0 
L 3244 1197 
L 1141 1197 
L 716 0 
L 50 0 
L 1831 4666 
z
" transform="scale(0.015625)"/>
       <path id="DejaVuSans-49" d="M 628 4666 
L 1259 4666 
L 1259 0 
L 628 0 
L 628 4666 
z
" transform="scale(0.015625)"/>
       <path id="DejaVuSans-44" d="M 1259 4147 
L 1259 519 
L 2022 519 
Q 2988 519 3436 956 
Q 3884 1394 3884 2338 
Q 3884 3275 3436 3711 
Q 2988 4147 2022 4147 
L 1259 4147 
z
M 628 4666 
L 1925 4666 
Q 3281 4666 3915 4102 
Q 4550 3538 4550 2338 
Q 4550 1131 3912 565 
Q 3275 0 1925 0 
L 628 0 
L 628 4666 
z
" transform="scale(0.015625)"/>
       <path id="DejaVuSans-2c" d="M 750 794 
L 1409 794 
L 1409 256 
L 897 -744 
L 494 -744 
L 750 256 
L 750 794 
z
" transform="scale(0.015625)"/>
       <path id="DejaVuSans-67" d="M 2906 1791 
Q 2906 2416 2648 2759 
Q 2391 3103 1925 3103 
Q 1463 3103 1205 2759 
Q 947 2416 947 1791 
Q 947 1169 1205 825 
Q 1463 481 1925 481 
Q 2391 481 2648 825 
Q 2906 1169 2906 1791 
z
M 3481 434 
Q 3481 -459 3084 -895 
Q 2688 -1331 1869 -1331 
Q 1566 -1331 1297 -1286 
Q 1028 -1241 775 -1147 
L 775 -588 
Q 1028 -725 1275 -790 
Q 1522 -856 1778 -856 
Q 2344 -856 2625 -561 
Q 2906 -266 2906 331 
L 2906 616 
Q 2728 306 2450 153 
Q 2172 0 1784 0 
Q 1141 0 747 490 
Q 353 981 353 1791 
Q 353 2603 747 3093 
Q 1141 3584 1784 3584 
Q 2172 3584 2450 3431 
Q 2728 3278 2906 2969 
L 2906 3500 
L 3481 3500 
L 3481 434 
z
" transform="scale(0.015625)"/>
      </defs>
      <use xlink:href="#DejaVuSans-54"/>
      <use xlink:href="#DejaVuSans-6f" transform="translate(44.083984 0)"/>
      <use xlink:href="#DejaVuSans-74" transform="translate(105.265625 0)"/>
      <use xlink:href="#DejaVuSans-61" transform="translate(144.474609 0)"/>
      <use xlink:href="#DejaVuSans-6c" transform="translate(205.753906 0)"/>
      <use xlink:href="#DejaVuSans-20" transform="translate(233.537109 0)"/>
      <use xlink:href="#DejaVuSans-65" transform="translate(265.324219 0)"/>
      <use xlink:href="#DejaVuSans-78" transform="translate(325.097656 0)"/>
      <use xlink:href="#DejaVuSans-70" transform="translate(384.277344 0)"/>
      <use xlink:href="#DejaVuSans-72" transform="translate(447.753906 0)"/>
      <use xlink:href="#DejaVuSans-65" transform="translate(486.617188 0)"/>
      <use xlink:href="#DejaVuSans-73" transform="translate(548.140625 0)"/>
      <use xlink:href="#DejaVuSans-73" transform="translate(600.240234 0)"/>
      <use xlink:href="#DejaVuSans-69" transform="translate(652.339844 0)"/>
      <use xlink:href="#DejaVuSans-6f" transform="translate(680.123047 0)"/>
      <use xlink:href="#DejaVuSans-6e" transform="translate(741.304688 0)"/>
      <use xlink:href="#DejaVuSans-73" transform="translate(804.683594 0)"/>
      <use xlink:href="#DejaVuSans-20" transform="translate(856.783203 0)"/>
      <use xlink:href="#DejaVuSans-28" transform="translate(888.570312 0)"/>
      <use xlink:href="#DejaVuSans-6e" transform="translate(927.583984 0)"/>
      <use xlink:href="#DejaVuSans-75" transform="translate(990.962891 0)"/>
      <use xlink:href="#DejaVuSans-63" transform="translate(1054.341797 0)"/>
      <use xlink:href="#DejaVuSans-6c" transform="translate(1109.322266 0)"/>
      <use xlink:href="#DejaVuSans-65" transform="translate(1137.105469 0)"/>
      <use xlink:href="#DejaVuSans-6f" transform="translate(1198.628906 0)"/>
      <use xlink:href="#DejaVuSans-74" transform="translate(1259.810547 0)"/>
      <use xlink:href="#DejaVuSans-69" transform="translate(1299.019531 0)"/>
      <use xlink:href="#DejaVuSans-64" transform="translate(1326.802734 0)"/>
      <use xlink:href="#DejaVuSans-65" transform="translate(1390.279297 0)"/>
      <use xlink:href="#DejaVuSans-20" transform="translate(1451.802734 0)"/>
      <use xlink:href="#DejaVuSans-61" transform="translate(1483.589844 0)"/>
      <use xlink:href="#DejaVuSans-6e" transform="translate(1544.869141 0)"/>
      <use xlink:href="#DejaVuSans-64" transform="translate(1608.248047 0)"/>
      <use xlink:href="#DejaVuSans-20" transform="translate(1671.724609 0)"/>
      <use xlink:href="#DejaVuSans-70" transform="translate(1703.511719 0)"/>
      <use xlink:href="#DejaVuSans-72" transform="translate(1766.988281 0)"/>
      <use xlink:href="#DejaVuSans-6f" transform="translate(1805.851562 0)"/>
      <use xlink:href="#DejaVuSans-74" transform="translate(1867.033203 0)"/>
      <use xlink:href="#DejaVuSans-65" transform="translate(1906.242188 0)"/>
      <use xlink:href="#DejaVuSans-69" transform="translate(1967.765625 0)"/>
      <use xlink:href="#DejaVuSans-6e" transform="translate(1995.548828 0)"/>
      <use xlink:href="#DejaVuSans-29" transform="translate(2058.927734 0)"/>
      <use xlink:href="#DejaVuSans-20" transform="translate(2097.941406 0)"/>
      <use xlink:href="#DejaVuSans-70" transform="translate(2129.728516 0)"/>
      <use xlink:href="#DejaVuSans-65" transform="translate(2193.205078 0)"/>
      <use xlink:href="#DejaVuSans-72" transform="translate(2254.728516 0)"/>
      <use xlink:href="#DejaVuSans-20" transform="translate(2295.841797 0)"/>
      <use xlink:href="#DejaVuSans-41" transform="translate(2327.628906 0)"/>
      <use xlink:href="#DejaVuSans-6c" transform="translate(2396.037109 0)"/>
      <use xlink:href="#DejaVuSans-6c" transform="translate(2423.820312 0)"/>
      <use xlink:href="#DejaVuSans-65" transform="translate(2451.603516 0)"/>
      <use xlink:href="#DejaVuSans-6c" transform="translate(2513.126953 0)"/>
      <use xlink:href="#DejaVuSans-65" transform="translate(2540.910156 0)"/>
      <use xlink:href="#DejaVuSans-49" transform="translate(2602.433594 0)"/>
      <use xlink:href="#DejaVuSans-44" transform="translate(2631.925781 0)"/>
      <use xlink:href="#DejaVuSans-2c" transform="translate(2708.927734 0)"/>
      <use xlink:href="#DejaVuSans-20" transform="translate(2740.714844 0)"/>
      <use xlink:href="#DejaVuSans-28" transform="translate(2772.501953 0)"/>
      <use xlink:href="#DejaVuSans-6c" transform="translate(2811.515625 0)"/>
      <use xlink:href="#DejaVuSans-6f" transform="translate(2839.298828 0)"/>
      <use xlink:href="#DejaVuSans-67" transform="translate(2900.480469 0)"/>
      <use xlink:href="#DejaVuSans-31" transform="translate(2963.957031 0)"/>
      <use xlink:href="#DejaVuSans-70" transform="translate(3027.580078 0)"/>
      <use xlink:href="#DejaVuSans-20" transform="translate(3091.056641 0)"/>
      <use xlink:href="#DejaVuSans-73" transform="translate(3122.84375 0)"/>
      <use xlink:href="#DejaVuSans-63" transform="translate(3174.943359 0)"/>
      <use xlink:href="#DejaVuSans-61" transform="translate(3229.923828 0)"/>
      <use xlink:href="#DejaVuSans-6c" transform="translate(3291.203125 0)"/>
      <use xlink:href="#DejaVuSans-65" transform="translate(3318.986328 0)"/>
      <use xlink:href="#DejaVuSans-29" transform="translate(3380.509766 0)"/>
     </g>
    </g>
   </g>
   <g id="matplotlib.axis_2">
    <g id="ytick_1">
     <g id="line2d_9">
      <defs>
       <path id="m34a9045429" d="M 0 0 
L -3.5 0 
" style="stroke: #000000; stroke-width: 0.8"/>
      </defs>
      <g>
       <use xlink:href="#m34a9045429" x="49.588125" y="441.1575" style="stroke: #000000; stroke-width: 0.8"/>
      </g>
     </g>
     <g id="text_10">
      <!-- 0.0 -->
      <g transform="translate(26.685 444.956719) scale(0.1 -0.1)">
       <defs>
        <path id="DejaVuSans-2e" d="M 684 794 
L 1344 794 
L 1344 0 
L 684 0 
L 684 794 
z
" transform="scale(0.015625)"/>
       </defs>
       <use xlink:href="#DejaVuSans-30"/>
       <use xlink:href="#DejaVuSans-2e" transform="translate(63.623047 0)"/>
       <use xlink:href="#DejaVuSans-30" transform="translate(95.410156 0)"/>
      </g>
     </g>
    </g>
    <g id="ytick_2">
     <g id="line2d_10">
      <g>
       <use xlink:href="#m34a9045429" x="49.588125" y="394.165688" style="stroke: #000000; stroke-width: 0.8"/>
      </g>
     </g>
     <g id="text_11">
      <!-- 0.2 -->
      <g transform="translate(26.685 397.964907) scale(0.1 -0.1)">
       <use xlink:href="#DejaVuSans-30"/>
       <use xlink:href="#DejaVuSans-2e" transform="translate(63.623047 0)"/>
       <use xlink:href="#DejaVuSans-32" transform="translate(95.410156 0)"/>
      </g>
     </g>
    </g>
    <g id="ytick_3">
     <g id="line2d_11">
      <g>
       <use xlink:href="#m34a9045429" x="49.588125" y="347.173876" style="stroke: #000000; stroke-width: 0.8"/>
      </g>
     </g>
     <g id="text_12">
      <!-- 0.4 -->
      <g transform="translate(26.685 350.973095) scale(0.1 -0.1)">
       <use xlink:href="#DejaVuSans-30"/>
       <use xlink:href="#DejaVuSans-2e" transform="translate(63.623047 0)"/>
       <use xlink:href="#DejaVuSans-34" transform="translate(95.410156 0)"/>
      </g>
     </g>
    </g>
    <g id="ytick_4">
     <g id="line2d_12">
      <g>
       <use xlink:href="#m34a9045429" x="49.588125" y="300.182064" style="stroke: #000000; stroke-width: 0.8"/>
      </g>
     </g>
     <g id="text_13">
      <!-- 0.6 -->
      <g transform="translate(26.685 303.981283) scale(0.1 -0.1)">
       <use xlink:href="#DejaVuSans-30"/>
       <use xlink:href="#DejaVuSans-2e" transform="translate(63.623047 0)"/>
       <use xlink:href="#DejaVuSans-36" transform="translate(95.410156 0)"/>
      </g>
     </g>
    </g>
    <g id="ytick_5">
     <g id="line2d_13">
      <g>
       <use xlink:href="#m34a9045429" x="49.588125" y="253.190252" style="stroke: #000000; stroke-width: 0.8"/>
      </g>
     </g>
     <g id="text_14">
      <!-- 0.8 -->
      <g transform="translate(26.685 256.989471) scale(0.1 -0.1)">
       <defs>
        <path id="DejaVuSans-38" d="M 2034 2216 
Q 1584 2216 1326 1975 
Q 1069 1734 1069 1313 
Q 1069 891 1326 650 
Q 1584 409 2034 409 
Q 2484 409 2743 651 
Q 3003 894 3003 1313 
Q 3003 1734 2745 1975 
Q 2488 2216 2034 2216 
z
M 1403 2484 
Q 997 2584 770 2862 
Q 544 3141 544 3541 
Q 544 4100 942 4425 
Q 1341 4750 2034 4750 
Q 2731 4750 3128 4425 
Q 3525 4100 3525 3541 
Q 3525 3141 3298 2862 
Q 3072 2584 2669 2484 
Q 3125 2378 3379 2068 
Q 3634 1759 3634 1313 
Q 3634 634 3220 271 
Q 2806 -91 2034 -91 
Q 1263 -91 848 271 
Q 434 634 434 1313 
Q 434 1759 690 2068 
Q 947 2378 1403 2484 
z
M 1172 3481 
Q 1172 3119 1398 2916 
Q 1625 2713 2034 2713 
Q 2441 2713 2670 2916 
Q 2900 3119 2900 3481 
Q 2900 3844 2670 4047 
Q 2441 4250 2034 4250 
Q 1625 4250 1398 4047 
Q 1172 3844 1172 3481 
z
" transform="scale(0.015625)"/>
       </defs>
       <use xlink:href="#DejaVuSans-30"/>
       <use xlink:href="#DejaVuSans-2e" transform="translate(63.623047 0)"/>
       <use xlink:href="#DejaVuSans-38" transform="translate(95.410156 0)"/>
      </g>
     </g>
    </g>
    <g id="ytick_6">
     <g id="line2d_14">
      <g>
       <use xlink:href="#m34a9045429" x="49.588125" y="206.19844" style="stroke: #000000; stroke-width: 0.8"/>
      </g>
     </g>
     <g id="text_15">
      <!-- 1.0 -->
      <g transform="translate(26.685 209.997659) scale(0.1 -0.1)">
       <use xlink:href="#DejaVuSans-31"/>
       <use xlink:href="#DejaVuSans-2e" transform="translate(63.623047 0)"/>
       <use xlink:href="#DejaVuSans-30" transform="translate(95.410156 0)"/>
      </g>
     </g>
    </g>
    <g id="ytick_7">
     <g id="line2d_15">
      <g>
       <use xlink:href="#m34a9045429" x="49.588125" y="159.206628" style="stroke: #000000; stroke-width: 0.8"/>
      </g>
     </g>
     <g id="text_16">
      <!-- 1.2 -->
      <g transform="translate(26.685 163.005847) scale(0.1 -0.1)">
       <use xlink:href="#DejaVuSans-31"/>
       <use xlink:href="#DejaVuSans-2e" transform="translate(63.623047 0)"/>
       <use xlink:href="#DejaVuSans-32" transform="translate(95.410156 0)"/>
      </g>
     </g>
    </g>
    <g id="ytick_8">
     <g id="line2d_16">
      <g>
       <use xlink:href="#m34a9045429" x="49.588125" y="112.214816" style="stroke: #000000; stroke-width: 0.8"/>
      </g>
     </g>
     <g id="text_17">
      <!-- 1.4 -->
      <g transform="translate(26.685 116.014035) scale(0.1 -0.1)">
       <use xlink:href="#DejaVuSans-31"/>
       <use xlink:href="#DejaVuSans-2e" transform="translate(63.623047 0)"/>
       <use xlink:href="#DejaVuSans-34" transform="translate(95.410156 0)"/>
      </g>
     </g>
    </g>
    <g id="ytick_9">
     <g id="line2d_17">
      <g>
       <use xlink:href="#m34a9045429" x="49.588125" y="65.223004" style="stroke: #000000; stroke-width: 0.8"/>
      </g>
     </g>
     <g id="text_18">
      <!-- 1.6 -->
      <g transform="translate(26.685 69.022222) scale(0.1 -0.1)">
       <use xlink:href="#DejaVuSans-31"/>
       <use xlink:href="#DejaVuSans-2e" transform="translate(63.623047 0)"/>
       <use xlink:href="#DejaVuSans-36" transform="translate(95.410156 0)"/>
      </g>
     </g>
    </g>
    <g id="text_19">
     <!-- ClinVar AlleleID counts -->
     <g transform="translate(19.3575 323.73) rotate(-90) scale(0.16 -0.16)">
      <defs>
       <path id="DejaVuSans-43" d="M 4122 4306 
L 4122 3641 
Q 3803 3938 3442 4084 
Q 3081 4231 2675 4231 
Q 1875 4231 1450 3742 
Q 1025 3253 1025 2328 
Q 1025 1406 1450 917 
Q 1875 428 2675 428 
Q 3081 428 3442 575 
Q 3803 722 4122 1019 
L 4122 359 
Q 3791 134 3420 21 
Q 3050 -91 2638 -91 
Q 1578 -91 968 557 
Q 359 1206 359 2328 
Q 359 3453 968 4101 
Q 1578 4750 2638 4750 
Q 3056 4750 3426 4639 
Q 3797 4528 4122 4306 
z
" transform="scale(0.015625)"/>
       <path id="DejaVuSans-56" d="M 1831 0 
L 50 4666 
L 709 4666 
L 2188 738 
L 3669 4666 
L 4325 4666 
L 2547 0 
L 1831 0 
z
" transform="scale(0.015625)"/>
      </defs>
      <use xlink:href="#DejaVuSans-43"/>
      <use xlink:href="#DejaVuSans-6c" transform="translate(69.824219 0)"/>
      <use xlink:href="#DejaVuSans-69" transform="translate(97.607422 0)"/>
      <use xlink:href="#DejaVuSans-6e" transform="translate(125.390625 0)"/>
      <use xlink:href="#DejaVuSans-56" transform="translate(188.769531 0)"/>
      <use xlink:href="#DejaVuSans-61" transform="translate(249.427734 0)"/>
      <use xlink:href="#DejaVuSans-72" transform="translate(310.707031 0)"/>
      <use xlink:href="#DejaVuSans-20" transform="translate(351.820312 0)"/>
      <use xlink:href="#DejaVuSans-41" transform="translate(383.607422 0)"/>
      <use xlink:href="#DejaVuSans-6c" transform="translate(452.015625 0)"/>
      <use xlink:href="#DejaVuSans-6c" transform="translate(479.798828 0)"/>
      <use xlink:href="#DejaVuSans-65" transform="translate(507.582031 0)"/>
      <use xlink:href="#DejaVuSans-6c" transform="translate(569.105469 0)"/>
      <use xlink:href="#DejaVuSans-65" transform="translate(596.888672 0)"/>
      <use xlink:href="#DejaVuSans-49" transform="translate(658.412109 0)"/>
      <use xlink:href="#DejaVuSans-44" transform="translate(687.904297 0)"/>
      <use xlink:href="#DejaVuSans-20" transform="translate(764.90625 0)"/>
      <use xlink:href="#DejaVuSans-63" transform="translate(796.693359 0)"/>
      <use xlink:href="#DejaVuSans-6f" transform="translate(851.673828 0)"/>
      <use xlink:href="#DejaVuSans-75" transform="translate(912.855469 0)"/>
      <use xlink:href="#DejaVuSans-6e" transform="translate(976.234375 0)"/>
      <use xlink:href="#DejaVuSans-74" transform="translate(1039.613281 0)"/>
      <use xlink:href="#DejaVuSans-73" transform="translate(1078.822266 0)"/>
     </g>
    </g>
    <g id="text_20">
     <!-- 1e6 -->
     <g transform="translate(49.588125 22.3575) scale(0.1 -0.1)">
      <use xlink:href="#DejaVuSans-31"/>
      <use xlink:href="#DejaVuSans-65" transform="translate(63.623047 0)"/>
      <use xlink:href="#DejaVuSans-36" transform="translate(125.146484 0)"/>
     </g>
    </g>
   </g>
   <g id="patch_103">
    <path d="M 49.588125 441.1575 
L 49.588125 25.3575 
" style="fill: none; stroke: #000000; stroke-width: 0.8; stroke-linejoin: miter; stroke-linecap: square"/>
   </g>
   <g id="patch_104">
    <path d="M 607.588125 441.1575 
L 607.588125 25.3575 
" style="fill: none; stroke: #000000; stroke-width: 0.8; stroke-linejoin: miter; stroke-linecap: square"/>
   </g>
   <g id="patch_105">
    <path d="M 49.588125 441.1575 
L 607.588125 441.1575 
" style="fill: none; stroke: #000000; stroke-width: 0.8; stroke-linejoin: miter; stroke-linecap: square"/>
   </g>
   <g id="patch_106">
    <path d="M 49.588125 25.3575 
L 607.588125 25.3575 
" style="fill: none; stroke: #000000; stroke-width: 0.8; stroke-linejoin: miter; stroke-linecap: square"/>
   </g>
   <g id="text_21">
    <!-- Expressions per AlleleID in ClinVar -->
    <g transform="translate(191.595625 19.3575) scale(0.16 -0.16)">
     <defs>
      <path id="DejaVuSans-45" d="M 628 4666 
L 3578 4666 
L 3578 4134 
L 1259 4134 
L 1259 2753 
L 3481 2753 
L 3481 2222 
L 1259 2222 
L 1259 531 
L 3634 531 
L 3634 0 
L 628 0 
L 628 4666 
z
" transform="scale(0.015625)"/>
     </defs>
     <use xlink:href="#DejaVuSans-45"/>
     <use xlink:href="#DejaVuSans-78" transform="translate(63.183594 0)"/>
     <use xlink:href="#DejaVuSans-70" transform="translate(122.363281 0)"/>
     <use xlink:href="#DejaVuSans-72" transform="translate(185.839844 0)"/>
     <use xlink:href="#DejaVuSans-65" transform="translate(224.703125 0)"/>
     <use xlink:href="#DejaVuSans-73" transform="translate(286.226562 0)"/>
     <use xlink:href="#DejaVuSans-73" transform="translate(338.326172 0)"/>
     <use xlink:href="#DejaVuSans-69" transform="translate(390.425781 0)"/>
     <use xlink:href="#DejaVuSans-6f" transform="translate(418.208984 0)"/>
     <use xlink:href="#DejaVuSans-6e" transform="translate(479.390625 0)"/>
     <use xlink:href="#DejaVuSans-73" transform="translate(542.769531 0)"/>
     <use xlink:href="#DejaVuSans-20" transform="translate(594.869141 0)"/>
     <use xlink:href="#DejaVuSans-70" transform="translate(626.65625 0)"/>
     <use xlink:href="#DejaVuSans-65" transform="translate(690.132812 0)"/>
     <use xlink:href="#DejaVuSans-72" transform="translate(751.65625 0)"/>
     <use xlink:href="#DejaVuSans-20" transform="translate(792.769531 0)"/>
     <use xlink:href="#DejaVuSans-41" transform="translate(824.556641 0)"/>
     <use xlink:href="#DejaVuSans-6c" transform="translate(892.964844 0)"/>
     <use xlink:href="#DejaVuSans-6c" transform="translate(920.748047 0)"/>
     <use xlink:href="#DejaVuSans-65" transform="translate(948.53125 0)"/>
     <use xlink:href="#DejaVuSans-6c" transform="translate(1010.054688 0)"/>
     <use xlink:href="#DejaVuSans-65" transform="translate(1037.837891 0)"/>
     <use xlink:href="#DejaVuSans-49" transform="translate(1099.361328 0)"/>
     <use xlink:href="#DejaVuSans-44" transform="translate(1128.853516 0)"/>
     <use xlink:href="#DejaVuSans-20" transform="translate(1205.855469 0)"/>
     <use xlink:href="#DejaVuSans-69" transform="translate(1237.642578 0)"/>
     <use xlink:href="#DejaVuSans-6e" transform="translate(1265.425781 0)"/>
     <use xlink:href="#DejaVuSans-20" transform="translate(1328.804688 0)"/>
     <use xlink:href="#DejaVuSans-43" transform="translate(1360.591797 0)"/>
     <use xlink:href="#DejaVuSans-6c" transform="translate(1430.416016 0)"/>
     <use xlink:href="#DejaVuSans-69" transform="translate(1458.199219 0)"/>
     <use xlink:href="#DejaVuSans-6e" transform="translate(1485.982422 0)"/>
     <use xlink:href="#DejaVuSans-56" transform="translate(1549.361328 0)"/>
     <use xlink:href="#DejaVuSans-61" transform="translate(1610.019531 0)"/>
     <use xlink:href="#DejaVuSans-72" transform="translate(1671.298828 0)"/>
    </g>
   </g>
  </g>
 </g>
 <defs>
  <clipPath id="paa0b7ce5b0">
   <rect x="49.588125" y="25.3575" width="558" height="415.8"/>
  </clipPath>
 </defs>
</svg>
